<svg xmlns="http://www.w3.org/2000/svg" width="468" height="200.365" viewBox="0 0 468 200.365">
  <g id="그룹_722" data-name="그룹 722" transform="translate(-726 -4281.318)">
    <g id="그룹_14" data-name="그룹 14" transform="translate(852.353 4412.506)">
      <path id="패스_16" data-name="패스 16" d="M385.925,510.092a1.441,1.441,0,0,1,.3-.985,1.323,1.323,0,0,1,1.024-.33h25.819a1.324,1.324,0,0,1,1.024.33,1.441,1.441,0,0,1,.3.985v8.514a1.442,1.442,0,0,1-.3.985,1.324,1.324,0,0,1-1.024.327H409.49a1.321,1.321,0,0,1-1.024-.327,1.441,1.441,0,0,1-.3-.985v-5.59H387.231a1.325,1.325,0,0,1-1.024-.33,1.442,1.442,0,0,1-.3-.985ZM387.24,525.7a1.451,1.451,0,0,1-.985-.3,1.317,1.317,0,0,1-.33-1.024v-1.609a1.315,1.315,0,0,1,.33-1.024,1.436,1.436,0,0,1,.985-.3h8v-3.879a1.435,1.435,0,0,1,.3-.985,1.324,1.324,0,0,1,1.024-.33h3.543a1.324,1.324,0,0,1,1.024.33,1.436,1.436,0,0,1,.3.985v3.873h11.655a1.448,1.448,0,0,1,.988.3,1.324,1.324,0,0,1,.327,1.024v1.609a1.33,1.33,0,0,1-.327,1.024,1.465,1.465,0,0,1-.988.3Zm27.144,8.256a6.443,6.443,0,0,1-.51,2.777,3.9,3.9,0,0,1-1.444,1.645,5.978,5.978,0,0,1-2.192.8,16.029,16.029,0,0,1-2.759.222H392.8a15.7,15.7,0,0,1-2.741-.222,5.965,5.965,0,0,1-2.174-.8,3.9,3.9,0,0,1-1.444-1.645,7.755,7.755,0,0,1,0-5.533,3.854,3.854,0,0,1,1.444-1.66,5.968,5.968,0,0,1,2.174-.8,15.73,15.73,0,0,1,2.741-.219h14.684a16.035,16.035,0,0,1,2.759.219,5.979,5.979,0,0,1,2.192.8,3.854,3.854,0,0,1,1.444,1.66,6.471,6.471,0,0,1,.507,2.744Zm-22.25,0a1.1,1.1,0,0,0,.348.97,1.849,1.849,0,0,0,1.042.24h13.21a1.929,1.929,0,0,0,1.078-.24,1.519,1.519,0,0,0,0-1.937,1.932,1.932,0,0,0-1.078-.237h-13.21a1.849,1.849,0,0,0-1.042.237,1.108,1.108,0,0,0-.348.955Z" transform="translate(-385.904 -508.742)"/>
      <path id="패스_17" data-name="패스 17" d="M406.567,521.466a.858.858,0,0,1,.766-.988,18.488,18.488,0,0,0,3.711-.856,12.25,12.25,0,0,0,3.05-1.537,7.414,7.414,0,0,0,2.081-2.189,5.4,5.4,0,0,0,.769-2.87h-9.058a1.47,1.47,0,0,1-.988-.3,1.342,1.342,0,0,1-.327-1.024v-1.609a1.327,1.327,0,0,1,.327-1.021,1.453,1.453,0,0,1,.988-.3H421.84a1.321,1.321,0,0,1,1.024.33,1.441,1.441,0,0,1,.3.985v1.462a11.793,11.793,0,0,1-1.315,5.755,11.954,11.954,0,0,1-3.506,3.981,16.833,16.833,0,0,1-4.987,2.45,29.489,29.489,0,0,1-5.752,1.15,1.367,1.367,0,0,1-.787-.057c-.159-.084-.237-.3-.237-.639Zm27.546,16.621a1.445,1.445,0,0,1-.3.988,1.313,1.313,0,0,1-1.024.33h-24.9a1.312,1.312,0,0,1-1.024-.33,1.443,1.443,0,0,1-.3-.988v-8.659a1.45,1.45,0,0,1,.3-.985,1.324,1.324,0,0,1,1.024-.328h3.582a1.319,1.319,0,0,1,1.021.328,1.45,1.45,0,0,1,.3.984v5.74H432.8a1.324,1.324,0,0,1,1.024.327,1.444,1.444,0,0,1,.3.985Zm-5.989-9.46a1.32,1.32,0,0,1-1.024-.327,1.453,1.453,0,0,1-.3-.988V510.1a1.441,1.441,0,0,1,.3-.984,1.32,1.32,0,0,1,1.024-.33H431.7a1.324,1.324,0,0,1,1.024.33,1.442,1.442,0,0,1,.3.985v6.139h1.717a1.421,1.421,0,0,1,.985.3,1.294,1.294,0,0,1,.33,1.018v1.612a1.306,1.306,0,0,1-.33,1.021,1.435,1.435,0,0,1-.985.3h-1.717v6.833a1.454,1.454,0,0,1-.3.988,1.325,1.325,0,0,1-1.024.327Z" transform="translate(-344.549 -508.752)"/>
      <path id="패스_18" data-name="패스 18" d="M451.055,530.77v7.3a1.429,1.429,0,0,1-.3.988,1.3,1.3,0,0,1-1.021.33h-3.543a1.309,1.309,0,0,1-1.024-.33,1.428,1.428,0,0,1-.3-.988v-7.3H437.89v7.3a1.444,1.444,0,0,1-.3.988,1.308,1.308,0,0,1-1.024.33h-3.543a1.309,1.309,0,0,1-1.024-.33,1.445,1.445,0,0,1-.3-.988v-7.3h-2.885a1.469,1.469,0,0,1-.988-.3,1.337,1.337,0,0,1-.327-1.024v-1.609a1.331,1.331,0,0,1,.327-1.021,1.452,1.452,0,0,1,.988-.3h25.123a1.443,1.443,0,0,1,.985.3,1.319,1.319,0,0,1,.327,1.021v1.609a1.323,1.323,0,0,1-.327,1.024,1.458,1.458,0,0,1-.985.3Zm-16.843-7.16a6.831,6.831,0,0,1-2.9-.568,5.6,5.6,0,0,1-2.03-1.552,6.513,6.513,0,0,1-1.2-2.336,10.842,10.842,0,0,1-.382-2.963,10.65,10.65,0,0,1,.381-2.918,6.672,6.672,0,0,1,1.2-2.36,5.509,5.509,0,0,1,2.048-1.57,6.976,6.976,0,0,1,2.921-.567h14.285a6.987,6.987,0,0,1,2.924.567,5.5,5.5,0,0,1,2.045,1.57,6.571,6.571,0,0,1,1.2,2.36,10.652,10.652,0,0,1,.384,2.918,10.852,10.852,0,0,1-.384,2.963,6.417,6.417,0,0,1-1.2,2.336,5.546,5.546,0,0,1-2.03,1.552,6.83,6.83,0,0,1-2.9.567Zm12.009-4.236a2.809,2.809,0,0,0,2.177-.859,3.32,3.32,0,0,0,.787-2.324,3.184,3.184,0,0,0-.826-2.354,2.885,2.885,0,0,0-2.138-.823h-9.679a2.885,2.885,0,0,0-2.138.822,3.183,3.183,0,0,0-.822,2.354,3.3,3.3,0,0,0,.786,2.324,2.8,2.8,0,0,0,2.174.859Z" transform="translate(-302.634 -508.735)"/>
      <path id="패스_19" data-name="패스 19" d="M465.225,518.8a5.508,5.508,0,0,1-.694,2.852,5.657,5.657,0,0,1-1.883,1.916,8.324,8.324,0,0,1-2.759,1.081,16.858,16.858,0,0,1-6.605,0,8.344,8.344,0,0,1-2.759-1.081,5.878,5.878,0,0,1-1.9-1.916,5.4,5.4,0,0,1-.711-2.852v-3.834a5.386,5.386,0,0,1,.712-2.849,5.861,5.861,0,0,1,1.9-1.919,8.278,8.278,0,0,1,2.759-1.078,16.711,16.711,0,0,1,6.605,0,8.253,8.253,0,0,1,2.759,1.078,5.639,5.639,0,0,1,1.882,1.919,5.5,5.5,0,0,1,.693,2.849Zm11.691,19.29a1.459,1.459,0,0,1-.3.988,1.311,1.311,0,0,1-1.024.33h-26a1.312,1.312,0,0,1-1.024-.33,1.444,1.444,0,0,1-.3-.988v-8.659a1.45,1.45,0,0,1,.3-.985,1.325,1.325,0,0,1,1.024-.328h3.579a1.325,1.325,0,0,1,1.024.327,1.45,1.45,0,0,1,.3.985v5.74h21.115a1.324,1.324,0,0,1,1.024.327,1.459,1.459,0,0,1,.3.985ZM459.2,515.262a2.144,2.144,0,0,0-.73-1.8,3.482,3.482,0,0,0-3.8,0,2.144,2.144,0,0,0-.73,1.8v3.251a2.142,2.142,0,0,0,.73,1.8,3.467,3.467,0,0,0,3.8,0,2.14,2.14,0,0,0,.73-1.8ZM471.3,528.634a1.324,1.324,0,0,1-1.024-.327,1.454,1.454,0,0,1-.3-.988v-5.008h-2.156a1.45,1.45,0,0,1-.985-.3,1.329,1.329,0,0,1-.33-1.024v-1.6a1.315,1.315,0,0,1,.33-1.024,1.436,1.436,0,0,1,.985-.3h2.156v-2.339h-2.156a1.434,1.434,0,0,1-.985-.3,1.321,1.321,0,0,1-.33-1.024v-1.606a1.312,1.312,0,0,1,.33-1.021,1.421,1.421,0,0,1,.985-.3h2.155v-1.39a1.441,1.441,0,0,1,.3-.984,1.323,1.323,0,0,1,1.024-.33h3.582a1.318,1.318,0,0,1,1.021.33,1.441,1.441,0,0,1,.3.985v17.209a1.453,1.453,0,0,1-.3.988,1.318,1.318,0,0,1-1.021.327Z" transform="translate(-261.749 -508.761)"/>
    </g>
    <g id="그룹_15" data-name="그룹 15" transform="translate(845.992 4455.813)">
      <path id="패스_20" data-name="패스 20" d="M389.567,534.405c-.7-.273-1.375-.57-2.039-.883a8.4,8.4,0,0,1-1.774-1.129,5.21,5.21,0,0,1-1.249-1.57,4.676,4.676,0,0,1-.474-2.195,4.5,4.5,0,0,1,.411-1.861,4.933,4.933,0,0,1,1.228-1.636,6.059,6.059,0,0,1,2.042-1.168,8.485,8.485,0,0,1,2.852-.439,9.789,9.789,0,0,1,2.732.354,6.216,6.216,0,0,1,2.1,1.03,4.461,4.461,0,0,1,1.324,1.654,5.012,5.012,0,0,1,.423,2.207,1.127,1.127,0,0,1-.2.657.837.837,0,0,1-.67.219h-2.282c-.6,0-.9-.3-.874-.877a2.523,2.523,0,0,0-.573-1.7,2.348,2.348,0,0,0-1.931-.729,3,3,0,0,0-1.99.6,2.029,2.029,0,0,0-.706,1.639,2.274,2.274,0,0,0,.414,1.372,4.287,4.287,0,0,0,1.021,1,7,7,0,0,0,1.324.727c.474.2.9.384,1.3.549q1.312.579,2.321,1.141a8.186,8.186,0,0,1,1.675,1.2,4.612,4.612,0,0,1,1.021,1.435,4.406,4.406,0,0,1,.351,1.8,4.917,4.917,0,0,1-1.774,3.849,6.134,6.134,0,0,1-2.063,1.12,8.839,8.839,0,0,1-2.744.4,10.757,10.757,0,0,1-3.182-.412,5.976,5.976,0,0,1-2.162-1.153,4.35,4.35,0,0,1-1.237-1.759,6.131,6.131,0,0,1-.39-2.21.967.967,0,0,1,.2-.657.868.868,0,0,1,.678-.216h2.357a.8.8,0,0,1,.658.216,1.3,1.3,0,0,1,.216.658,2.3,2.3,0,0,0,.2.775,2.121,2.121,0,0,0,.522.718,2.645,2.645,0,0,0,.9.531,3.729,3.729,0,0,0,1.324.21,2.448,2.448,0,0,0,1.033-.211,2.219,2.219,0,0,0,1.213-1.285,2.457,2.457,0,0,0,.159-.862,2.1,2.1,0,0,0-.267-1.081,2.56,2.56,0,0,0-.754-.786,6.08,6.08,0,0,0-1.153-.625Z" transform="translate(-383.785 -522.507)"/>
      <path id="패스_21" data-name="패스 21" d="M391.378,525.8a.958.958,0,0,1,.192-.655.877.877,0,0,1,.682-.219h2.1a.874.874,0,0,1,.679.219.959.959,0,0,1,.2.655v.483a4.643,4.643,0,0,1,1.843-1.126,6.932,6.932,0,0,1,2.309-.4,7.206,7.206,0,0,1,2.138.3,4.033,4.033,0,0,1,1.663,1,4.741,4.741,0,0,1,1.081,1.783,7.976,7.976,0,0,1,.387,2.648v4.467a7.923,7.923,0,0,1-.387,2.66,4.749,4.749,0,0,1-1.081,1.774,4.031,4.031,0,0,1-1.663,1,7.2,7.2,0,0,1-2.138.3,9.162,9.162,0,0,1-2.318-.267,4.075,4.075,0,0,1-1.8-.994v5.587a.963.963,0,0,1-.2.654.9.9,0,0,1-.681.219h-2.135a.9.9,0,0,1-.681-.219.964.964,0,0,1-.192-.655Zm3.885,9.13a2.582,2.582,0,0,0,.742,2.042,3.378,3.378,0,0,0,4.005,0,2.582,2.582,0,0,0,.742-2.042v-4.9a2.582,2.582,0,0,0-.742-2.042,3.39,3.39,0,0,0-4.005,0,2.581,2.581,0,0,0-.742,2.042Z" transform="translate(-368.594 -520.025)"/>
      <path id="패스_22" data-name="패스 22" d="M398.723,536.061a4.531,4.531,0,0,1,1.153-3.252,5.372,5.372,0,0,1,3.167-1.531l4.371-.655v-.961a2.732,2.732,0,0,0-.5-1.651,1.868,1.868,0,0,0-1.615-.679,3.523,3.523,0,0,0-1.348.279,1.887,1.887,0,0,0-1.033,1.009c-.129.258-.243.462-.339.619a.763.763,0,0,1-.634.255h-1.891a1.021,1.021,0,0,1-.718-.219.658.658,0,0,1-.135-.655,3.741,3.741,0,0,1,.729-1.666,5.039,5.039,0,0,1,1.372-1.2,6.256,6.256,0,0,1,1.822-.742,9.03,9.03,0,0,1,2.126-.24,8.242,8.242,0,0,1,2.744.408,4.807,4.807,0,0,1,1.855,1.156,4.5,4.5,0,0,1,1.057,1.8,7.556,7.556,0,0,1,.342,2.342v9.091a.968.968,0,0,1-.2.657.871.871,0,0,1-.678.216h-2.066a.877.877,0,0,1-.681-.216.966.966,0,0,1-.192-.657v-.12a5.54,5.54,0,0,1-1.882.886,8.974,8.974,0,0,1-2.465.33,4.856,4.856,0,0,1-1.835-.33,3.716,3.716,0,0,1-1.372-.934,4.184,4.184,0,0,1-.862-1.459,5.473,5.473,0,0,1-.3-1.882Zm5.68,1.5a3.876,3.876,0,0,0,1.543-.327,6.339,6.339,0,0,0,1.468-.886v-3.158l-2.72.39a2.523,2.523,0,0,0-1.042.324,2.4,2.4,0,0,0-.669.6,2.048,2.048,0,0,0-.351.729,3.183,3.183,0,0,0-.1.753,1.474,1.474,0,0,0,.483,1.129,1.979,1.979,0,0,0,1.384.45Z" transform="translate(-353.888 -520.01)"/>
      <path id="패스_23" data-name="패스 23" d="M418.428,535.18a1,1,0,0,1,.714.222.682.682,0,0,1,.159.651,6.134,6.134,0,0,1-.621,1.849,4.5,4.5,0,0,1-1.249,1.468,5.813,5.813,0,0,1-1.967.958,11.379,11.379,0,0,1-5.855-.084,5.531,5.531,0,0,1-2.1-1.18,4.453,4.453,0,0,1-1.165-1.747,6.073,6.073,0,0,1-.366-2.138v-4.927a6.6,6.6,0,0,1,.339-2.138,4.3,4.3,0,0,1,1.132-1.75,5.44,5.44,0,0,1,2.051-1.18,9.89,9.89,0,0,1,3.083-.42,9.994,9.994,0,0,1,2.831.351,5.585,5.585,0,0,1,1.943.97,4.18,4.18,0,0,1,1.165,1.468,6,6,0,0,1,.522,1.822c.063.582-.228.877-.874.877h-2.042a.76.76,0,0,1-.642-.219,1.587,1.587,0,0,1-.231-.657,2.3,2.3,0,0,0-.838-1.588,3.126,3.126,0,0,0-1.8-.45,2.757,2.757,0,0,0-2.051.7,2.492,2.492,0,0,0-.693,1.823v5.221a2.4,2.4,0,0,0,.754,1.823,2.978,2.978,0,0,0,2.1.7,3.674,3.674,0,0,0,1.747-.387,1.928,1.928,0,0,0,.973-1.168,2.985,2.985,0,0,1,.243-.651c.081-.147.282-.222.6-.222Z" transform="translate(-339.351 -520.027)"/>
      <path id="패스_24" data-name="패스 24" d="M413.325,530.237a5.813,5.813,0,0,1,.471-2.438,4.543,4.543,0,0,1,1.348-1.714,5.726,5.726,0,0,1,2.1-1,11,11,0,0,1,2.72-.3,6.773,6.773,0,0,1,5.014,1.564,6.074,6.074,0,0,1,1.52,4.407V532.9a.868.868,0,0,1-.219.679.959.959,0,0,1-.655.2h-8.406v1.336a2.378,2.378,0,0,0,.754,1.822,2.975,2.975,0,0,0,2.1.7,5.168,5.168,0,0,0,1.675-.24,1.585,1.585,0,0,0,.97-.826c.114-.276.207-.492.279-.646s.273-.228.6-.228h2.1a1.121,1.121,0,0,1,.742.216.654.654,0,0,1,.156.679,4.322,4.322,0,0,1-.6,1.543,4.478,4.478,0,0,1-1.276,1.312,6.581,6.581,0,0,1-1.978.9,9.723,9.723,0,0,1-2.7.342,9.93,9.93,0,0,1-3.107-.426,5.573,5.573,0,0,1-2.1-1.18,4.521,4.521,0,0,1-1.165-1.747,6.144,6.144,0,0,1-.363-2.138Zm9.349-.171a2.633,2.633,0,0,0-.729-2.1,2.884,2.884,0,0,0-1.966-.63,2.927,2.927,0,0,0-2.015.666,2.285,2.285,0,0,0-.754,1.8v1.558h5.464Z" transform="translate(-324.681 -520.038)"/>
      <path id="패스_25" data-name="패스 25" d="M432.642,543.171a8.479,8.479,0,0,1-5.515-1.516,5.473,5.473,0,0,1-1.819-4.455v-7.7a5.477,5.477,0,0,1,1.819-4.458,10.763,10.763,0,0,1,11.027,0,5.476,5.476,0,0,1,1.822,4.458v7.7a5.359,5.359,0,0,1-1.906,4.455,8.539,8.539,0,0,1-5.428,1.516Zm0-3.3a3.362,3.362,0,0,0,2.429-.778,2.973,2.973,0,0,0,.8-2.234v-7.506a3.123,3.123,0,0,0-.739-2.234,4.377,4.377,0,0,0-4.981,0,3.122,3.122,0,0,0-.739,2.234v7.506a2.936,2.936,0,0,0,.823,2.234,3.385,3.385,0,0,0,2.408.78Z" transform="translate(-300.672 -522.506)"/>
      <path id="패스_26" data-name="패스 26" d="M433.941,531.393a.953.953,0,0,1-.651-.2.867.867,0,0,1-.222-.679v-1.072a.877.877,0,0,1,.222-.679.955.955,0,0,1,.652-.2h.976v-1.915a3.6,3.6,0,0,1,.351-1.69,2.852,2.852,0,0,1,.946-1.066,3.782,3.782,0,0,1,1.36-.562,7.755,7.755,0,0,1,1.567-.156h.826a6.4,6.4,0,0,1,.679.063,1.738,1.738,0,0,1,.8.243.76.76,0,0,1,.219.63v.8a1.271,1.271,0,0,1-.132.664c-.09.138-.3.192-.6.159-.18-.015-.363-.024-.549-.024h-.694q-1.09,0-1.09,1.021v1.819h2.186a.957.957,0,0,1,.654.2.877.877,0,0,1,.219.679v1.072a.868.868,0,0,1-.219.679.958.958,0,0,1-.654.2H438.6v11.36a.952.952,0,0,1-.2.658.87.87,0,0,1-.681.216h-1.939a.871.871,0,0,1-.681-.216.967.967,0,0,1-.192-.657V531.406Z" transform="translate(-285.119 -523.185)"/>
      <path id="패스_27" data-name="패스 27" d="M454.39,538.041h-6.02l-1.141,3.717a1.529,1.529,0,0,1-.342.631.961.961,0,0,1-.706.216H443.8c-.666,0-.9-.279-.705-.847l5.611-17.245a1.5,1.5,0,0,1,.351-.631,1,1,0,0,1,.693-.192h3.252a1,1,0,0,1,.694.192,1.5,1.5,0,0,1,.351.63l5.611,17.245c.2.568-.039.847-.706.847h-2.378a.962.962,0,0,1-.705-.216,1.529,1.529,0,0,1-.342-.63Zm-5.026-3.3h4.008l-1.993-6.509Z" transform="translate(-265.157 -522.183)"/>
      <path id="패스_28" data-name="패스 28" d="M455.345,539.557a.967.967,0,0,1-.2.657.865.865,0,0,1-.679.216h-2.138a.88.88,0,0,1-.682-.216.968.968,0,0,1-.192-.658V525.776a.958.958,0,0,1,.192-.655.878.878,0,0,1,.682-.219h2.138a.864.864,0,0,1,.679.219.959.959,0,0,1,.2.655v.387a4.447,4.447,0,0,1,3.378-1.384,3.039,3.039,0,0,1,.459.039c.18.024.333.054.462.084.339.1.534.21.582.339a1.574,1.574,0,0,1,.027.654l-.123.9a1.438,1.438,0,0,1-.243.655c-.111.147-.315.171-.6.072a3.229,3.229,0,0,0-1.2-.168,3.418,3.418,0,0,0-1.951.63,2.2,2.2,0,0,0-.793,1.9Z" transform="translate(-248.288 -519.997)"/>
      <path id="패스_29" data-name="패스 29" d="M462.493,531.673v7.965q0,1.021,1.09,1.021h.691q.275,0,.549-.027c.3-.033.5.021.6.159a1.262,1.262,0,0,1,.132.667v1.288a.751.751,0,0,1-.216.631,1.692,1.692,0,0,1-.8.243,6.47,6.47,0,0,1-.676.063h-.828a7.721,7.721,0,0,1-1.564-.159,3.762,3.762,0,0,1-1.36-.558,2.892,2.892,0,0,1-.949-1.069,3.6,3.6,0,0,1-.351-1.687v-8.548h-.973a.959.959,0,0,1-.654-.2.877.877,0,0,1-.219-.678v-1.072a.877.877,0,0,1,.219-.679.958.958,0,0,1,.654-.2h.973v-4.71a.972.972,0,0,1,.2-.657.879.879,0,0,1,.679-.216h1.943a.88.88,0,0,1,.679.216.958.958,0,0,1,.2.658v4.71h2.183a.966.966,0,0,1,.658.2.877.877,0,0,1,.216.679v1.072a.877.877,0,0,1-.216.679.966.966,0,0,1-.657.2Z" transform="translate(-237.279 -523.05)"/>
    </g>
    <g id="그룹_22" data-name="그룹 22" transform="translate(726 4281.318)">
      <g id="그룹_16" data-name="그룹 16" transform="translate(18.239 53.416)">
        <path id="패스_30" data-name="패스 30" d="M376.532,482.856A26.639,26.639,0,1,1,349.893,509.5a26.639,26.639,0,0,1,26.639-26.639" transform="translate(-349.893 -482.856)"/>
      </g>
      <g id="그룹_17" data-name="그룹 17" transform="translate(240.734 0)">
        <path id="패스_31" data-name="패스 31" d="M477.412,571.9a53.416,53.416,0,1,1,53.423-53.418A53.415,53.415,0,0,1,477.412,571.9Zm0-84.634a31.224,31.224,0,1,0,31.224,31.224,31.223,31.223,0,0,0-31.224-31.224Z" transform="translate(-424.002 -465.064)" fill="#ed6e1b"/>
      </g>
      <g id="그룹_18" data-name="그룹 18" transform="translate(361.168)">
        <path id="패스_32" data-name="패스 32" d="M517.535,571.9a53.416,53.416,0,1,1,53.414-53.415A53.417,53.417,0,0,1,517.535,571.9Zm0-84.634a31.224,31.224,0,1,0,31.224,31.224A31.223,31.223,0,0,0,517.535,487.263Z" transform="translate(-464.116 -465.064)" fill="#ed6e1b"/>
      </g>
      <g id="그룹_19" data-name="그룹 19" transform="translate(120.364)">
        <path id="패스_33" data-name="패스 33" d="M465.9,465.064H390.382a6.473,6.473,0,0,0-6.473,6.473v11.508a6.473,6.473,0,0,0,6.473,6.473h69.052a6.473,6.473,0,0,1,6.473,6.473v13.159a6.47,6.47,0,0,0,6.473,6.47h11.589a6.473,6.473,0,0,0,6.473-6.47V471.537a6.473,6.473,0,0,0-6.473-6.473Z" transform="translate(-383.909 -465.064)"/>
      </g>
      <g id="그룹_20" data-name="그룹 20">
        <path id="패스_34" data-name="패스 34" d="M425.813,465.064H350.291a6.473,6.473,0,0,0-6.473,6.473v11.508a6.473,6.473,0,0,0,6.473,6.473h69.052a6.47,6.47,0,0,1,6.47,6.473v13.159a6.473,6.473,0,0,0,6.473,6.47h11.589a6.47,6.47,0,0,0,6.473-6.47V471.537a6.473,6.473,0,0,0-6.473-6.473Z" transform="translate(-343.818 -465.064)"/>
      </g>
      <g id="그룹_21" data-name="그룹 21" transform="translate(120.364 56.13)">
        <path id="패스_35" data-name="패스 35" d="M408.441,534.318h75.525a6.476,6.476,0,0,0,6.473-6.473V516.338a6.473,6.473,0,0,0-6.473-6.473H414.914a6.473,6.473,0,0,1-6.473-6.473V490.233a6.473,6.473,0,0,0-6.473-6.473H390.382a6.473,6.473,0,0,0-6.473,6.473v37.612a6.473,6.473,0,0,0,6.473,6.473Z" transform="translate(-383.909 -483.76)"/>
      </g>
    </g>
  </g>
</svg>
