<svg xmlns="http://www.w3.org/2000/svg" width="170.207" height="72.871" viewBox="0 0 170.207 72.871">
  <g id="그룹_23" data-name="그룹 23" transform="translate(-343.818 -465.064)">
    <g id="그룹_14" data-name="그룹 14" transform="translate(389.771 512.776)">
      <path id="패스_16" data-name="패스 16" d="M385.912,509.251a.524.524,0,0,1,.109-.358.481.481,0,0,1,.372-.12h9.39a.481.481,0,0,1,.372.12.524.524,0,0,1,.109.358v3.1a.524.524,0,0,1-.109.358.481.481,0,0,1-.372.119h-1.3a.48.48,0,0,1-.372-.119.524.524,0,0,1-.109-.358v-2.033h-7.614a.482.482,0,0,1-.372-.12.525.525,0,0,1-.109-.358Zm.478,5.678a.527.527,0,0,1-.358-.109.479.479,0,0,1-.12-.372v-.585a.478.478,0,0,1,.12-.372.522.522,0,0,1,.358-.109h2.91v-1.411a.522.522,0,0,1,.109-.358.482.482,0,0,1,.372-.12h1.288a.482.482,0,0,1,.372.12.522.522,0,0,1,.109.358v1.409h4.239a.527.527,0,0,1,.359.109.482.482,0,0,1,.119.372v.585a.484.484,0,0,1-.119.372.532.532,0,0,1-.359.109Zm9.872,3a2.343,2.343,0,0,1-.186,1.01,1.419,1.419,0,0,1-.525.6,2.174,2.174,0,0,1-.8.292,5.843,5.843,0,0,1-1,.081h-5.339a5.718,5.718,0,0,1-1-.081,2.172,2.172,0,0,1-.791-.292,1.419,1.419,0,0,1-.525-.6,2.821,2.821,0,0,1,0-2.012,1.4,1.4,0,0,1,.525-.6,2.17,2.17,0,0,1,.791-.292,5.724,5.724,0,0,1,1-.08h5.34a5.824,5.824,0,0,1,1,.08,2.173,2.173,0,0,1,.8.293,1.4,1.4,0,0,1,.525.6,2.355,2.355,0,0,1,.185,1Zm-8.092,0a.4.4,0,0,0,.127.353.671.671,0,0,0,.379.087h4.8a.7.7,0,0,0,.392-.087.553.553,0,0,0,0-.7.7.7,0,0,0-.392-.086h-4.8a.673.673,0,0,0-.379.086.4.4,0,0,0-.127.347Z" transform="translate(-385.904 -508.76)" fill="#fff"/>
      <path id="패스_17" data-name="패스 17" d="M406.561,513.384a.312.312,0,0,1,.278-.359,6.722,6.722,0,0,0,1.35-.311,4.454,4.454,0,0,0,1.109-.559,2.7,2.7,0,0,0,.757-.8,1.965,1.965,0,0,0,.28-1.044h-3.294a.535.535,0,0,1-.359-.109.488.488,0,0,1-.119-.372v-.585a.483.483,0,0,1,.119-.371.528.528,0,0,1,.359-.109h5.075a.481.481,0,0,1,.372.12.524.524,0,0,1,.109.358v.532a4.289,4.289,0,0,1-.478,2.093,4.35,4.35,0,0,1-1.275,1.448,6.122,6.122,0,0,1-1.814.891,10.723,10.723,0,0,1-2.092.418.5.5,0,0,1-.286-.021c-.058-.031-.086-.109-.086-.233Zm10.018,6.045a.526.526,0,0,1-.109.359.478.478,0,0,1-.372.12h-9.057a.477.477,0,0,1-.372-.12.524.524,0,0,1-.109-.359v-3.149a.527.527,0,0,1,.109-.358.482.482,0,0,1,.372-.119h1.3a.48.48,0,0,1,.371.119.527.527,0,0,1,.109.358v2.088h7.28a.482.482,0,0,1,.372.119.525.525,0,0,1,.109.358Zm-2.178-3.441a.481.481,0,0,1-.372-.119.528.528,0,0,1-.109-.359v-6.259a.524.524,0,0,1,.109-.358.48.48,0,0,1,.372-.12h1.3a.482.482,0,0,1,.372.12.524.524,0,0,1,.109.358v2.233h.625a.517.517,0,0,1,.358.109.47.47,0,0,1,.12.37v.586a.475.475,0,0,1-.12.371.522.522,0,0,1-.358.109h-.625v2.485a.529.529,0,0,1-.109.359.482.482,0,0,1-.372.119Z" transform="translate(-384.006 -508.76)" fill="#fff"/>
      <path id="패스_18" data-name="패스 18" d="M436.061,516.773v2.656a.52.52,0,0,1-.109.359.474.474,0,0,1-.371.12h-1.288a.476.476,0,0,1-.372-.12.52.52,0,0,1-.109-.359v-2.656h-2.538v2.656a.525.525,0,0,1-.109.359.476.476,0,0,1-.372.12H429.5a.476.476,0,0,1-.372-.12.525.525,0,0,1-.109-.359v-2.656h-1.049a.534.534,0,0,1-.359-.109.486.486,0,0,1-.119-.372v-.585a.484.484,0,0,1,.119-.371.528.528,0,0,1,.359-.109h9.137a.525.525,0,0,1,.358.109.48.48,0,0,1,.119.371v.585a.481.481,0,0,1-.119.372.53.53,0,0,1-.358.109Zm-6.126-2.6a2.484,2.484,0,0,1-1.056-.207,2.035,2.035,0,0,1-.738-.564,2.368,2.368,0,0,1-.437-.85,3.943,3.943,0,0,1-.139-1.078,3.874,3.874,0,0,1,.139-1.061,2.425,2.425,0,0,1,.437-.858,2,2,0,0,1,.745-.571,2.537,2.537,0,0,1,1.062-.206h5.2a2.542,2.542,0,0,1,1.063.206,2,2,0,0,1,.744.571,2.391,2.391,0,0,1,.437.858,3.874,3.874,0,0,1,.14,1.061,3.946,3.946,0,0,1-.14,1.078,2.333,2.333,0,0,1-.437.849,2.016,2.016,0,0,1-.738.565,2.484,2.484,0,0,1-1.055.206Zm4.368-1.541a1.022,1.022,0,0,0,.792-.312,1.207,1.207,0,0,0,.286-.845,1.158,1.158,0,0,0-.3-.856,1.05,1.05,0,0,0-.777-.3h-3.52a1.049,1.049,0,0,0-.777.3,1.158,1.158,0,0,0-.3.856,1.2,1.2,0,0,0,.286.845,1.019,1.019,0,0,0,.791.312Z" transform="translate(-382.082 -508.759)" fill="#fff"/>
      <path id="패스_19" data-name="패스 19" d="M454.208,512.414a2,2,0,0,1-.252,1.037,2.055,2.055,0,0,1-.685.7,3.027,3.027,0,0,1-1,.393,6.132,6.132,0,0,1-2.4,0,3.035,3.035,0,0,1-1-.393,2.135,2.135,0,0,1-.691-.7,1.965,1.965,0,0,1-.259-1.037v-1.394a1.959,1.959,0,0,1,.259-1.036,2.132,2.132,0,0,1,.691-.7,3.01,3.01,0,0,1,1-.392,6.077,6.077,0,0,1,2.4,0,3,3,0,0,1,1,.392,2.051,2.051,0,0,1,.685.7,2,2,0,0,1,.252,1.036Zm4.252,7.015a.531.531,0,0,1-.109.359.477.477,0,0,1-.372.12h-9.457a.477.477,0,0,1-.372-.12.525.525,0,0,1-.109-.359V516.28a.528.528,0,0,1,.109-.358.481.481,0,0,1,.372-.119h1.3a.481.481,0,0,1,.372.119.527.527,0,0,1,.109.358v2.088h7.679a.481.481,0,0,1,.372.119.53.53,0,0,1,.109.358Zm-6.442-8.3a.78.78,0,0,0-.265-.655,1.267,1.267,0,0,0-1.382,0,.78.78,0,0,0-.265.655v1.182a.779.779,0,0,0,.265.655,1.261,1.261,0,0,0,1.382,0,.778.778,0,0,0,.265-.655Zm4.4,4.863a.481.481,0,0,1-.372-.119.529.529,0,0,1-.109-.359v-1.821h-.784a.528.528,0,0,1-.358-.109.483.483,0,0,1-.12-.372v-.582a.478.478,0,0,1,.12-.372.523.523,0,0,1,.358-.109h.784v-.851h-.784a.522.522,0,0,1-.358-.109.48.48,0,0,1-.12-.372v-.584a.477.477,0,0,1,.12-.371.517.517,0,0,1,.358-.109h.784v-.506a.524.524,0,0,1,.109-.358.481.481,0,0,1,.372-.12h1.3a.479.479,0,0,1,.371.12.524.524,0,0,1,.109.358V515.5a.528.528,0,0,1-.109.359.479.479,0,0,1-.371.119Z" transform="translate(-380.206 -508.761)" fill="#fff"/>
    </g>
    <g id="그룹_15" data-name="그룹 15" transform="translate(387.458 528.526)">
      <path id="패스_20" data-name="패스 20" d="M385.888,527.481c-.253-.1-.5-.207-.741-.321a3.06,3.06,0,0,1-.645-.41,1.894,1.894,0,0,1-.454-.571,1.7,1.7,0,0,1-.173-.8,1.637,1.637,0,0,1,.15-.677,1.793,1.793,0,0,1,.447-.6,2.2,2.2,0,0,1,.742-.425,3.085,3.085,0,0,1,1.037-.159,3.564,3.564,0,0,1,.994.129,2.262,2.262,0,0,1,.764.375,1.623,1.623,0,0,1,.482.6,1.824,1.824,0,0,1,.154.8.41.41,0,0,1-.074.239.3.3,0,0,1-.244.08h-.83c-.218,0-.328-.109-.318-.319a.917.917,0,0,0-.209-.617.854.854,0,0,0-.7-.265,1.093,1.093,0,0,0-.724.218.738.738,0,0,0-.257.6.826.826,0,0,0,.151.5,1.561,1.561,0,0,0,.371.362,2.547,2.547,0,0,0,.482.264c.173.074.328.14.472.2q.477.211.844.415a2.975,2.975,0,0,1,.609.437,1.677,1.677,0,0,1,.371.522,1.6,1.6,0,0,1,.128.655,1.788,1.788,0,0,1-.645,1.4,2.23,2.23,0,0,1-.75.407,3.211,3.211,0,0,1-1,.144,3.911,3.911,0,0,1-1.157-.15,2.173,2.173,0,0,1-.786-.419,1.582,1.582,0,0,1-.45-.64,2.228,2.228,0,0,1-.142-.8.351.351,0,0,1,.071-.239.316.316,0,0,1,.247-.079h.857a.292.292,0,0,1,.239.079.473.473,0,0,1,.079.239.836.836,0,0,0,.071.282.772.772,0,0,0,.19.261.962.962,0,0,0,.328.193,1.355,1.355,0,0,0,.482.076.889.889,0,0,0,.376-.077.806.806,0,0,0,.441-.467.893.893,0,0,0,.058-.313.765.765,0,0,0-.1-.393.931.931,0,0,0-.274-.286,2.21,2.21,0,0,0-.419-.227Z" transform="translate(-383.785 -523.154)" fill="#fff"/>
      <path id="패스_21" data-name="패스 21" d="M391.374,525.142a.348.348,0,0,1,.07-.238.319.319,0,0,1,.248-.08h.764a.318.318,0,0,1,.247.08.348.348,0,0,1,.071.238v.176a1.688,1.688,0,0,1,.67-.409,2.522,2.522,0,0,1,.84-.145,2.619,2.619,0,0,1,.777.109,1.467,1.467,0,0,1,.6.362,1.724,1.724,0,0,1,.393.649,2.9,2.9,0,0,1,.141.963v1.625a2.881,2.881,0,0,1-.141.967,1.726,1.726,0,0,1-.393.645,1.466,1.466,0,0,1-.6.362,2.618,2.618,0,0,1-.777.109,3.332,3.332,0,0,1-.843-.1,1.481,1.481,0,0,1-.655-.361v2.032a.351.351,0,0,1-.071.238.328.328,0,0,1-.248.08h-.776a.328.328,0,0,1-.248-.08.351.351,0,0,1-.07-.238Zm1.413,3.32a.939.939,0,0,0,.27.742,1.229,1.229,0,0,0,1.457,0,.939.939,0,0,0,.27-.743v-1.783a.939.939,0,0,0-.27-.742,1.233,1.233,0,0,0-1.457,0,.939.939,0,0,0-.27.742Z" transform="translate(-383.088 -523.04)" fill="#fff"/>
      <path id="패스_22" data-name="패스 22" d="M398.719,528.877a1.648,1.648,0,0,1,.419-1.183,1.954,1.954,0,0,1,1.152-.557l1.59-.238v-.349a.993.993,0,0,0-.18-.6.679.679,0,0,0-.587-.247,1.278,1.278,0,0,0-.49.1.686.686,0,0,0-.376.367c-.047.094-.088.168-.123.225a.277.277,0,0,1-.23.093h-.688a.371.371,0,0,1-.261-.08.239.239,0,0,1-.049-.238,1.361,1.361,0,0,1,.265-.606,1.833,1.833,0,0,1,.5-.437,2.278,2.278,0,0,1,.663-.27,3.283,3.283,0,0,1,.773-.087,3,3,0,0,1,1,.149,1.746,1.746,0,0,1,.675.42,1.637,1.637,0,0,1,.384.655,2.746,2.746,0,0,1,.124.852v3.306a.352.352,0,0,1-.071.239.317.317,0,0,1-.247.079h-.751a.319.319,0,0,1-.248-.079.351.351,0,0,1-.07-.239v-.044a2.013,2.013,0,0,1-.685.322,3.265,3.265,0,0,1-.9.12,1.767,1.767,0,0,1-.667-.12,1.35,1.35,0,0,1-.5-.34,1.522,1.522,0,0,1-.313-.531,1.99,1.99,0,0,1-.11-.685Zm2.066.546a1.411,1.411,0,0,0,.561-.119,2.3,2.3,0,0,0,.534-.322v-1.149l-.989.142a.917.917,0,0,0-.379.118.873.873,0,0,0-.243.218.745.745,0,0,0-.128.265,1.156,1.156,0,0,0-.035.274.536.536,0,0,0,.176.411.72.72,0,0,0,.5.164Z" transform="translate(-382.413 -523.039)" fill="#fff"/>
      <path id="패스_23" data-name="패스 23" d="M410.505,528.551a.365.365,0,0,1,.26.081.248.248,0,0,1,.058.237,2.232,2.232,0,0,1-.226.673,1.636,1.636,0,0,1-.454.534,2.113,2.113,0,0,1-.715.348,4.138,4.138,0,0,1-2.129-.031,2.011,2.011,0,0,1-.764-.429,1.619,1.619,0,0,1-.424-.635,2.209,2.209,0,0,1-.133-.777v-1.792a2.4,2.4,0,0,1,.123-.778,1.564,1.564,0,0,1,.412-.636,1.98,1.98,0,0,1,.746-.429,4.2,4.2,0,0,1,2.151-.025,2.028,2.028,0,0,1,.706.353,1.52,1.52,0,0,1,.424.534,2.182,2.182,0,0,1,.19.663c.023.212-.083.319-.318.319h-.742a.277.277,0,0,1-.234-.08.578.578,0,0,1-.084-.239.835.835,0,0,0-.3-.578,1.136,1.136,0,0,0-.655-.164,1,1,0,0,0-.746.255.907.907,0,0,0-.252.663v1.9a.874.874,0,0,0,.274.663,1.084,1.084,0,0,0,.764.255,1.336,1.336,0,0,0,.635-.141.7.7,0,0,0,.354-.425,1.081,1.081,0,0,1,.088-.237c.029-.054.1-.081.218-.081Z" transform="translate(-381.746 -523.04)" fill="#fff"/>
      <path id="패스_24" data-name="패스 24" d="M413.312,526.75a2.114,2.114,0,0,1,.171-.887,1.652,1.652,0,0,1,.49-.623,2.081,2.081,0,0,1,.764-.363,4,4,0,0,1,.989-.109,2.464,2.464,0,0,1,1.824.569,2.209,2.209,0,0,1,.553,1.6v.777a.315.315,0,0,1-.08.247.348.348,0,0,1-.238.071h-3.057v.486a.865.865,0,0,0,.274.663,1.082,1.082,0,0,0,.764.255,1.88,1.88,0,0,0,.609-.087.577.577,0,0,0,.353-.3c.042-.1.075-.179.1-.235s.1-.083.218-.083h.764a.407.407,0,0,1,.27.079.238.238,0,0,1,.057.247,1.572,1.572,0,0,1-.218.561,1.63,1.63,0,0,1-.464.477,2.4,2.4,0,0,1-.72.328,3.538,3.538,0,0,1-.983.124,3.609,3.609,0,0,1-1.13-.155,2.027,2.027,0,0,1-.764-.429,1.642,1.642,0,0,1-.424-.635,2.235,2.235,0,0,1-.132-.777Zm3.4-.062a.958.958,0,0,0-.265-.764,1.049,1.049,0,0,0-.715-.229,1.064,1.064,0,0,0-.733.242.831.831,0,0,0-.274.655v.567h1.987Z" transform="translate(-381.072 -523.04)" fill="#fff"/>
      <path id="패스_25" data-name="패스 25" d="M427.967,530.669a3.084,3.084,0,0,1-2.006-.551,1.99,1.99,0,0,1-.662-1.62v-2.8a1.992,1.992,0,0,1,.662-1.621,3.914,3.914,0,0,1,4.011,0,1.992,1.992,0,0,1,.663,1.621v2.8a1.949,1.949,0,0,1-.693,1.62,3.106,3.106,0,0,1-1.974.551Zm0-1.2a1.223,1.223,0,0,0,.883-.283,1.081,1.081,0,0,0,.29-.812v-2.73a1.136,1.136,0,0,0-.269-.812,1.592,1.592,0,0,0-1.811,0,1.136,1.136,0,0,0-.269.812v2.73a1.068,1.068,0,0,0,.3.812,1.231,1.231,0,0,0,.876.284Z" transform="translate(-379.971 -523.154)" fill="#fff"/>
      <path id="패스_26" data-name="패스 26" d="M433.382,526.17a.347.347,0,0,1-.237-.071.315.315,0,0,1-.081-.247v-.39a.319.319,0,0,1,.081-.247.347.347,0,0,1,.237-.071h.355v-.7a1.31,1.31,0,0,1,.128-.615,1.036,1.036,0,0,1,.344-.388,1.376,1.376,0,0,1,.495-.2,2.824,2.824,0,0,1,.57-.057h.3a2.325,2.325,0,0,1,.247.023.632.632,0,0,1,.291.088.276.276,0,0,1,.08.229v.293a.462.462,0,0,1-.048.241c-.033.05-.109.07-.218.058-.066-.005-.132-.009-.2-.009h-.252q-.4,0-.4.371v.662h.795a.349.349,0,0,1,.238.071.319.319,0,0,1,.08.247v.39a.316.316,0,0,1-.08.247.349.349,0,0,1-.238.071h-.795V530.3a.346.346,0,0,1-.071.239.317.317,0,0,1-.248.079h-.705a.317.317,0,0,1-.248-.079.352.352,0,0,1-.07-.239v-4.124Z" transform="translate(-379.257 -523.185)" fill="#fff"/>
      <path id="패스_27" data-name="패스 27" d="M447.163,528.906h-2.189l-.415,1.352a.556.556,0,0,1-.124.229.35.35,0,0,1-.257.079h-.865c-.242,0-.328-.1-.257-.308l2.041-6.272a.545.545,0,0,1,.128-.229.362.362,0,0,1,.252-.07h1.183a.365.365,0,0,1,.252.07.546.546,0,0,1,.128.229l2.041,6.272c.071.206-.014.308-.257.308h-.865a.351.351,0,0,1-.257-.079.557.557,0,0,1-.124-.229Zm-1.828-1.2h1.458l-.725-2.367Z" transform="translate(-378.341 -523.139)" fill="#fff"/>
      <path id="패스_28" data-name="패스 28" d="M452.871,530.152a.352.352,0,0,1-.071.239.315.315,0,0,1-.247.079h-.777a.321.321,0,0,1-.248-.079.352.352,0,0,1-.07-.239v-5.012a.348.348,0,0,1,.07-.238.32.32,0,0,1,.248-.08h.777a.314.314,0,0,1,.247.08.349.349,0,0,1,.071.238v.141a1.618,1.618,0,0,1,1.228-.5,1.118,1.118,0,0,1,.167.014c.066.009.121.02.168.031.123.036.194.076.212.123a.573.573,0,0,1,.01.238l-.045.328a.523.523,0,0,1-.088.238c-.04.054-.115.062-.218.026a1.178,1.178,0,0,0-.437-.061,1.244,1.244,0,0,0-.71.229.8.8,0,0,0-.288.69Z" transform="translate(-377.566 -523.039)" fill="#fff"/>
      <path id="패스_29" data-name="패스 29" d="M458.97,526.315v2.9q0,.371.4.371h.251q.1,0,.2-.01c.109-.012.183.008.218.058a.459.459,0,0,1,.048.242v.468a.273.273,0,0,1-.079.229.615.615,0,0,1-.293.089,2.349,2.349,0,0,1-.246.023h-.3a2.8,2.8,0,0,1-.569-.058,1.37,1.37,0,0,1-.495-.2,1.052,1.052,0,0,1-.345-.389,1.31,1.31,0,0,1-.128-.614v-3.109h-.354a.349.349,0,0,1-.238-.071.319.319,0,0,1-.08-.247v-.39a.319.319,0,0,1,.08-.247.348.348,0,0,1,.238-.071h.354v-1.713a.353.353,0,0,1,.071-.239.32.32,0,0,1,.247-.079h.706a.32.32,0,0,1,.247.079.348.348,0,0,1,.072.239v1.713h.794a.351.351,0,0,1,.239.071.319.319,0,0,1,.079.247v.39a.319.319,0,0,1-.079.247.351.351,0,0,1-.239.071Z" transform="translate(-377.061 -523.179)" fill="#fff"/>
    </g>
    <g id="그룹_22" data-name="그룹 22" transform="translate(343.818 465.064)">
      <g id="그룹_16" data-name="그룹 16" transform="translate(6.633 19.427)">
        <path id="패스_30" data-name="패스 30" d="M359.581,482.856a9.688,9.688,0,1,1-9.688,9.688,9.688,9.688,0,0,1,9.688-9.688" transform="translate(-349.893 -482.856)" fill="#fff"/>
      </g>
      <g id="그룹_17" data-name="그룹 17" transform="translate(87.553 0)">
        <path id="패스_31" data-name="패스 31" d="M443.427,503.918a19.427,19.427,0,1,1,19.429-19.428,19.427,19.427,0,0,1-19.429,19.428Zm0-30.781a11.356,11.356,0,1,0,11.356,11.356,11.356,11.356,0,0,0-11.356-11.356Z" transform="translate(-424.002 -465.064)" fill="#ed6e1b"/>
      </g>
      <g id="그룹_18" data-name="그룹 18" transform="translate(131.353)">
        <path id="패스_32" data-name="패스 32" d="M483.544,503.918a19.427,19.427,0,1,1,19.426-19.427,19.427,19.427,0,0,1-19.426,19.427Zm0-30.781A11.356,11.356,0,1,0,494.9,484.493,11.356,11.356,0,0,0,483.544,473.138Z" transform="translate(-464.116 -465.064)" fill="#ed6e1b"/>
      </g>
      <g id="그룹_19" data-name="그룹 19" transform="translate(43.775)">
        <path id="패스_33" data-name="패스 33" d="M413.73,465.064H386.263a2.354,2.354,0,0,0-2.354,2.354V471.6a2.354,2.354,0,0,0,2.354,2.354h25.114a2.354,2.354,0,0,1,2.354,2.354V481.1a2.353,2.353,0,0,0,2.354,2.353H420.3a2.354,2.354,0,0,0,2.354-2.353V467.418a2.354,2.354,0,0,0-2.354-2.354Z" transform="translate(-383.909 -465.064)" fill="#fff"/>
      </g>
      <g id="그룹_20" data-name="그룹 20">
        <path id="패스_34" data-name="패스 34" d="M373.639,465.064H346.172a2.354,2.354,0,0,0-2.354,2.354V471.6a2.354,2.354,0,0,0,2.354,2.354h25.114a2.353,2.353,0,0,1,2.353,2.354V481.1a2.354,2.354,0,0,0,2.354,2.353h4.215a2.353,2.353,0,0,0,2.354-2.353V467.418a2.354,2.354,0,0,0-2.354-2.354Z" transform="translate(-343.818 -465.064)" fill="#fff"/>
      </g>
      <g id="그룹_21" data-name="그룹 21" transform="translate(43.775 20.414)">
        <path id="패스_35" data-name="패스 35" d="M392.831,502.148H420.3a2.355,2.355,0,0,0,2.354-2.354v-4.185a2.354,2.354,0,0,0-2.354-2.354H395.185a2.354,2.354,0,0,1-2.354-2.354v-4.786a2.354,2.354,0,0,0-2.354-2.354h-4.214a2.354,2.354,0,0,0-2.354,2.354v13.679a2.354,2.354,0,0,0,2.354,2.354Z" transform="translate(-383.909 -483.76)" fill="#fff"/>
      </g>
    </g>
  </g>
</svg>
