<svg xmlns="http://www.w3.org/2000/svg" width="170.252" height="72.89" viewBox="0 0 170.252 72.89">
  <g id="그룹_33" data-name="그룹 33" transform="translate(-343.818 -465.064)">
    <g id="그룹_24" data-name="그룹 24" transform="translate(389.784 512.789)">
      <path id="패스_36" data-name="패스 36" d="M385.912,509.251a.524.524,0,0,1,.109-.358.481.481,0,0,1,.372-.12h9.393a.482.482,0,0,1,.372.12.524.524,0,0,1,.109.358v3.1a.524.524,0,0,1-.109.358.482.482,0,0,1-.372.119h-1.3a.481.481,0,0,1-.372-.119.524.524,0,0,1-.109-.358v-2.034h-7.616a.482.482,0,0,1-.372-.12.525.525,0,0,1-.109-.358Zm.478,5.679a.527.527,0,0,1-.358-.109.479.479,0,0,1-.12-.372v-.585a.478.478,0,0,1,.12-.372.522.522,0,0,1,.358-.109H389.3V511.97a.522.522,0,0,1,.109-.358.481.481,0,0,1,.372-.12h1.289a.482.482,0,0,1,.372.12.522.522,0,0,1,.109.358v1.409h4.24a.527.527,0,0,1,.359.109.482.482,0,0,1,.119.372v.585a.484.484,0,0,1-.119.372.533.533,0,0,1-.359.109Zm9.874,3a2.344,2.344,0,0,1-.186,1.01,1.419,1.419,0,0,1-.525.6,2.174,2.174,0,0,1-.8.292,5.834,5.834,0,0,1-1,.081h-5.341a5.71,5.71,0,0,1-1-.081,2.17,2.17,0,0,1-.791-.292,1.42,1.42,0,0,1-.525-.6,2.821,2.821,0,0,1,0-2.013,1.4,1.4,0,0,1,.525-.6,2.172,2.172,0,0,1,.791-.293,5.734,5.734,0,0,1,1-.08h5.342a5.827,5.827,0,0,1,1,.08,2.176,2.176,0,0,1,.8.293,1.4,1.4,0,0,1,.525.6,2.355,2.355,0,0,1,.185,1Zm-8.094,0a.4.4,0,0,0,.127.353.672.672,0,0,0,.379.087h4.806a.7.7,0,0,0,.392-.087.553.553,0,0,0,0-.7.7.7,0,0,0-.392-.086h-4.806a.672.672,0,0,0-.379.086.4.4,0,0,0-.127.347Z" transform="translate(-385.904 -508.76)" fill="#fff"/>
      <path id="패스_37" data-name="패스 37" d="M406.561,513.385a.312.312,0,0,1,.279-.359,6.733,6.733,0,0,0,1.35-.311,4.455,4.455,0,0,0,1.11-.559,2.7,2.7,0,0,0,.757-.8,1.965,1.965,0,0,0,.28-1.044h-3.3a.534.534,0,0,1-.359-.109.488.488,0,0,1-.119-.372v-.585a.483.483,0,0,1,.119-.371.529.529,0,0,1,.359-.109h5.077a.481.481,0,0,1,.372.12.524.524,0,0,1,.109.358v.532a4.289,4.289,0,0,1-.478,2.094,4.348,4.348,0,0,1-1.276,1.448,6.122,6.122,0,0,1-1.814.891,10.724,10.724,0,0,1-2.093.418.5.5,0,0,1-.286-.021c-.058-.031-.086-.109-.086-.233Zm10.021,6.046a.525.525,0,0,1-.109.359.477.477,0,0,1-.372.12h-9.06a.477.477,0,0,1-.372-.12.525.525,0,0,1-.109-.359v-3.15a.528.528,0,0,1,.109-.358.482.482,0,0,1,.372-.119h1.3a.48.48,0,0,1,.371.119.528.528,0,0,1,.109.358v2.088h7.282a.482.482,0,0,1,.372.119.525.525,0,0,1,.109.358ZM414.4,515.99a.48.48,0,0,1-.372-.119.529.529,0,0,1-.109-.359v-6.26a.524.524,0,0,1,.109-.358.48.48,0,0,1,.372-.12h1.3a.482.482,0,0,1,.372.12.525.525,0,0,1,.109.358v2.233h.625a.517.517,0,0,1,.358.109.471.471,0,0,1,.12.37v.586a.475.475,0,0,1-.12.371.522.522,0,0,1-.358.109h-.625v2.486a.529.529,0,0,1-.109.359.482.482,0,0,1-.372.119Z" transform="translate(-384 -508.76)" fill="#fff"/>
      <path id="패스_38" data-name="패스 38" d="M436.064,516.775v2.657a.52.52,0,0,1-.109.359.474.474,0,0,1-.371.12h-1.289a.476.476,0,0,1-.372-.12.52.52,0,0,1-.109-.359v-2.657h-2.538v2.657a.525.525,0,0,1-.109.359.476.476,0,0,1-.372.12H429.5a.476.476,0,0,1-.372-.12.525.525,0,0,1-.109-.359v-2.657h-1.05a.534.534,0,0,1-.359-.109.486.486,0,0,1-.119-.372v-.585a.484.484,0,0,1,.119-.371.528.528,0,0,1,.359-.109h9.139a.525.525,0,0,1,.358.109.48.48,0,0,1,.119.372v.585a.481.481,0,0,1-.119.372.53.53,0,0,1-.358.109Zm-6.127-2.6a2.484,2.484,0,0,1-1.056-.206,2.036,2.036,0,0,1-.738-.565,2.369,2.369,0,0,1-.437-.85,3.946,3.946,0,0,1-.139-1.078,3.871,3.871,0,0,1,.139-1.062,2.427,2.427,0,0,1,.437-.858,2,2,0,0,1,.745-.571,2.538,2.538,0,0,1,1.063-.206h5.2a2.543,2.543,0,0,1,1.064.206,2,2,0,0,1,.744.571,2.391,2.391,0,0,1,.437.858,3.877,3.877,0,0,1,.14,1.062,3.947,3.947,0,0,1-.14,1.078,2.334,2.334,0,0,1-.437.85,2.017,2.017,0,0,1-.738.565,2.484,2.484,0,0,1-1.055.206Zm4.369-1.541a1.022,1.022,0,0,0,.792-.312,1.208,1.208,0,0,0,.286-.845,1.158,1.158,0,0,0-.3-.856,1.049,1.049,0,0,0-.778-.3h-3.521a1.049,1.049,0,0,0-.778.3,1.158,1.158,0,0,0-.3.856,1.2,1.2,0,0,0,.286.845,1.019,1.019,0,0,0,.791.312Z" transform="translate(-382.07 -508.759)" fill="#fff"/>
      <path id="패스_39" data-name="패스 39" d="M454.21,512.414a2,2,0,0,1-.252,1.038,2.057,2.057,0,0,1-.685.7,3.027,3.027,0,0,1-1,.393,6.133,6.133,0,0,1-2.4,0,3.035,3.035,0,0,1-1-.393,2.137,2.137,0,0,1-.691-.7,1.965,1.965,0,0,1-.259-1.038V511.02a1.959,1.959,0,0,1,.259-1.036,2.131,2.131,0,0,1,.691-.7,3.011,3.011,0,0,1,1-.392,6.08,6.08,0,0,1,2.4,0,3,3,0,0,1,1,.392,2.051,2.051,0,0,1,.685.7,2,2,0,0,1,.252,1.036Zm4.253,7.017a.531.531,0,0,1-.109.359.477.477,0,0,1-.372.12h-9.459a.477.477,0,0,1-.372-.12.525.525,0,0,1-.109-.359v-3.15a.528.528,0,0,1,.109-.358.482.482,0,0,1,.372-.119h1.3a.482.482,0,0,1,.372.119.528.528,0,0,1,.109.358v2.088h7.681a.482.482,0,0,1,.372.119.531.531,0,0,1,.109.358Zm-6.444-8.306a.78.78,0,0,0-.265-.655,1.267,1.267,0,0,0-1.383,0,.78.78,0,0,0-.265.655v1.183a.779.779,0,0,0,.265.655,1.261,1.261,0,0,0,1.383,0,.779.779,0,0,0,.266-.655Zm4.4,4.865a.481.481,0,0,1-.372-.119.529.529,0,0,1-.109-.359V513.69h-.784a.528.528,0,0,1-.358-.109.483.483,0,0,1-.12-.372v-.582a.478.478,0,0,1,.12-.372.522.522,0,0,1,.358-.109h.784v-.851h-.784a.522.522,0,0,1-.358-.109.481.481,0,0,1-.12-.373v-.584a.477.477,0,0,1,.12-.371.517.517,0,0,1,.358-.109h.784v-.506a.524.524,0,0,1,.109-.358.481.481,0,0,1,.372-.12h1.3a.479.479,0,0,1,.371.12.524.524,0,0,1,.109.358v6.26a.529.529,0,0,1-.109.359.48.48,0,0,1-.371.119Z" transform="translate(-380.188 -508.76)" fill="#fff"/>
    </g>
    <g id="그룹_25" data-name="그룹 25" transform="translate(387.47 528.543)">
      <path id="패스_40" data-name="패스 40" d="M385.889,527.482c-.253-.1-.5-.207-.742-.321a3.06,3.06,0,0,1-.646-.411,1.9,1.9,0,0,1-.454-.571,1.7,1.7,0,0,1-.173-.8,1.639,1.639,0,0,1,.15-.677,1.794,1.794,0,0,1,.447-.6,2.205,2.205,0,0,1,.743-.425,3.087,3.087,0,0,1,1.038-.16,3.562,3.562,0,0,1,.994.129,2.262,2.262,0,0,1,.765.375,1.623,1.623,0,0,1,.482.6,1.824,1.824,0,0,1,.154.8.41.41,0,0,1-.074.239.3.3,0,0,1-.244.08h-.83c-.218,0-.328-.109-.318-.319a.918.918,0,0,0-.209-.617.854.854,0,0,0-.7-.265,1.092,1.092,0,0,0-.724.218.738.738,0,0,0-.257.6.826.826,0,0,0,.151.5,1.56,1.56,0,0,0,.371.363,2.546,2.546,0,0,0,.482.264c.173.074.328.14.472.2q.477.211.844.415a2.977,2.977,0,0,1,.609.437,1.676,1.676,0,0,1,.371.522,1.6,1.6,0,0,1,.128.655,1.789,1.789,0,0,1-.645,1.4,2.23,2.23,0,0,1-.75.407,3.215,3.215,0,0,1-1,.144,3.913,3.913,0,0,1-1.158-.15,2.174,2.174,0,0,1-.786-.419,1.583,1.583,0,0,1-.45-.64,2.23,2.23,0,0,1-.142-.8.351.351,0,0,1,.071-.239.316.316,0,0,1,.247-.079h.857a.292.292,0,0,1,.239.079.473.473,0,0,1,.079.239.836.836,0,0,0,.071.282.773.773,0,0,0,.19.261.963.963,0,0,0,.328.193,1.357,1.357,0,0,0,.482.077.891.891,0,0,0,.376-.077.807.807,0,0,0,.441-.467.9.9,0,0,0,.058-.313.765.765,0,0,0-.1-.393.931.931,0,0,0-.274-.286,2.211,2.211,0,0,0-.419-.227Z" transform="translate(-383.785 -523.154)" fill="#fff"/>
      <path id="패스_41" data-name="패스 41" d="M391.374,525.142a.348.348,0,0,1,.07-.238.32.32,0,0,1,.248-.08h.764a.318.318,0,0,1,.247.08.349.349,0,0,1,.071.238v.176a1.689,1.689,0,0,1,.671-.41,2.521,2.521,0,0,1,.84-.145,2.62,2.62,0,0,1,.778.109,1.468,1.468,0,0,1,.605.363,1.726,1.726,0,0,1,.393.649,2.9,2.9,0,0,1,.141.963v1.625a2.883,2.883,0,0,1-.141.968,1.727,1.727,0,0,1-.393.645,1.466,1.466,0,0,1-.605.363,2.62,2.62,0,0,1-.778.109,3.331,3.331,0,0,1-.843-.1,1.482,1.482,0,0,1-.655-.361v2.033a.351.351,0,0,1-.071.238.328.328,0,0,1-.248.08h-.777a.328.328,0,0,1-.248-.08.351.351,0,0,1-.07-.238Zm1.413,3.321a.939.939,0,0,0,.27.743,1.229,1.229,0,0,0,1.457,0,.939.939,0,0,0,.27-.743V526.68a.939.939,0,0,0-.27-.743,1.233,1.233,0,0,0-1.457,0,.939.939,0,0,0-.27.743Z" transform="translate(-383.086 -523.039)" fill="#fff"/>
      <path id="패스_42" data-name="패스 42" d="M398.719,528.878a1.649,1.649,0,0,1,.419-1.183,1.954,1.954,0,0,1,1.152-.557l1.59-.238v-.349a.994.994,0,0,0-.18-.6.679.679,0,0,0-.588-.247,1.28,1.28,0,0,0-.49.1.686.686,0,0,0-.376.367c-.047.094-.088.168-.123.225a.278.278,0,0,1-.23.093h-.688a.371.371,0,0,1-.261-.08.239.239,0,0,1-.049-.238,1.361,1.361,0,0,1,.265-.606,1.834,1.834,0,0,1,.5-.437,2.275,2.275,0,0,1,.663-.27,3.285,3.285,0,0,1,.773-.087,3,3,0,0,1,1,.148,1.749,1.749,0,0,1,.675.42,1.639,1.639,0,0,1,.384.655,2.747,2.747,0,0,1,.124.852v3.307a.352.352,0,0,1-.071.239.317.317,0,0,1-.247.079h-.751a.319.319,0,0,1-.248-.079.351.351,0,0,1-.07-.239v-.044a2.014,2.014,0,0,1-.685.322,3.267,3.267,0,0,1-.9.12,1.767,1.767,0,0,1-.667-.12,1.352,1.352,0,0,1-.5-.34,1.521,1.521,0,0,1-.313-.531,1.99,1.99,0,0,1-.11-.685Zm2.066.546a1.409,1.409,0,0,0,.561-.119,2.3,2.3,0,0,0,.534-.322v-1.149l-.99.142a.918.918,0,0,0-.379.118.873.873,0,0,0-.243.218.744.744,0,0,0-.128.265,1.158,1.158,0,0,0-.035.274.536.536,0,0,0,.176.411.72.72,0,0,0,.5.164Z" transform="translate(-382.409 -523.039)" fill="#fff"/>
      <path id="패스_43" data-name="패스 43" d="M410.506,528.552a.365.365,0,0,1,.26.081.248.248,0,0,1,.058.237,2.233,2.233,0,0,1-.226.673,1.637,1.637,0,0,1-.454.534,2.115,2.115,0,0,1-.715.348,4.14,4.14,0,0,1-2.13-.031,2.011,2.011,0,0,1-.764-.429,1.619,1.619,0,0,1-.424-.636,2.209,2.209,0,0,1-.133-.778V526.76a2.4,2.4,0,0,1,.123-.778,1.564,1.564,0,0,1,.412-.637,1.978,1.978,0,0,1,.746-.429,3.6,3.6,0,0,1,1.122-.153,3.638,3.638,0,0,1,1.03.128,2.033,2.033,0,0,1,.707.353,1.52,1.52,0,0,1,.424.534,2.183,2.183,0,0,1,.19.663c.023.212-.083.319-.318.319h-.743a.277.277,0,0,1-.234-.08.579.579,0,0,1-.084-.239.835.835,0,0,0-.3-.578,1.137,1.137,0,0,0-.655-.164,1,1,0,0,0-.746.255.907.907,0,0,0-.252.663v1.9a.874.874,0,0,0,.274.663,1.083,1.083,0,0,0,.765.256,1.337,1.337,0,0,0,.636-.141.7.7,0,0,0,.354-.425,1.087,1.087,0,0,1,.089-.237c.029-.053.1-.081.218-.081Z" transform="translate(-381.739 -523.04)" fill="#fff"/>
      <path id="패스_44" data-name="패스 44" d="M413.312,526.75a2.115,2.115,0,0,1,.171-.887,1.653,1.653,0,0,1,.49-.624,2.082,2.082,0,0,1,.764-.363,4,4,0,0,1,.99-.109,2.464,2.464,0,0,1,1.824.569,2.21,2.21,0,0,1,.553,1.6v.778a.315.315,0,0,1-.08.247.348.348,0,0,1-.238.071h-3.058v.486a.865.865,0,0,0,.274.663,1.082,1.082,0,0,0,.764.255,1.879,1.879,0,0,0,.609-.087.577.577,0,0,0,.353-.3c.042-.1.075-.179.1-.235s.1-.083.218-.083h.765a.407.407,0,0,1,.27.079.238.238,0,0,1,.057.247,1.574,1.574,0,0,1-.219.561,1.63,1.63,0,0,1-.464.477,2.4,2.4,0,0,1-.72.328,3.538,3.538,0,0,1-.983.125,3.611,3.611,0,0,1-1.13-.155,2.028,2.028,0,0,1-.764-.429,1.644,1.644,0,0,1-.424-.636,2.236,2.236,0,0,1-.132-.778Zm3.4-.062a.958.958,0,0,0-.265-.765,1.049,1.049,0,0,0-.715-.229,1.065,1.065,0,0,0-.733.242.832.832,0,0,0-.274.655v.567h1.988Z" transform="translate(-381.064 -523.04)" fill="#fff"/>
      <path id="패스_45" data-name="패스 45" d="M427.968,530.671a3.084,3.084,0,0,1-2.006-.552,1.991,1.991,0,0,1-.662-1.621v-2.8a1.992,1.992,0,0,1,.662-1.622,3.915,3.915,0,0,1,4.012,0,1.992,1.992,0,0,1,.663,1.622v2.8a1.949,1.949,0,0,1-.694,1.621,3.106,3.106,0,0,1-1.975.552Zm0-1.2a1.223,1.223,0,0,0,.884-.283,1.081,1.081,0,0,0,.29-.813v-2.73a1.136,1.136,0,0,0-.269-.813,1.592,1.592,0,0,0-1.812,0,1.136,1.136,0,0,0-.269.813v2.73a1.068,1.068,0,0,0,.3.813,1.232,1.232,0,0,0,.876.284Z" transform="translate(-379.959 -523.154)" fill="#fff"/>
      <path id="패스_46" data-name="패스 46" d="M433.382,526.171a.347.347,0,0,1-.237-.071.316.316,0,0,1-.081-.247v-.39a.319.319,0,0,1,.081-.247.347.347,0,0,1,.237-.071h.355v-.7a1.31,1.31,0,0,1,.128-.615,1.038,1.038,0,0,1,.344-.388,1.378,1.378,0,0,1,.495-.2,2.816,2.816,0,0,1,.57-.057h.3a2.342,2.342,0,0,1,.247.023.631.631,0,0,1,.292.088.276.276,0,0,1,.08.229v.293a.463.463,0,0,1-.048.241c-.033.05-.109.07-.218.058-.066-.005-.132-.009-.2-.009h-.252q-.4,0-.4.371v.662h.8a.348.348,0,0,1,.238.071.319.319,0,0,1,.08.247v.39a.316.316,0,0,1-.08.247.349.349,0,0,1-.238.071h-.8V530.3a.346.346,0,0,1-.071.239.316.316,0,0,1-.248.079h-.706a.317.317,0,0,1-.248-.079.351.351,0,0,1-.07-.239v-4.125Z" transform="translate(-379.243 -523.185)" fill="#fff"/>
      <path id="패스_47" data-name="패스 47" d="M447.164,528.908h-2.19l-.415,1.352a.556.556,0,0,1-.124.229.35.35,0,0,1-.257.079h-.865c-.242,0-.328-.1-.257-.308l2.041-6.274a.546.546,0,0,1,.128-.229.362.362,0,0,1,.252-.07h1.183a.365.365,0,0,1,.252.07.547.547,0,0,1,.128.229l2.041,6.274c.071.206-.014.308-.257.308h-.865a.35.35,0,0,1-.257-.079.556.556,0,0,1-.125-.229Zm-1.828-1.2h1.458l-.725-2.368Z" transform="translate(-378.324 -523.139)" fill="#fff"/>
      <path id="패스_48" data-name="패스 48" d="M452.871,530.154a.351.351,0,0,1-.071.239.315.315,0,0,1-.247.079h-.778a.321.321,0,0,1-.248-.079.352.352,0,0,1-.07-.239v-5.013a.348.348,0,0,1,.07-.238.32.32,0,0,1,.248-.08h.778a.314.314,0,0,1,.247.08.348.348,0,0,1,.071.238v.141a1.618,1.618,0,0,1,1.229-.5,1.1,1.1,0,0,1,.167.014c.066.009.121.02.168.031.123.036.194.076.212.123a.573.573,0,0,1,.01.238l-.045.328a.523.523,0,0,1-.089.238c-.04.054-.115.062-.218.026a1.174,1.174,0,0,0-.437-.061,1.244,1.244,0,0,0-.71.229.8.8,0,0,0-.288.69Z" transform="translate(-377.547 -523.038)" fill="#fff"/>
      <path id="패스_49" data-name="패스 49" d="M458.97,526.316v2.9q0,.371.4.371h.251q.1,0,.2-.01c.109-.012.183.008.218.058a.459.459,0,0,1,.048.242v.469a.273.273,0,0,1-.079.229.616.616,0,0,1-.293.089,2.369,2.369,0,0,1-.246.023h-.3a2.806,2.806,0,0,1-.569-.058,1.37,1.37,0,0,1-.495-.2,1.054,1.054,0,0,1-.345-.389,1.31,1.31,0,0,1-.128-.614v-3.109h-.354a.348.348,0,0,1-.238-.071.319.319,0,0,1-.08-.247v-.39a.319.319,0,0,1,.08-.247.348.348,0,0,1,.238-.071h.354v-1.714a.354.354,0,0,1,.071-.239.32.32,0,0,1,.247-.079h.707a.32.32,0,0,1,.247.079.348.348,0,0,1,.072.239v1.714h.794a.351.351,0,0,1,.239.071.319.319,0,0,1,.079.247v.39a.319.319,0,0,1-.079.247.351.351,0,0,1-.239.071Z" transform="translate(-377.04 -523.179)" fill="#fff"/>
    </g>
    <g id="그룹_32" data-name="그룹 32" transform="translate(343.818 465.064)">
      <g id="그룹_26" data-name="그룹 26" transform="translate(6.635 19.432)">
        <path id="패스_50" data-name="패스 50" d="M359.584,482.856a9.691,9.691,0,1,1-9.691,9.691,9.691,9.691,0,0,1,9.691-9.691" transform="translate(-349.893 -482.856)"/>
      </g>
      <g id="그룹_27" data-name="그룹 27" transform="translate(87.576 0)">
        <path id="패스_51" data-name="패스 51" d="M443.432,503.928A19.432,19.432,0,1,1,462.866,484.5a19.432,19.432,0,0,1-19.434,19.433Zm0-30.789A11.359,11.359,0,1,0,454.791,484.5a11.359,11.359,0,0,0-11.359-11.359Z" transform="translate(-424.002 -465.064)" fill="#fff"/>
      </g>
      <g id="그룹_28" data-name="그룹 28" transform="translate(131.388)">
        <path id="패스_52" data-name="패스 52" d="M483.549,503.928A19.432,19.432,0,1,1,502.98,484.5a19.432,19.432,0,0,1-19.431,19.432Zm0-30.789A11.359,11.359,0,1,0,494.908,484.5,11.359,11.359,0,0,0,483.549,473.14Z" transform="translate(-464.116 -465.064)" fill="#fff"/>
      </g>
      <g id="그룹_29" data-name="그룹 29" transform="translate(43.787)">
        <path id="패스_53" data-name="패스 53" d="M413.738,465.064H386.264a2.355,2.355,0,0,0-2.355,2.355v4.186a2.355,2.355,0,0,0,2.355,2.355h25.12a2.355,2.355,0,0,1,2.355,2.355V481.1a2.354,2.354,0,0,0,2.355,2.354h4.216a2.355,2.355,0,0,0,2.355-2.354V467.419a2.355,2.355,0,0,0-2.355-2.355Z" transform="translate(-383.909 -465.064)"/>
      </g>
      <g id="그룹_30" data-name="그룹 30">
        <path id="패스_54" data-name="패스 54" d="M373.647,465.064H346.173a2.355,2.355,0,0,0-2.355,2.355v4.186a2.355,2.355,0,0,0,2.355,2.355h25.12a2.354,2.354,0,0,1,2.354,2.355V481.1A2.355,2.355,0,0,0,376,483.455h4.216a2.354,2.354,0,0,0,2.355-2.354V467.419a2.355,2.355,0,0,0-2.355-2.355Z" transform="translate(-343.818 -465.064)"/>
      </g>
      <g id="그룹_31" data-name="그룹 31" transform="translate(43.787 20.42)">
        <path id="패스_55" data-name="패스 55" d="M392.833,502.152h27.475a2.356,2.356,0,0,0,2.355-2.355v-4.186a2.355,2.355,0,0,0-2.355-2.355h-25.12a2.355,2.355,0,0,1-2.355-2.355v-4.787a2.355,2.355,0,0,0-2.355-2.355h-4.215a2.355,2.355,0,0,0-2.355,2.355V499.8a2.355,2.355,0,0,0,2.355,2.355Z" transform="translate(-383.909 -483.76)"/>
      </g>
    </g>
  </g>
</svg>
