<svg xmlns="http://www.w3.org/2000/svg" width="588.917" height="40" viewBox="0 0 588.917 40">
  <g id="그룹_20864" data-name="그룹 20864" transform="translate(-665.541 -4858.98)">
    <text id="공_간_유_연" data-name="공 간 유 연" transform="translate(665.541 4886.98)" font-size="35" font-family="'MBC \31 961GulimM', 'MBC \31 961Gulim'"><tspan x="0" y="0">공 간 유 연</tspan></text>
    <g id="그룹_463" data-name="그룹 463" transform="translate(819.023 4638.805)">
      <path id="패스_507" data-name="패스 507" d="M86.869,273.039a5.88,5.88,0,0,0-2.134-.783,15.717,15.717,0,0,0-2.685-.213h-14.3a15.4,15.4,0,0,0-2.668.213,5.871,5.871,0,0,0-2.116.783,3.762,3.762,0,0,0-1.4,1.619,7.535,7.535,0,0,0,0,5.389,3.778,3.778,0,0,0,1.4,1.6,5.856,5.856,0,0,0,2.116.783,15.4,15.4,0,0,0,2.668.213h14.3a15.717,15.717,0,0,0,2.685-.213,5.865,5.865,0,0,0,2.134-.783,3.783,3.783,0,0,0,1.4-1.6,7.535,7.535,0,0,0,0-5.389A3.767,3.767,0,0,0,86.869,273.039Zm-4.482,5.246a1.886,1.886,0,0,1-1.049.231H68.462a1.807,1.807,0,0,1-1.014-.231,1.484,1.484,0,0,1,0-1.885,1.807,1.807,0,0,1,1.014-.231H81.338a1.886,1.886,0,0,1,1.049.231,1.482,1.482,0,0,1,0,1.885Z" transform="translate(0 -29.564)" fill="#161615"/>
      <path id="패스_508" data-name="패스 508" d="M87.491,246.838H76.145v-3.77a1.408,1.408,0,0,0-.285-.961,1.287,1.287,0,0,0-1-.32h-3.45a1.285,1.285,0,0,0-1,.32,1.406,1.406,0,0,0-.285.961v3.77H62.345a1.41,1.41,0,0,0-.961.285,1.286,1.286,0,0,0-.32,1v1.565a1.286,1.286,0,0,0,.32,1,1.408,1.408,0,0,0,.961.284H87.491a1.408,1.408,0,0,0,.961-.284,1.286,1.286,0,0,0,.32-1v-1.565a1.286,1.286,0,0,0-.32-1A1.41,1.41,0,0,0,87.491,246.838Z" transform="translate(0 -11.223)" fill="#80807f"/>
      <path id="패스_509" data-name="패스 509" d="M88.487,223.592a1.287,1.287,0,0,0-1-.32H62.345a1.285,1.285,0,0,0-1,.32,1.4,1.4,0,0,0-.285.96v1.565a1.405,1.405,0,0,0,.285.96,1.285,1.285,0,0,0,1,.32H82.725v5.442a1.408,1.408,0,0,0,.284.96,1.285,1.285,0,0,0,1,.32h3.486a1.287,1.287,0,0,0,1-.32,1.41,1.41,0,0,0,.285-.96v-8.287A1.409,1.409,0,0,0,88.487,223.592Z" fill="#161615"/>
      <path id="패스_510" data-name="패스 510" d="M166.7,238.9a1.334,1.334,0,0,0,.765.053,28.58,28.58,0,0,0,5.6-1.12,16.4,16.4,0,0,0,4.855-2.383,11.671,11.671,0,0,0,3.415-3.877,11.467,11.467,0,0,0,1.28-5.6v-1.423a1.409,1.409,0,0,0-.284-.96,1.287,1.287,0,0,0-1-.32H167.745a1.408,1.408,0,0,0-.961.285,1.286,1.286,0,0,0-.32,1v1.565a1.284,1.284,0,0,0,.32,1,1.406,1.406,0,0,0,.961.285h8.821a5.263,5.263,0,0,1-.747,2.792,7.211,7.211,0,0,1-2.027,2.134,11.818,11.818,0,0,1-2.97,1.494,18.025,18.025,0,0,1-3.61.836.836.836,0,0,0-.747.96v2.668Q166.464,238.78,166.7,238.9Z" transform="translate(-63.892)" fill="#161615"/>
      <path id="패스_511" data-name="패스 511" d="M225.179,230.812a1.41,1.41,0,0,0-.961-.284h-1.672v-5.976a1.409,1.409,0,0,0-.284-.96,1.287,1.287,0,0,0-1-.32H217.78a1.284,1.284,0,0,0-1,.32,1.4,1.4,0,0,0-.285.96v16.753a1.4,1.4,0,0,0,.285.96,1.284,1.284,0,0,0,1,.32h3.486a1.287,1.287,0,0,0,1-.32,1.409,1.409,0,0,0,.284-.96v-6.651h1.672a1.406,1.406,0,0,0,.961-.285,1.285,1.285,0,0,0,.32-1v-1.565A1.288,1.288,0,0,0,225.179,230.812Z" transform="translate(-94.223)" fill="#8c8b8b"/>
      <path id="패스_512" data-name="패스 512" d="M192,277.915H172.511V272.33a1.409,1.409,0,0,0-.284-.96,1.287,1.287,0,0,0-1-.32h-3.486a1.285,1.285,0,0,0-1,.32,1.405,1.405,0,0,0-.285.96v8.43a1.406,1.406,0,0,0,.285.961,1.287,1.287,0,0,0,1,.32H192a1.289,1.289,0,0,0,1-.32,1.41,1.41,0,0,0,.284-.961V279.2a1.41,1.41,0,0,0-.284-.961A1.287,1.287,0,0,0,192,277.915Z" transform="translate(-63.892 -28.962)" fill="#161615"/>
      <path id="패스_513" data-name="패스 513" d="M300.709,267.451a1.411,1.411,0,0,0-.961-.284H275.312a1.408,1.408,0,0,0-.96.284,1.287,1.287,0,0,0-.32,1v1.565a1.286,1.286,0,0,0,.32,1,1.406,1.406,0,0,0,.96.284h2.81v7.114a1.406,1.406,0,0,0,.285.961,1.287,1.287,0,0,0,1,.32h3.45a1.289,1.289,0,0,0,1-.32,1.412,1.412,0,0,0,.284-.961v-7.114h6.794v7.114a1.408,1.408,0,0,0,.284.961,1.288,1.288,0,0,0,1,.32h3.45a1.289,1.289,0,0,0,1-.32,1.41,1.41,0,0,0,.284-.961v-7.114h2.81a1.409,1.409,0,0,0,.961-.284,1.287,1.287,0,0,0,.32-1v-1.565A1.288,1.288,0,0,0,300.709,267.451Z" transform="translate(-129.098 -26.608)" fill="#8c8b8b"/>
      <path id="패스_514" data-name="패스 514" d="M276.013,235.65a5.451,5.451,0,0,0,1.974,1.511,6.677,6.677,0,0,0,2.828.551h13.978a6.682,6.682,0,0,0,2.828-.551,5.464,5.464,0,0,0,1.974-1.511,6.271,6.271,0,0,0,1.156-2.277,10.527,10.527,0,0,0,.373-2.881,10.4,10.4,0,0,0-.373-2.845,6.452,6.452,0,0,0-1.156-2.294,5.348,5.348,0,0,0-1.992-1.53,6.806,6.806,0,0,0-2.845-.551H280.85a6.807,6.807,0,0,0-2.845.551,5.338,5.338,0,0,0-1.992,1.53,6.439,6.439,0,0,0-1.156,2.294,10.393,10.393,0,0,0-.374,2.845,10.524,10.524,0,0,0,.374,2.881A6.259,6.259,0,0,0,276.013,235.65Zm5-7.452a2.814,2.814,0,0,1,2.081-.8h9.425a2.815,2.815,0,0,1,2.081.8,3.1,3.1,0,0,1,.8,2.294,3.218,3.218,0,0,1-.765,2.259,2.725,2.725,0,0,1-2.116.836h-9.425a2.724,2.724,0,0,1-2.116-.836,3.214,3.214,0,0,1-.765-2.259A3.1,3.1,0,0,1,281.01,228.2Z" transform="translate(-129.371)" fill="#161615"/>
      <g id="그룹_462" data-name="그룹 462" transform="translate(185.731 223.272)">
        <path id="패스_515" data-name="패스 515" d="M380.169,237.66a8.086,8.086,0,0,0,2.685,1.049,15.585,15.585,0,0,0,3.2.32,15.774,15.774,0,0,0,3.237-.32,8.093,8.093,0,0,0,2.685-1.049,5.518,5.518,0,0,0,1.832-1.867,5.348,5.348,0,0,0,.676-2.774v-3.735a5.35,5.35,0,0,0-.676-2.774,5.526,5.526,0,0,0-1.832-1.867,8.11,8.11,0,0,0-2.685-1.049,15.774,15.774,0,0,0-3.237-.32,15.585,15.585,0,0,0-3.2.32,8.1,8.1,0,0,0-2.685,1.049,5.683,5.683,0,0,0-1.849,1.867,5.239,5.239,0,0,0-.693,2.774v3.735a5.237,5.237,0,0,0,.693,2.774A5.675,5.675,0,0,0,380.169,237.66Zm3.326-8.092a2.088,2.088,0,0,1,.711-1.76,3.379,3.379,0,0,1,3.7,0,2.09,2.09,0,0,1,.711,1.76v3.165a2.089,2.089,0,0,1-.711,1.761,3.378,3.378,0,0,1-3.7,0,2.087,2.087,0,0,1-.711-1.761Z" transform="translate(-377.626 -223.272)" fill="#161615"/>
        <path id="패스_516" data-name="패스 516" d="M424.878,236.432h2.1v4.873a1.4,1.4,0,0,0,.284.96,1.285,1.285,0,0,0,1,.32h3.486a1.288,1.288,0,0,0,1-.32,1.409,1.409,0,0,0,.284-.96V224.552a1.409,1.409,0,0,0-.284-.96,1.288,1.288,0,0,0-1-.32h-3.486a1.285,1.285,0,0,0-1,.32,1.4,1.4,0,0,0-.284.96V225.9h-2.1a1.41,1.41,0,0,0-.961.284,1.287,1.287,0,0,0-.32,1v1.565a1.285,1.285,0,0,0,.32,1,1.408,1.408,0,0,0,.961.284h2.1v2.277h-2.1a1.41,1.41,0,0,0-.961.284,1.287,1.287,0,0,0-.32,1v1.565a1.285,1.285,0,0,0,.32,1A1.406,1.406,0,0,0,424.878,236.432Z" transform="translate(-405.493 -223.272)" fill="#8c8b8b"/>
        <path id="패스_517" data-name="패스 517" d="M406.129,278.235a1.287,1.287,0,0,0-1-.32H384.575V272.33a1.407,1.407,0,0,0-.285-.96,1.287,1.287,0,0,0-1-.32h-3.486a1.285,1.285,0,0,0-1,.32,1.407,1.407,0,0,0-.285.96v8.43a1.408,1.408,0,0,0,.285.961,1.287,1.287,0,0,0,1,.32h25.325a1.288,1.288,0,0,0,1-.32,1.408,1.408,0,0,0,.285-.961V279.2A1.408,1.408,0,0,0,406.129,278.235Z" transform="translate(-378.173 -252.234)" fill="#8c8b8b"/>
      </g>
    </g>
    <g id="그룹_464" data-name="그룹 464" transform="translate(1035.523 4640.699)">
      <path id="패스_518" data-name="패스 518" d="M88.449,259.673a6.225,6.225,0,0,0-2.265-.83,16.64,16.64,0,0,0-2.849-.226H68.16a16.306,16.306,0,0,0-2.831.226,6.215,6.215,0,0,0-2.246.83,3.988,3.988,0,0,0-1.491,1.717,8,8,0,0,0,0,5.718,4.007,4.007,0,0,0,1.491,1.7,6.216,6.216,0,0,0,2.246.83,16.305,16.305,0,0,0,2.831.227H83.334a16.64,16.64,0,0,0,2.849-.227,6.226,6.226,0,0,0,2.265-.83,4.012,4.012,0,0,0,1.491-1.7,8,8,0,0,0,0-5.718A3.994,3.994,0,0,0,88.449,259.673Zm-4.756,5.567a2,2,0,0,1-1.113.246H68.915a1.917,1.917,0,0,1-1.076-.246,1.574,1.574,0,0,1,0-2,1.917,1.917,0,0,1,1.076-.245H82.579a2,2,0,0,1,1.113.245,1.573,1.573,0,0,1,0,2Z" transform="translate(0 -20.573)" fill="#161615"/>
      <path id="패스_519" data-name="패스 519" d="M90.166,223.612a1.366,1.366,0,0,0-1.057-.34H62.423a1.363,1.363,0,0,0-1.057.34,1.491,1.491,0,0,0-.3,1.019v1.661a1.491,1.491,0,0,0,.3,1.019,1.363,1.363,0,0,0,1.057.34H84.052v5.775a1.494,1.494,0,0,0,.3,1.019,1.364,1.364,0,0,0,1.057.34h3.7a1.366,1.366,0,0,0,1.057-.34,1.5,1.5,0,0,0,.3-1.019v-8.795A1.5,1.5,0,0,0,90.166,223.612Z" transform="translate(0)" fill="#161615"/>
      <path id="패스_520" data-name="패스 520" d="M194.437,223.612a1.366,1.366,0,0,0-1.057-.34H166.694a1.365,1.365,0,0,0-1.057.34,1.493,1.493,0,0,0-.3,1.019v1.661a1.494,1.494,0,0,0,.3,1.019,1.365,1.365,0,0,0,1.057.34h21.629v5.775a1.492,1.492,0,0,0,.3,1.019,1.364,1.364,0,0,0,1.057.34h3.7a1.366,1.366,0,0,0,1.057-.34,1.5,1.5,0,0,0,.3-1.019v-8.795A1.5,1.5,0,0,0,194.437,223.612Z" transform="translate(-60.693)" fill="#161615"/>
      <path id="패스_521" data-name="패스 521" d="M193.566,264.907H172.881v-5.926a1.5,1.5,0,0,0-.3-1.019,1.366,1.366,0,0,0-1.057-.34h-3.7a1.364,1.364,0,0,0-1.057.34,1.492,1.492,0,0,0-.3,1.019v8.946a1.492,1.492,0,0,0,.3,1.019,1.366,1.366,0,0,0,1.057.339h25.743a1.367,1.367,0,0,0,1.057-.339,1.5,1.5,0,0,0,.3-1.019v-1.661a1.5,1.5,0,0,0-.3-1.019A1.367,1.367,0,0,0,193.566,264.907Z" transform="translate(-61.351 -19.994)" fill="#161615"/>
      <path id="패스_522" data-name="패스 522" d="M271.229,245.62a5.778,5.778,0,0,0,2.095,1.6,7.083,7.083,0,0,0,3,.585h14.834a7.088,7.088,0,0,0,3-.585,5.793,5.793,0,0,0,2.1-1.6,6.652,6.652,0,0,0,1.226-2.416,11.156,11.156,0,0,0,.4-3.058,11.018,11.018,0,0,0-.4-3.02,6.853,6.853,0,0,0-1.226-2.434,5.683,5.683,0,0,0-2.114-1.623,7.232,7.232,0,0,0-3.02-.585H276.363a7.231,7.231,0,0,0-3.02.585,5.67,5.67,0,0,0-2.113,1.623A6.846,6.846,0,0,0,270,237.127a11.032,11.032,0,0,0-.4,3.02,11.17,11.17,0,0,0,.4,3.058A6.646,6.646,0,0,0,271.229,245.62Zm5.3-7.908a2.987,2.987,0,0,1,2.208-.85h10a2.986,2.986,0,0,1,2.208.85,3.291,3.291,0,0,1,.849,2.434,3.414,3.414,0,0,1-.811,2.4,2.891,2.891,0,0,1-2.246.887h-10a2.889,2.889,0,0,1-2.246-.887,3.41,3.41,0,0,1-.812-2.4A3.3,3.3,0,0,1,276.532,237.712Z" transform="translate(-121.387 -5.362)" fill="#161615"/>
      <path id="패스_523" data-name="패스 523" d="M372.79,245.62a5.783,5.783,0,0,0,2.095,1.6,7.088,7.088,0,0,0,3,.585H392.72a7.094,7.094,0,0,0,3-.585,5.8,5.8,0,0,0,2.095-1.6,6.645,6.645,0,0,0,1.227-2.416,11.155,11.155,0,0,0,.4-3.058,11.011,11.011,0,0,0-.4-3.02,6.844,6.844,0,0,0-1.227-2.435,5.678,5.678,0,0,0-2.114-1.623,7.225,7.225,0,0,0-3.02-.585H377.924a7.225,7.225,0,0,0-3.02.585,5.667,5.667,0,0,0-2.113,1.623,6.839,6.839,0,0,0-1.227,2.435,11.028,11.028,0,0,0-.4,3.02,11.171,11.171,0,0,0,.4,3.058A6.641,6.641,0,0,0,372.79,245.62Zm5.3-7.908a2.986,2.986,0,0,1,2.208-.849h10a2.986,2.986,0,0,1,2.208.849,3.293,3.293,0,0,1,.849,2.434,3.414,3.414,0,0,1-.811,2.4,2.891,2.891,0,0,1-2.246.887h-10a2.889,2.889,0,0,1-2.246-.887,3.41,3.41,0,0,1-.812-2.4A3.293,3.293,0,0,1,378.093,237.713Z" transform="translate(-180.503 -5.363)" fill="#161615"/>
    </g>
    <path id="다각형_12" data-name="다각형 12" d="M11,0,22,20H0Z" transform="translate(858.541 4865.98) rotate(90)" fill="#ed6e1b"/>
    <path id="다각형_13" data-name="다각형 13" d="M11,0,22,20H0Z" transform="translate(1074.541 4865.98) rotate(90)" fill="#ed6e1b"/>
  </g>
</svg>
