<svg id="그룹_22" data-name="그룹 22" xmlns="http://www.w3.org/2000/svg" width="247.254" height="56.442" viewBox="0 0 247.254 56.442">
  <g id="그룹_16" data-name="그룹 16" transform="translate(9.636 28.221)">
    <path id="패스_30" data-name="패스 30" d="M363.967,482.856a14.074,14.074,0,1,1-14.074,14.074,14.074,14.074,0,0,1,14.074-14.074" transform="translate(-349.893 -482.856)"/>
  </g>
  <g id="그룹_17" data-name="그룹 17" transform="translate(127.185 0)">
    <path id="패스_31" data-name="패스 31" d="M452.22,521.506a28.221,28.221,0,1,1,28.224-28.222A28.22,28.22,0,0,1,452.22,521.506Zm0-44.714a16.5,16.5,0,1,0,16.5,16.5A16.5,16.5,0,0,0,452.22,476.792Z" transform="translate(-424.002 -465.064)" fill="#ed6e1b"/>
  </g>
  <g id="그룹_18" data-name="그룹 18" transform="translate(190.812)">
    <path id="패스_32" data-name="패스 32" d="M492.339,521.506a28.221,28.221,0,1,1,28.22-28.221A28.221,28.221,0,0,1,492.339,521.506Zm0-44.714a16.5,16.5,0,1,0,16.5,16.5A16.5,16.5,0,0,0,492.339,476.792Z" transform="translate(-464.116 -465.064)" fill="#ed6e1b"/>
  </g>
  <g id="그룹_19" data-name="그룹 19" transform="translate(63.591)">
    <path id="패스_33" data-name="패스 33" d="M427.229,465.064h-39.9a3.42,3.42,0,0,0-3.42,3.42v6.08a3.42,3.42,0,0,0,3.42,3.42h36.482a3.42,3.42,0,0,1,3.42,3.42v6.952a3.418,3.418,0,0,0,3.42,3.418h6.123a3.42,3.42,0,0,0,3.42-3.418V468.484a3.42,3.42,0,0,0-3.42-3.42Z" transform="translate(-383.909 -465.064)"/>
  </g>
  <g id="그룹_20" data-name="그룹 20">
    <path id="패스_34" data-name="패스 34" d="M387.138,465.064h-39.9a3.42,3.42,0,0,0-3.42,3.42v6.08a3.42,3.42,0,0,0,3.42,3.42H383.72a3.418,3.418,0,0,1,3.418,3.42v6.952a3.42,3.42,0,0,0,3.42,3.418h6.123a3.418,3.418,0,0,0,3.42-3.418V468.484a3.42,3.42,0,0,0-3.42-3.42Z" transform="translate(-343.818 -465.064)"/>
  </g>
  <g id="그룹_21" data-name="그룹 21" transform="translate(63.591 29.655)">
    <path id="패스_35" data-name="패스 35" d="M396.87,510.471h39.9a3.422,3.422,0,0,0,3.42-3.42v-6.08a3.42,3.42,0,0,0-3.42-3.42H400.289a3.42,3.42,0,0,1-3.42-3.42V487.18a3.42,3.42,0,0,0-3.42-3.42h-6.121a3.42,3.42,0,0,0-3.42,3.42v19.871a3.42,3.42,0,0,0,3.42,3.42Z" transform="translate(-383.909 -483.76)"/>
  </g>
</svg>
