<svg xmlns="http://www.w3.org/2000/svg" width="660.307" height="627.28" viewBox="0 0 660.307 627.28">
  <g id="그룹_461" data-name="그룹 461" transform="translate(0)">
    <path id="패스_468" data-name="패스 468" d="M128.517,745.362A201.837,201.837,0,0,1,122.3,474.517c23.384-27,26.183-66.353,6.335-96.047A166.778,166.778,0,1,1,430.967,253.391a36,36,0,0,0,35.791,29.05q.8-.011,1.6-.016c97.766-.513,177.83,79.031,177.926,176.8a178.355,178.355,0,0,1-1.972,26.69,77.022,77.022,0,0,0,24.443,68.934A194.609,194.609,0,0,1,728.05,745.362Z" transform="translate(-73.162 -119.173)" fill="#f1a400"/>
    <g id="그룹_455" data-name="그룹 455" transform="translate(117.881 100.568)">
      <g id="그룹_444" data-name="그룹 444" transform="translate(307.641 301.726)">
        <path id="패스_469" data-name="패스 469" d="M272.026,569.174h-151.3l-4.089-219.91,93.4-4.031-2.29,171.936a27.1,27.1,0,0,0,15.587,24.9l49.556,23.249A2.026,2.026,0,0,1,272.026,569.174Z" transform="translate(-116.637 -345.234)" fill="#ffc1a4"/>
        <path id="패스_470" data-name="패스 470" d="M184.09,469.266a23.009,23.009,0,0,1,20.195-32.009l-.109,8.174a27.1,27.1,0,0,0,15.587,24.9l49.556,23.248a2.026,2.026,0,0,1-.86,3.86H117.16l-.523-28.169Z" transform="translate(-113.071 -273.495)" fill="#538b20"/>
        <path id="패스_471" data-name="패스 471" d="M263.584,467.5l5.33,2.5a2.026,2.026,0,0,1-.859,3.86h-151.3l-.117-6.36Z" transform="translate(-112.665 -249.919)" fill="#fff" stroke="#222221" stroke-miterlimit="10" stroke-width="0.25"/>
        <path id="패스_472" data-name="패스 472" d="M244.7,443.09H154.357l-1.745-93.825,93.4-4.03Z" transform="translate(-152.612 -345.234)" fill="#222221"/>
      </g>
      <path id="패스_473" data-name="패스 473" d="M220.933,472.456l-68.32-78.6L268.885,325.2a54.073,54.073,0,1,1,58.6,90.7h0l-.005,0q-1.423.811-2.9,1.538Z" transform="translate(46.271 -67.194)" fill="#222221"/>
      <path id="패스_474" data-name="패스 474" d="M258.829,273.454a15.356,15.356,0,0,0,.95-21.318,45.926,45.926,0,1,1,79.554-22.6L385.763,254.8l.005.007a32.841,32.841,0,0,1,46.018,24.257,10.23,10.23,0,0,0,11.882,8.257,32.993,32.993,0,0,1,22.994,60.506l.005.005-.05.025a32.8,32.8,0,0,1-5.871,2.9L344.3,408.286a37.271,37.271,0,0,1-5.4,2.666l-.057.028,0,0a36.81,36.81,0,0,1-12.658,2.566A37.254,37.254,0,0,1,288.03,376.3q0-1.463.11-2.9A27.24,27.24,0,0,0,271.9,346.6c-13.05-5.826-26.551-17.306-27.553-39.672C243.758,293.74,249.91,281.831,258.829,273.454Z" transform="translate(-244.31 -175.684)" fill="#24579f"/>
      <g id="그룹_445" data-name="그룹 445" transform="translate(80.973 154.909)">
        <path id="패스_475" data-name="패스 475" d="M170.735,465.135l10.8-202.4,115.788,12.722,10.53,153.12L437.606,536.957a53.841,53.841,0,0,1-65.437,85.518h0L216.447,544A83.335,83.335,0,0,1,170.735,465.135Z" transform="translate(-170.616 -262.733)" fill="#ed6e1b"/>
        <path id="패스_476" data-name="패스 476" d="M307.855,368.863,437.606,477.245a53.841,53.841,0,0,1-65.437,85.518L216.447,484.285a83.335,83.335,0,0,1-45.712-78.862l3.527-66.094H305.825Z" transform="translate(-170.616 -203.02)" fill="#222221"/>
      </g>
      <g id="그룹_446" data-name="그룹 446" transform="translate(4.582 405.262)">
        <path id="패스_477" data-name="패스 477" d="M509.945,523.819H202.8l61.794-120.4,50.563,27.443a74.849,74.849,0,0,0,45.6,8.409l127.7-17.025Z" transform="translate(-202.797 -403.414)" fill="#ffc1a4"/>
        <path id="패스_478" data-name="패스 478" d="M383.58,403.414l33.6,18.239L382.69,492.51A23,23,0,0,1,406.7,523.819H321.786Z" transform="translate(-321.786 -403.414)" fill="#538b20"/>
        <path id="패스_479" data-name="패스 479" d="M405.943,407.727l-60.35,116.093H336.2L398,403.414Z" transform="translate(-336.204 -403.414)" fill="#fff" stroke="#222221" stroke-miterlimit="10" stroke-width="0.25"/>
        <path id="패스_480" data-name="패스 480" d="M202.8,428.317l107.434-14.324,21.491,101.579H202.8Z" transform="translate(-24.574 -395.167)" fill="#222221"/>
      </g>
      <g id="그룹_449" data-name="그룹 449" transform="translate(67.786 4.075)">
        <path id="패스_481" data-name="패스 481" d="M328.93,177.975a46.8,46.8,0,0,1,46.79,46.095,7.015,7.015,0,0,1,3.5-.893c3.136,0,5.679,1.881,5.679,4.2s-2.543,4.2-5.679,4.2a6.873,6.873,0,0,1-3.831-1.105,46.8,46.8,0,1,1-46.454-52.5Z" transform="translate(-282.132 -177.975)" fill="#ffc1a4"/>
        <path id="패스_482" data-name="패스 482" d="M326.523,221.441l18.238,38.724L295.478,269.7V224.952Z" transform="translate(-265.749 -144.09)" fill="#ffc1a4"/>
        <path id="패스_483" data-name="패스 483" d="M345.759,177.975a46.582,46.582,0,0,1,26.016,7.892,29.113,29.113,0,0,1-14.123,16.345,17.874,17.874,0,0,0-9.517,15.408c0,.114-.007.228-.011.343A31.189,31.189,0,0,1,303.453,244.8a46.817,46.817,0,0,1,42.306-66.827Z" transform="translate(-298.961 -177.975)" fill="#24579f"/>
        <g id="그룹_447" data-name="그룹 447" transform="translate(73.78 37.373)">
          <path id="패스_484" data-name="패스 484" d="M295.675,204.3c.715,2.539,2.374,4.294,3.7,3.92s1.824-2.737,1.107-5.276-2.374-4.294-3.7-3.92S294.958,201.763,295.675,204.3Z" transform="translate(-295.346 -198.976)" fill="#222221"/>
          <line id="선_42" data-name="선 42" x1="10.125" y1="7.069" transform="translate(7.807 15.546)" fill="#fff" stroke="#222221" stroke-miterlimit="10" stroke-width="0.25"/>
        </g>
        <g id="그룹_448" data-name="그룹 448" transform="translate(26.607 46.32)">
          <path id="패스_485" data-name="패스 485" d="M322.991,204.024a11.168,11.168,0,0,1,9.679,15.322,6.509,6.509,0,1,1-8.494,9.665,8.505,8.505,0,0,0-4.662-2.888,11,11,0,0,1-8.375-10.95A11.17,11.17,0,0,1,322.991,204.024Z" transform="translate(-311.139 -204.004)" fill="#ffc1a4"/>
          <path id="패스_486" data-name="패스 486" d="M335.667,225.3a6.509,6.509,0,0,1-11.482,3.709,8.5,8.5,0,0,0-4.662-2.888,11,11,0,0,1-8.375-10.95,11.17,11.17,0,0,1,22.273-1.226" transform="translate(-311.148 -204.004)" fill="#ffc1a4" stroke="#222221" stroke-miterlimit="10" stroke-width="0.25"/>
        </g>
      </g>
      <g id="그룹_450" data-name="그룹 450" transform="translate(153.613 291.217)">
        <path id="패스_487" data-name="패스 487" d="M223.463,530.614l120.96-7.846c26.341-1.708,32.027-37.98,7.469-47.664L231.035,427.436a58.071,58.071,0,0,1-36.764-54.021V339.329" transform="translate(-194.271 -339.329)" fill="none" stroke="#fff" stroke-miterlimit="10" stroke-width="0.25"/>
        <path id="패스_488" data-name="패스 488" d="M299.635,339.329v14.687A38.859,38.859,0,0,1,278.882,388.4h0" transform="translate(-276.917 -339.329)" fill="none" stroke="#fff" stroke-miterlimit="10" stroke-width="0.25"/>
      </g>
      <g id="그룹_451" data-name="그룹 451" transform="translate(91.895 105.382)">
        <path id="패스_489" data-name="패스 489" d="M209.171,279.005A46.482,46.482,0,0,1,281.055,242.5h0l116.116,74.632h0a41.151,41.151,0,0,1-39.647,72.1v0l-.2-.109q-.4-.211-.785-.427L235.213,323.163q-1.7-.827-3.3-1.785l-.03-.016,0,0A46.469,46.469,0,0,1,209.171,279.005Z" transform="translate(-209.109 -234.902)" fill="#ffc1a4"/>
        <path id="패스_490" data-name="패스 490" d="M347.208,364.64l-76.787-41.477q-1.7-.827-3.3-1.785l-.03-.016,0,0A46.48,46.48,0,1,1,316.263,242.5l74,47.565Z" transform="translate(-244.317 -234.902)" fill="#ed6e1b"/>
      </g>
      <path id="패스_491" data-name="패스 491" d="M277.614,443.656v-87.4a11.732,11.732,0,0,0-17.869-10l-77.209,47.383" transform="translate(70.173 -44.075)" fill="none" stroke="#fff" stroke-miterlimit="10" stroke-width="0.25"/>
      <g id="그룹_454" data-name="그룹 454" transform="translate(228.13)">
        <g id="그룹_452" data-name="그룹 452" transform="translate(93.269 41.1)">
          <rect id="사각형_549" data-name="사각형 549" width="52.251" height="121.35" transform="translate(0.001 24.895)" fill="#f0cf31"/>
          <path id="패스_492" data-name="패스 492" d="M185.623,205.46h17.945a8.21,8.21,0,0,1,5.73,2.331l10.955,10.677H168l10.288-10.026A10.509,10.509,0,0,1,185.623,205.46Z" transform="translate(-168.002 -193.573)" fill="#fffffc"/>
          <rect id="사각형_550" data-name="사각형 550" width="8.206" height="11.887" transform="translate(21.763)" fill="#f0cf31"/>
          <rect id="사각형_551" data-name="사각형 551" width="52.251" height="88.761" transform="translate(0.001 41.19)" fill="#fff"/>
        </g>
        <path id="패스_493" data-name="패스 493" d="M168.554,282.756s31.326-59.8,31.612-60.458h0l12.93-29.541a13.176,13.176,0,1,1,24.142,10.565L225.127,231a39.7,39.7,0,0,1,13.443,1.244c16.838,4.481,27.712,18.557,24.284,31.443a19.557,19.557,0,0,1-5.851,9.45,22.336,22.336,0,0,1-.589,3.128,23.667,23.667,0,0,1-11.658,14.557,14.114,14.114,0,0,1-4.113,7.289c-5.478,5.1-14.315,4.924-21.716.189a19.307,19.307,0,0,1-32.815-8.058Z" transform="translate(-118.947 -168.532)" fill="#ffc1a4"/>
        <g id="그룹_453" data-name="그룹 453" transform="translate(74.085 75.694)">
          <path id="패스_494" data-name="패스 494" d="M190.708,256.587a19.311,19.311,0,0,0,31.029-15.349" transform="translate(-190.708 -200.276)" fill="none" stroke="#222221" stroke-miterlimit="10" stroke-width="0.25"/>
          <path id="패스_495" data-name="패스 495" d="M182,264.811a23.652,23.652,0,0,0,11.658-14.557c3.607-13.566-6.042-27.909-21.552-32.034" transform="translate(-130.274 -218.22)" fill="none" stroke="#222221" stroke-miterlimit="10" stroke-width="0.25"/>
          <path id="패스_496" data-name="패스 496" d="M178.841,263.876c7.4,4.735,16.24,4.913,21.718-.192,6.8-6.337,5.846-18.417-2.134-26.98a23.981,23.981,0,0,0-14.448-7.688" transform="translate(-152.948 -209.804)" fill="none" stroke="#222221" stroke-miterlimit="10" stroke-width="0.25"/>
        </g>
        <path id="패스_497" data-name="패스 497" d="M291.274,259.309l-45.125-19.439-49.608,82.221L267.5,359.579Z" transform="translate(-196.542 -125.647)" fill="#ffc1a4"/>
        <path id="패스_498" data-name="패스 498" d="M95.624,222.73l73.091-24.848a24.534,24.534,0,0,1,48.817-.276,24.533,24.533,0,1,1-3.691,47.171c.028.482.046.966.046,1.454a24.535,24.535,0,0,1-49.07,0c0-.52.021-1.034.053-1.546Z" transform="translate(27.615 -175.685)" fill="#f8cc6f"/>
      </g>
    </g>
    <g id="그룹_457" data-name="그룹 457" transform="translate(339.023 479.989)">
      <rect id="사각형_552" data-name="사각형 552" width="52.251" height="121.351" transform="translate(0 24.895)" fill="#8accf2"/>
      <path id="패스_502" data-name="패스 502" d="M241.959,395.573H259.9a8.206,8.206,0,0,1,5.73,2.331l10.957,10.677H224.339l10.286-10.026A10.512,10.512,0,0,1,241.959,395.573Z" transform="translate(-224.339 -383.686)" fill="#fffffc"/>
      <rect id="사각형_553" data-name="사각형 553" width="8.206" height="11.887" transform="translate(21.762)" fill="#8accf2"/>
      <rect id="사각형_554" data-name="사각형 554" width="52.251" height="88.761" transform="translate(0 41.19)" fill="#fff"/>
    </g>
    <g id="그룹_460" data-name="그룹 460" transform="translate(72.914 429.927)">
      <g id="그룹_458" data-name="그룹 458" transform="translate(366.422)">
        <path id="패스_503" data-name="패스 503" d="M113.874,557.115H222.521a60.541,60.541,0,0,0,3.121-45.541,23.322,23.322,0,0,1,7.12-25.338A50.842,50.842,0,0,0,249.1,433.068a14.962,14.962,0,0,1,5.529-16.075,31.185,31.185,0,0,0,12.409-26.08c-.58-16.221-13.817-28.865-30-30.077-12.251-.918-28.82,6.663-32.082,23.457a16.614,16.614,0,0,1-13.322,13.078c-24.921,4.556-42.2,25.788-42.2,49.8a50.948,50.948,0,0,0,1.466,12.167,14.334,14.334,0,0,1-8.012,16.385A60.477,60.477,0,0,0,109.1,542.8,59.474,59.474,0,0,0,113.874,557.115Z" transform="translate(-107.893 -360.762)" fill="none" stroke="#fff" stroke-miterlimit="10" stroke-width="2"/>
        <path id="패스_504" data-name="패스 504" d="M151.353,458.429a24.642,24.642,0,0,1-5.209,15.189,15.5,15.5,0,0,0-2.605,14.406,32.488,32.488,0,0,1-6.794,32.189H88.461a32.574,32.574,0,0,1,7.353-49.77,12.621,12.621,0,0,0,6.036-11.254c-.009-.253-.012-.505-.012-.76a24.743,24.743,0,0,1,12.405-21.456,12.308,12.308,0,0,0,6.182-10.948c-.014-.443-.009-.892.011-1.344a17.418,17.418,0,1,1,31.016,11.694,12.994,12.994,0,0,0-1.856,12.888A24.633,24.633,0,0,1,151.353,458.429Z" transform="translate(53.486 -323.86)" fill="none" stroke="#fff" stroke-miterlimit="10" stroke-width="2"/>
      </g>
      <g id="그룹_459" data-name="그룹 459" transform="translate(0 42.279)">
        <path id="패스_505" data-name="패스 505" d="M453.253,538.594H368a47.505,47.505,0,0,1-2.451-35.734,18.3,18.3,0,0,0-5.586-19.883,39.9,39.9,0,0,1-12.82-41.72,11.738,11.738,0,0,0-4.339-12.612,24.471,24.471,0,0,1-9.736-20.465c.454-12.728,10.841-22.65,23.542-23.6,9.612-.719,22.615,5.228,25.172,18.406a13.038,13.038,0,0,0,10.455,10.261A39.681,39.681,0,0,1,424.2,461.869a11.248,11.248,0,0,0,6.287,12.856A47.457,47.457,0,0,1,457,527.359,46.67,46.67,0,0,1,453.253,538.594Z" transform="translate(-333.055 -384.52)" fill="none" stroke="#fff" stroke-miterlimit="10" stroke-width="2"/>
        <path id="패스_506" data-name="패스 506" d="M352.076,460a21.578,21.578,0,0,1-4.561,13.3,13.574,13.574,0,0,0-2.281,12.614,28.452,28.452,0,0,1-5.949,28.189H297a28.528,28.528,0,0,1,6.44-43.582,11.054,11.054,0,0,0,5.285-9.855c-.007-.221-.011-.443-.011-.666a21.667,21.667,0,0,1,10.863-18.789,10.771,10.771,0,0,0,5.413-9.587q-.016-.582.011-1.178a15.253,15.253,0,1,1,27.16,10.241,11.379,11.379,0,0,0-1.625,11.284A21.563,21.563,0,0,1,352.076,460Z" transform="translate(-153.315 -360.034)" fill="none" stroke="#fff" stroke-miterlimit="10" stroke-width="2"/>
      </g>
    </g>
  </g>
</svg>
