<svg xmlns="http://www.w3.org/2000/svg" width="691.612" height="345.746" viewBox="0 0 691.612 345.746">
  <g id="그룹_720" data-name="그룹 720" transform="translate(-3608.318 -1257.086)">
    <g id="그룹_713" data-name="그룹 713" transform="translate(3781.316 1257.086)">
      <g id="그룹_712" data-name="그룹 712">
        <path id="패스_828" data-name="패스 828" d="M3826.288,1388.867a86.3,86.3,0,0,0-86.3,86.3h86.3Z" transform="translate(-3739.987 -1215.722)" fill="#f7a42f"/>
        <path id="패스_829" data-name="패스 829" d="M3739.987,1287.413v25.647a30.327,30.327,0,0,0,30.327,30.327h25.647a30.326,30.326,0,0,1,30.327,30.325v25.648a30.326,30.326,0,0,0,30.327,30.326h25.647a30.326,30.326,0,0,0,30.327-30.326V1287.413a30.327,30.327,0,0,0-30.327-30.327H3770.314A30.327,30.327,0,0,0,3739.987,1287.413Z" transform="translate(-3739.987 -1257.086)" fill="#999"/>
      </g>
      <path id="패스_830" data-name="패스 830" d="M3891.971,1454.55a86.3,86.3,0,0,1-86.3,86.3v-86.3Z" transform="translate(-3719.37 -1195.105)" fill="#f7a42f"/>
      <path id="패스_831" data-name="패스 831" d="M3739.987,1454.55a86.3,86.3,0,0,0,86.3,86.3v-86.3Z" transform="translate(-3739.987 -1195.105)" fill="#ee752e"/>
    </g>
    <g id="그룹_715" data-name="그룹 715" transform="translate(3608.318 1257.086)">
      <path id="패스_832" data-name="패스 832" d="M3608.318,1287.413v25.647a30.327,30.327,0,0,0,30.327,30.327h25.647a30.326,30.326,0,0,1,30.327,30.325v25.648a30.326,30.326,0,0,0,30.327,30.326h25.647a30.326,30.326,0,0,0,30.327-30.326V1287.413a30.327,30.327,0,0,0-30.327-30.327H3638.645A30.327,30.327,0,0,0,3608.318,1287.413Z" transform="translate(-3608.318 -1257.086)" fill="#7d7d7d"/>
      <g id="그룹_714" data-name="그룹 714" transform="translate(0.741 171.954)">
        <path id="패스_833" data-name="패스 833" d="M3611.539,1472.187h166.113c.277-.988.543-1.98.787-2.982H3610.752C3611,1470.207,3611.262,1471.2,3611.539,1472.187Z" transform="translate(-3608.295 -1362.46)" fill="#ee752e"/>
        <path id="패스_834" data-name="패스 834" d="M3617.7,1421.509h149.442q-.875-1.511-1.807-2.982H3619.5Q3618.57,1420,3617.7,1421.509Z" transform="translate(-3606.116 -1378.367)" fill="#ee752e"/>
        <path id="패스_835" data-name="패스 835" d="M3615.868,1424.888h154.243c-.5-1.005-1.021-2-1.563-2.984H3617.432C3616.888,1422.885,3616.373,1423.883,3615.868,1424.888Z" transform="translate(-3606.689 -1377.307)" fill="#ee752e"/>
        <path id="패스_836" data-name="패스 836" d="M3622.172,1414.751H3759.85c-.765-1.01-1.545-2.008-2.354-2.982H3624.525C3623.717,1412.744,3622.937,1413.741,3622.172,1414.751Z" transform="translate(-3604.711 -1380.488)" fill="#ee752e"/>
        <path id="패스_837" data-name="패스 837" d="M3609.938,1465.43h170.11q.252-1.484.452-2.983H3609.486Q3609.687,1463.947,3609.938,1465.43Z" transform="translate(-3608.693 -1364.581)" fill="#ee752e"/>
        <path id="패스_838" data-name="패스 838" d="M3610.643,1468.808H3779q.333-1.482.615-2.983H3610.028Q3610.309,1467.327,3610.643,1468.808Z" transform="translate(-3608.522 -1363.521)" fill="#ee752e"/>
        <path id="패스_839" data-name="패스 839" d="M3615.45,1482.323h156.188c.465-.985.921-1.977,1.348-2.983H3614.1C3614.529,1480.345,3614.985,1481.337,3615.45,1482.323Z" transform="translate(-3607.244 -1359.279)" fill="#ee752e"/>
        <path id="패스_840" data-name="패스 840" d="M3617.2,1485.7h151.715c.534-.982,1.036-1.98,1.531-2.984H3615.665C3616.161,1483.722,3616.663,1484.72,3617.2,1485.7Z" transform="translate(-3606.753 -1358.219)" fill="#ee752e"/>
        <path id="패스_841" data-name="패스 841" d="M3619.781,1418.13h143.961c-.67-1.01-1.365-2-2.075-2.983H3621.856C3621.146,1416.127,3620.451,1417.119,3619.781,1418.13Z" transform="translate(-3605.461 -1379.428)" fill="#ee752e"/>
        <path id="패스_842" data-name="패스 842" d="M3613.933,1478.943h160.053c.4-.987.793-1.977,1.156-2.982H3612.777C3613.14,1476.966,3613.534,1477.957,3613.933,1478.943Z" transform="translate(-3607.659 -1360.339)" fill="#ee752e"/>
        <path id="패스_843" data-name="패스 843" d="M3612.633,1475.566h163.351c.338-.988.665-1.98.967-2.983H3611.666C3611.968,1473.585,3612.3,1474.577,3612.633,1475.566Z" transform="translate(-3608.009 -1361.4)" fill="#ee752e"/>
        <path id="패스_844" data-name="패스 844" d="M3611.779,1435.023h164.988c-.309-1-.651-1.993-1-2.983h-163C3612.429,1433.029,3612.088,1434.019,3611.779,1435.023Z" transform="translate(-3607.973 -1374.125)" fill="#ee752e"/>
        <path id="패스_845" data-name="패스 845" d="M3610.844,1438.4H3778.29c-.25-1-.53-1.993-.815-2.983H3611.659C3611.374,1436.408,3611.094,1437.4,3610.844,1438.4Z" transform="translate(-3608.267 -1373.065)" fill="#ee752e"/>
        <path id="패스_846" data-name="패스 846" d="M3608.944,1451.915h172.438q-.056-1.5-.164-2.983H3609.108C3609.037,1449.923,3608.98,1450.916,3608.944,1451.915Z" transform="translate(-3608.862 -1368.823)" fill="#ee752e"/>
        <path id="패스_847" data-name="패스 847" d="M3609.537,1445.157h170.879c-.139-1-.3-1.993-.478-2.982H3610.015C3609.841,1443.164,3609.676,1444.158,3609.537,1445.157Z" transform="translate(-3608.677 -1370.944)" fill="#ee752e"/>
        <path id="패스_848" data-name="패스 848" d="M3610.1,1441.779h169.4c-.193-1-.414-1.993-.643-2.981H3610.742C3610.513,1439.786,3610.292,1440.777,3610.1,1441.779Z" transform="translate(-3608.5 -1372.004)" fill="#ee752e"/>
        <path id="패스_849" data-name="패스 849" d="M3609.415,1462.051H3780.8c.116-.99.21-1.984.292-2.983H3609.123C3609.2,1460.067,3609.3,1461.061,3609.415,1462.051Z" transform="translate(-3608.806 -1365.642)" fill="#ee752e"/>
        <path id="패스_850" data-name="패스 850" d="M3612.918,1431.645h162c-.37-1.005-.77-2-1.175-2.982H3614.094C3613.688,1429.649,3613.289,1430.639,3612.918,1431.645Z" transform="translate(-3607.615 -1375.186)" fill="#ee752e"/>
        <path id="패스_851" data-name="패스 851" d="M3614.281,1428.266h158.414c-.434-1-.878-2-1.348-2.983H3615.629C3615.158,1426.266,3614.715,1427.263,3614.281,1428.266Z" transform="translate(-3607.188 -1376.246)" fill="#ee752e"/>
        <path id="패스_852" data-name="패스 852" d="M3609.072,1458.672h172.189c.063-.99.106-1.985.137-2.983H3608.934C3608.964,1456.687,3609.008,1457.682,3609.072,1458.672Z" transform="translate(-3608.866 -1366.702)" fill="#ee752e"/>
        <path id="패스_853" data-name="패스 853" d="M3608.882,1454.064c0,.413.025.818.032,1.23h172.538c.007-.411.032-.817.032-1.23,0-.589-.033-1.168-.044-1.753H3608.927C3608.915,1452.9,3608.882,1453.475,3608.882,1454.064Z" transform="translate(-3608.882 -1367.763)" fill="#ee752e"/>
        <path id="패스_854" data-name="패스 854" d="M3669.5,1519.487h22.1a85.887,85.887,0,0,0,14.018-2.983h-50.139A85.892,85.892,0,0,0,3669.5,1519.487Z" transform="translate(-3594.254 -1347.614)" fill="#ee752e"/>
        <path id="패스_855" data-name="패스 855" d="M3635.949,1401.237h101.475q-2.14-1.559-4.38-2.982H3640.33Q3638.093,1399.683,3635.949,1401.237Z" transform="translate(-3600.386 -1384.73)" fill="#ee752e"/>
        <path id="패스_856" data-name="패스 856" d="M3639.691,1509.35h94.341c1.462-.956,2.9-1.942,4.3-2.982H3635.391C3636.789,1507.409,3638.229,1508.394,3639.691,1509.35Z" transform="translate(-3600.561 -1350.795)" fill="#ee752e"/>
        <path id="패스_857" data-name="패스 857" d="M3609.153,1448.537h171.889c-.088-1-.2-1.993-.319-2.983h-171.25C3609.35,1446.543,3609.241,1447.537,3609.153,1448.537Z" transform="translate(-3608.797 -1369.884)" fill="#ee752e"/>
        <path id="패스_858" data-name="패스 858" d="M3645.735,1512.729h79.113c1.816-.938,3.6-1.921,5.342-2.983h-89.8C3642.131,1510.808,3643.919,1511.79,3645.735,1512.729Z" transform="translate(-3598.991 -1349.735)" fill="#ee752e"/>
        <path id="패스_859" data-name="패스 859" d="M3653.844,1516.108h58.94c2.437-.886,4.819-1.889,7.148-2.983H3646.7C3649.025,1514.218,3651.407,1515.222,3653.844,1516.108Z" transform="translate(-3597.013 -1348.674)" fill="#ee752e"/>
        <path id="패스_860" data-name="패스 860" d="M3680.116,1387.961a86.318,86.318,0,0,0-23.232,3.189h46.463A86.319,86.319,0,0,0,3680.116,1387.961Z" transform="translate(-3593.815 -1387.961)" fill="#ee752e"/>
        <path id="패스_861" data-name="패스 861" d="M3641.071,1397.859h88.016q-2.673-1.589-5.471-2.983h-77.074Q3643.747,1396.271,3641.071,1397.859Z" transform="translate(-3598.779 -1385.791)" fill="#ee752e"/>
        <path id="패스_862" data-name="패스 862" d="M3655.111,1391.5q-3.855,1.319-7.538,2.983h70.93q-3.682-1.661-7.538-2.983Z" transform="translate(-3596.738 -1386.851)" fill="#ee752e"/>
        <path id="패스_863" data-name="패스 863" d="M3619.24,1489.079h146.5c.611-.98,1.2-1.976,1.772-2.982H3617.467Q3618.326,1487.607,3619.24,1489.079Z" transform="translate(-3606.188 -1357.158)" fill="#ee752e"/>
        <path id="패스_864" data-name="패스 864" d="M3624.924,1411.373h130.447q-1.32-1.523-2.709-2.982h-125.03Q3626.242,1409.85,3624.924,1411.373Z" transform="translate(-3603.847 -1381.549)" fill="#ee752e"/>
        <path id="패스_865" data-name="패스 865" d="M3627.243,1499.216h126.024q1.366-1.461,2.663-2.983H3624.58Q3625.879,1497.754,3627.243,1499.216Z" transform="translate(-3603.955 -1353.976)" fill="#ee752e"/>
        <path id="패스_866" data-name="패스 866" d="M3624.2,1495.837h133.81c.8-.978,1.579-1.969,2.334-2.983H3621.867C3622.623,1493.867,3623.4,1494.859,3624.2,1495.837Z" transform="translate(-3604.807 -1355.037)" fill="#ee752e"/>
        <path id="패스_867" data-name="패스 867" d="M3621.566,1492.458h140.55q1.048-1.47,2.039-2.983H3619.527Q3620.515,1490.99,3621.566,1492.458Z" transform="translate(-3605.541 -1356.097)" fill="#ee752e"/>
        <path id="패스_868" data-name="패스 868" d="M3628.042,1407.994H3750.3q-1.524-1.527-3.119-2.983H3631.161Q3629.563,1406.464,3628.042,1407.994Z" transform="translate(-3602.868 -1382.609)" fill="#ee752e"/>
        <path id="패스_869" data-name="패스 869" d="M3630.733,1502.594h117.109q1.57-1.454,3.068-2.982H3627.664Q3629.162,1501.139,3630.733,1502.594Z" transform="translate(-3602.987 -1352.916)" fill="#ee752e"/>
        <path id="패스_870" data-name="패스 870" d="M3631.7,1404.615h112.651q-1.783-1.539-3.648-2.982H3635.345Q3633.479,1403.074,3631.7,1404.615Z" transform="translate(-3601.721 -1383.67)" fill="#ee752e"/>
        <path id="패스_871" data-name="패스 871" d="M3634.825,1505.971h106.681q1.833-1.443,3.585-2.981H3631.239Q3632.99,1504.529,3634.825,1505.971Z" transform="translate(-3601.865 -1351.855)" fill="#ee752e"/>
        <path id="패스_872" data-name="패스 872" d="M3609.069,1449.28h172.109c-.035-.486-.068-.972-.11-1.456H3609.18C3609.138,1448.308,3609.1,1448.794,3609.069,1449.28Z" transform="translate(-3608.824 -1369.171)" fill="#fff"/>
        <path id="패스_873" data-name="패스 873" d="M3609.9,1442.523h169.923c-.085-.486-.166-.974-.26-1.456h-169.4C3610.067,1441.549,3609.986,1442.037,3609.9,1442.523Z" transform="translate(-3608.562 -1371.292)" fill="#fff"/>
        <path id="패스_874" data-name="패스 874" d="M3609.4,1445.9h171.25c-.06-.486-.117-.974-.186-1.457H3609.582C3609.513,1444.928,3609.455,1445.416,3609.4,1445.9Z" transform="translate(-3608.721 -1370.232)" fill="#fff"/>
        <path id="패스_875" data-name="패스 875" d="M3608.916,1452.659h172.512c-.009-.486-.019-.972-.037-1.457H3608.953C3608.934,1451.687,3608.926,1452.173,3608.916,1452.659Z" transform="translate(-3608.872 -1368.111)" fill="#fff"/>
        <path id="패스_876" data-name="패스 876" d="M3610.588,1439.146h168.118c-.111-.486-.215-.975-.336-1.457H3610.925C3610.8,1438.171,3610.7,1438.66,3610.588,1439.146Z" transform="translate(-3608.347 -1372.352)" fill="#fff"/>
        <path id="패스_877" data-name="패스 877" d="M3610.09,1466.173H3779.68c.092-.483.177-.969.26-1.456H3609.83C3609.913,1465.2,3610,1465.689,3610.09,1466.173Z" transform="translate(-3608.584 -1363.869)" fill="#fff"/>
        <path id="패스_878" data-name="패스 878" d="M3609.149,1459.416h171.967c.04-.485.079-.97.112-1.456H3609.039C3609.07,1458.446,3609.11,1458.931,3609.149,1459.416Z" transform="translate(-3608.833 -1365.99)" fill="#fff"/>
        <path id="패스_879" data-name="패스 879" d="M3609.531,1462.8h171.014q.1-.727.185-1.457H3609.345C3609.4,1461.825,3609.466,1462.31,3609.531,1462.8Z" transform="translate(-3608.737 -1364.929)" fill="#fff"/>
        <path id="패스_880" data-name="패스 880" d="M3610.833,1469.552H3778.52c.117-.484.226-.97.336-1.457H3610.5C3610.607,1468.583,3610.716,1469.069,3610.833,1469.552Z" transform="translate(-3608.376 -1362.808)" fill="#fff"/>
        <path id="패스_881" data-name="패스 881" d="M3608.943,1456.038h172.464c.016-.485.03-.969.037-1.457H3608.906C3608.913,1455.068,3608.927,1455.553,3608.943,1456.038Z" transform="translate(-3608.875 -1367.05)" fill="#fff"/>
        <path id="패스_882" data-name="패스 882" d="M3621.36,1415.495h139.812c-.354-.487-.7-.976-1.067-1.456H3622.427C3622.063,1414.519,3621.713,1415.007,3621.36,1415.495Z" transform="translate(-3604.966 -1379.776)" fill="#fff"/>
        <path id="패스_883" data-name="패스 883" d="M3626.985,1408.738h125.03c-.463-.486-.915-.982-1.389-1.457H3628.374C3627.9,1407.757,3627.447,1408.252,3626.985,1408.738Z" transform="translate(-3603.2 -1381.897)" fill="#fff"/>
        <path id="패스_884" data-name="패스 884" d="M3623.963,1412.117h132.972c-.41-.5-.841-.971-1.261-1.457H3625.226C3624.8,1411.146,3624.373,1411.622,3623.963,1412.117Z" transform="translate(-3604.148 -1380.836)" fill="#fff"/>
        <path id="패스_885" data-name="패스 885" d="M3619.07,1418.874H3764.9c-.309-.487-.616-.976-.934-1.457H3620C3619.687,1417.9,3619.379,1418.387,3619.07,1418.874Z" transform="translate(-3605.685 -1378.715)" fill="#fff"/>
        <path id="패스_886" data-name="패스 886" d="M3630.416,1405.359h116.015c-.549-.5-1.121-.972-1.682-1.456H3632.1C3631.537,1404.387,3630.965,1404.861,3630.416,1405.359Z" transform="translate(-3602.123 -1382.957)" fill="#fff"/>
        <path id="패스_887" data-name="패스 887" d="M3612.536,1432.388h163c-.169-.485-.324-.975-.5-1.456h-162C3612.861,1431.413,3612.706,1431.9,3612.536,1432.388Z" transform="translate(-3607.735 -1374.473)" fill="#fff"/>
        <path id="패스_888" data-name="패스 888" d="M3615.307,1425.631h155.717c-.235-.491-.493-.969-.737-1.456H3616.044C3615.8,1424.661,3615.542,1425.14,3615.307,1425.631Z" transform="translate(-3606.866 -1376.594)" fill="#fff"/>
        <path id="패스_889" data-name="패스 889" d="M3613.813,1429.01h159.644c-.2-.487-.4-.974-.615-1.457H3614.428C3614.218,1428.036,3614.014,1428.523,3613.813,1429.01Z" transform="translate(-3607.335 -1375.534)" fill="#fff"/>
        <path id="패스_890" data-name="패스 890" d="M3611.464,1435.767H3777.28c-.139-.485-.265-.975-.414-1.457H3611.878C3611.73,1434.792,3611.6,1435.282,3611.464,1435.767Z" transform="translate(-3608.072 -1373.413)" fill="#fff"/>
        <path id="패스_891" data-name="패스 891" d="M3617.058,1422.252h151.116c-.271-.49-.558-.971-.837-1.456H3617.9C3617.615,1421.281,3617.329,1421.762,3617.058,1422.252Z" transform="translate(-3606.316 -1377.655)" fill="#fff"/>
        <path id="패스_892" data-name="패스 892" d="M3639.283,1398.6H3732c-.776-.5-1.556-.985-2.349-1.456h-88.016C3640.839,1397.616,3640.06,1398.106,3639.283,1398.6Z" transform="translate(-3599.34 -1385.078)" fill="#fff"/>
        <path id="패스_893" data-name="패스 893" d="M3704.469,1390.388h-46.463q-2.377.664-4.7,1.457h55.854Q3706.845,1391.053,3704.469,1390.388Z" transform="translate(-3594.937 -1387.199)" fill="#fff"/>
        <path id="패스_894" data-name="패스 894" d="M3645.235,1395.224h77.074c-1.012-.507-2.038-.989-3.072-1.457h-70.93C3647.272,1394.235,3646.247,1394.717,3645.235,1395.224Z" transform="translate(-3597.471 -1386.139)" fill="#fff"/>
        <path id="패스_895" data-name="패스 895" d="M3634.473,1401.981h105.354q-.96-.741-1.939-1.457H3636.412Q3635.431,1401.239,3634.473,1401.981Z" transform="translate(-3600.85 -1384.018)" fill="#fff"/>
        <path id="패스_896" data-name="패스 896" d="M3615.833,1483.066H3770.61c.239-.482.476-.967.706-1.456H3615.128Q3615.473,1482.343,3615.833,1483.066Z" transform="translate(-3606.922 -1358.566)" fill="#fff"/>
        <path id="패스_897" data-name="패스 897" d="M3612.895,1476.309H3775.26c.173-.481.327-.971.493-1.456H3612.4C3612.568,1475.338,3612.721,1475.828,3612.895,1476.309Z" transform="translate(-3607.777 -1360.687)" fill="#fff"/>
        <path id="패스_898" data-name="패스 898" d="M3614.242,1479.688h158.884c.205-.481.389-.972.584-1.457H3613.657C3613.853,1478.716,3614.037,1479.207,3614.242,1479.688Z" transform="translate(-3607.384 -1359.627)" fill="#fff"/>
        <path id="패스_899" data-name="패스 899" d="M3617.667,1486.445h150.042c.277-.486.569-.964.837-1.456H3616.83C3617.1,1485.48,3617.39,1485.959,3617.667,1486.445Z" transform="translate(-3606.387 -1357.506)" fill="#fff"/>
        <path id="패스_900" data-name="패스 900" d="M3611.765,1472.931H3777.05c.144-.484.277-.971.414-1.457H3611.351C3611.489,1471.96,3611.62,1472.448,3611.765,1472.931Z" transform="translate(-3608.107 -1361.748)" fill="#fff"/>
        <path id="패스_901" data-name="패스 901" d="M3628,1499.96h123.246c.469-.48.93-.967,1.389-1.457H3626.607C3627.066,1498.993,3627.527,1499.48,3628,1499.96Z" transform="translate(-3603.319 -1353.264)" fill="#fff"/>
        <path id="패스_902" data-name="패스 902" d="M3622.115,1493.2h138.479c.356-.477.69-.971,1.036-1.456h-140.55C3621.425,1492.231,3621.758,1492.725,3622.115,1493.2Z" transform="translate(-3605.054 -1355.385)" fill="#fff"/>
        <path id="패스_903" data-name="패스 903" d="M3624.874,1496.581h131.35c.413-.484.828-.964,1.23-1.457h-133.81C3624.046,1495.617,3624.461,1496.1,3624.874,1496.581Z" transform="translate(-3604.249 -1354.324)" fill="#fff"/>
        <path id="패스_904" data-name="패스 904" d="M3631.628,1503.338H3745.48c.548-.481,1.095-.962,1.629-1.456H3630C3630.535,1502.376,3631.08,1502.857,3631.628,1503.338Z" transform="translate(-3602.253 -1352.203)" fill="#fff"/>
        <path id="패스_905" data-name="패스 905" d="M3619.75,1489.824h144.628c.315-.483.628-.967.934-1.457h-146.5C3619.122,1488.857,3619.435,1489.341,3619.75,1489.824Z" transform="translate(-3605.764 -1356.445)" fill="#fff"/>
        <path id="패스_906" data-name="패스 906" d="M3656.536,1516.852h50.139c1.482-.451,2.952-.931,4.4-1.457h-58.94C3653.584,1515.921,3655.054,1516.4,3656.536,1516.852Z" transform="translate(-3595.305 -1347.962)" fill="#fff"/>
        <path id="패스_907" data-name="패스 907" d="M3640.936,1510.094h89.8c.769-.469,1.519-.963,2.272-1.456h-94.341C3639.417,1509.131,3640.167,1509.625,3640.936,1510.094Z" transform="translate(-3599.534 -1350.083)" fill="#fff"/>
        <path id="패스_908" data-name="패스 908" d="M3647.4,1513.473h73.237c.991-.465,1.967-.955,2.938-1.457h-79.113C3645.43,1512.518,3646.406,1513.008,3647.4,1513.473Z" transform="translate(-3597.715 -1349.022)" fill="#fff"/>
        <path id="패스_909" data-name="패스 909" d="M3677.207,1519.5a87.16,87.16,0,0,0,11.051-.728h-22.1A87.164,87.164,0,0,0,3677.207,1519.5Z" transform="translate(-3590.906 -1346.901)" fill="#fff"/>
        <path id="패스_910" data-name="패스 910" d="M3635.838,1506.716h102.941c.634-.472,1.249-.969,1.87-1.457H3633.968C3634.588,1505.748,3635.2,1506.244,3635.838,1506.716Z" transform="translate(-3601.008 -1351.143)" fill="#fff"/>
      </g>
    </g>
    <g id="그룹_717" data-name="그룹 717" transform="translate(4127.33 1257.086)">
      <g id="그룹_716" data-name="그룹 716">
        <path id="패스_911" data-name="패스 911" d="M4003.339,1409.07a86.3,86.3,0,0,1,172.6,0Z" transform="translate(-4003.339 -1236.469)" fill="#ee752e"/>
        <path id="패스_912" data-name="패스 912" d="M4003.339,1343.387a86.3,86.3,0,1,1,172.6,0Z" transform="translate(-4003.339 -1257.086)" fill="#f7a42f"/>
      </g>
      <path id="패스_913" data-name="패스 913" d="M4175.939,1530.982v-25.647a30.326,30.326,0,0,0-30.325-30.327h-25.648a30.326,30.326,0,0,1-30.326-30.326v-25.648a30.326,30.326,0,0,0-30.327-30.326h-25.647a30.326,30.326,0,0,0-30.327,30.326v111.948a30.327,30.327,0,0,0,30.327,30.327h111.948A30.326,30.326,0,0,0,4175.939,1530.982Z" transform="translate(-4003.339 -1215.772)" fill="#7d7d7d"/>
    </g>
    <g id="그룹_719" data-name="그룹 719" transform="translate(3953.917 1257.086)">
      <g id="그룹_718" data-name="그룹 718" transform="translate(0.602)">
        <circle id="타원_60" data-name="타원 60" cx="86.719" cy="86.719" r="86.719" fill="#ee752e"/>
        <circle id="타원_61" data-name="타원 61" cx="78.047" cy="78.047" r="78.047" transform="translate(8.672 8.672)" fill="none" stroke="#fff" stroke-miterlimit="10" stroke-width="1"/>
        <circle id="타원_62" data-name="타원 62" cx="70.242" cy="70.242" r="70.242" transform="translate(16.476 16.477)" fill="none" stroke="#fff" stroke-miterlimit="10" stroke-width="1"/>
        <circle id="타원_63" data-name="타원 63" cx="63.218" cy="63.218" r="63.218" transform="translate(23.501 23.501)" fill="none" stroke="#fff" stroke-miterlimit="10" stroke-width="1"/>
        <circle id="타원_64" data-name="타원 64" cx="56.896" cy="56.896" r="56.896" transform="translate(29.823 29.823)" fill="none" stroke="#fff" stroke-miterlimit="10" stroke-width="1"/>
        <circle id="타원_65" data-name="타원 65" cx="51.207" cy="51.207" r="51.207" transform="translate(35.512 35.512)" fill="none" stroke="#fff" stroke-miterlimit="10" stroke-width="1"/>
        <circle id="타원_66" data-name="타원 66" cx="46.086" cy="46.086" r="46.086" transform="translate(40.633 40.633)" fill="none" stroke="#fff" stroke-miterlimit="10" stroke-width="1"/>
        <circle id="타원_67" data-name="타원 67" cx="41.477" cy="41.477" r="41.477" transform="translate(45.241 45.242)" fill="none" stroke="#fff" stroke-miterlimit="10" stroke-width="1"/>
        <circle id="타원_68" data-name="타원 68" cx="37.33" cy="37.33" r="37.33" transform="translate(49.389 49.389)" fill="none" stroke="#fff" stroke-miterlimit="10" stroke-width="1"/>
        <circle id="타원_69" data-name="타원 69" cx="33.597" cy="33.597" r="33.597" transform="translate(53.122 53.122)" fill="none" stroke="#fff" stroke-miterlimit="10" stroke-width="1"/>
        <circle id="타원_70" data-name="타원 70" cx="30.237" cy="30.237" r="30.237" transform="translate(56.482 56.482)" fill="none" stroke="#fff" stroke-miterlimit="10" stroke-width="1"/>
        <circle id="타원_71" data-name="타원 71" cx="27.213" cy="27.213" r="27.213" transform="translate(59.505 59.506)" fill="none" stroke="#fff" stroke-miterlimit="10" stroke-width="1"/>
        <circle id="타원_72" data-name="타원 72" cx="24.492" cy="24.492" r="24.492" transform="translate(62.227 62.227)" fill="none" stroke="#fff" stroke-miterlimit="10" stroke-width="1"/>
        <circle id="타원_73" data-name="타원 73" cx="22.043" cy="22.043" r="22.043" transform="translate(64.676 64.676)" fill="none" stroke="#fff" stroke-miterlimit="10" stroke-width="1"/>
        <circle id="타원_74" data-name="타원 74" cx="19.839" cy="19.839" r="19.839" transform="translate(66.88 66.881)" fill="none" stroke="#fff" stroke-miterlimit="10" stroke-width="1"/>
        <circle id="타원_75" data-name="타원 75" cx="17.855" cy="17.855" r="17.855" transform="translate(68.864 68.864)" fill="none" stroke="#fff" stroke-miterlimit="10" stroke-width="1"/>
        <circle id="타원_76" data-name="타원 76" cx="16.069" cy="16.069" r="16.069" transform="translate(70.65 70.65)" fill="none" stroke="#fff" stroke-miterlimit="10" stroke-width="1"/>
        <circle id="타원_77" data-name="타원 77" cx="14.462" cy="14.462" r="14.462" transform="translate(72.257 72.257)" fill="none" stroke="#fff" stroke-miterlimit="10" stroke-width="1"/>
        <circle id="타원_78" data-name="타원 78" cx="13.016" cy="13.016" r="13.016" transform="translate(73.703 73.703)" fill="none" stroke="#fff" stroke-miterlimit="10" stroke-width="1"/>
        <circle id="타원_79" data-name="타원 79" cx="11.714" cy="11.714" r="11.714" transform="translate(75.005 75.005)" fill="none" stroke="#fff" stroke-miterlimit="10" stroke-width="1"/>
        <circle id="타원_80" data-name="타원 80" cx="10.543" cy="10.543" r="10.543" transform="translate(76.176 76.176)" fill="none" stroke="#fff" stroke-miterlimit="10" stroke-width="1"/>
        <circle id="타원_81" data-name="타원 81" cx="9.489" cy="9.489" r="9.489" transform="translate(77.23 77.23)" fill="none" stroke="#fff" stroke-miterlimit="10" stroke-width="1"/>
        <circle id="타원_82" data-name="타원 82" cx="8.54" cy="8.54" r="8.54" transform="translate(78.179 78.179)" fill="none" stroke="#fff" stroke-miterlimit="10" stroke-width="1"/>
        <circle id="타원_83" data-name="타원 83" cx="7.686" cy="7.686" r="7.686" transform="translate(79.033 79.033)" fill="none" stroke="#fff" stroke-miterlimit="10" stroke-width="1"/>
        <circle id="타원_84" data-name="타원 84" cx="6.917" cy="6.917" r="6.917" transform="translate(79.802 79.802)" fill="none" stroke="#fff" stroke-miterlimit="10" stroke-width="1"/>
        <circle id="타원_85" data-name="타원 85" cx="6.226" cy="6.226" r="6.226" transform="translate(80.493 80.494)" fill="none" stroke="#fff" stroke-miterlimit="10" stroke-width="1"/>
        <circle id="타원_86" data-name="타원 86" cx="5.603" cy="5.603" r="5.603" transform="translate(81.116 81.116)" fill="none" stroke="#fff" stroke-miterlimit="10" stroke-width="1"/>
        <circle id="타원_87" data-name="타원 87" cx="5.043" cy="5.043" r="5.043" transform="translate(81.676 81.676)" fill="none" stroke="#fff" stroke-miterlimit="10" stroke-width="1"/>
        <circle id="타원_88" data-name="타원 88" cx="4.538" cy="4.538" r="4.538" transform="translate(82.181 82.181)" fill="none" stroke="#fff" stroke-miterlimit="10" stroke-width="1"/>
        <circle id="타원_89" data-name="타원 89" cx="4.085" cy="4.085" r="4.085" transform="translate(82.634 82.634)" fill="none" stroke="#fff" stroke-miterlimit="10" stroke-width="1"/>
        <circle id="타원_90" data-name="타원 90" cx="3.676" cy="3.676" r="3.676" transform="translate(83.043 83.043)" fill="none" stroke="#fff" stroke-miterlimit="10" stroke-width="1"/>
        <circle id="타원_91" data-name="타원 91" cx="3.309" cy="3.309" r="3.309" transform="translate(83.41 83.411)" fill="none" stroke="#fff" stroke-miterlimit="10" stroke-width="1"/>
        <circle id="타원_92" data-name="타원 92" cx="2.978" cy="2.978" r="2.978" transform="translate(83.741 83.741)" fill="none" stroke="#fff" stroke-miterlimit="10" stroke-width="1"/>
        <circle id="타원_93" data-name="타원 93" cx="2.68" cy="2.68" r="2.68" transform="translate(84.039 84.039)" fill="none" stroke="#fff" stroke-miterlimit="10" stroke-width="1"/>
        <circle id="타원_94" data-name="타원 94" cx="2.412" cy="2.412" r="2.412" transform="translate(84.307 84.307)" fill="none" stroke="#fff" stroke-miterlimit="10" stroke-width="1"/>
        <circle id="타원_95" data-name="타원 95" cx="2.171" cy="2.171" r="2.171" transform="translate(84.548 84.548)" fill="none" stroke="#fff" stroke-miterlimit="10" stroke-width="1"/>
        <circle id="타원_96" data-name="타원 96" cx="1.954" cy="1.954" r="1.954" transform="translate(84.765 84.765)" fill="none" stroke="#fff" stroke-miterlimit="10" stroke-width="1"/>
        <circle id="타원_97" data-name="타원 97" cx="1.758" cy="1.758" r="1.758" transform="translate(84.961 84.961)" fill="none" stroke="#fff" stroke-miterlimit="10" stroke-width="1"/>
        <circle id="타원_98" data-name="타원 98" cx="1.582" cy="1.582" r="1.582" transform="translate(85.136 85.137)" fill="none" stroke="#fff" stroke-miterlimit="10" stroke-width="1"/>
        <circle id="타원_99" data-name="타원 99" cx="1.424" cy="1.424" r="1.424" transform="translate(85.295 85.295)" fill="none" stroke="#fff" stroke-miterlimit="10" stroke-width="1"/>
        <circle id="타원_100" data-name="타원 100" cx="1.282" cy="1.282" r="1.282" transform="translate(85.437 85.437)" fill="none" stroke="#fff" stroke-miterlimit="10" stroke-width="1"/>
        <circle id="타원_101" data-name="타원 101" cx="1.154" cy="1.154" r="1.154" transform="translate(85.565 85.565)" fill="none" stroke="#fff" stroke-miterlimit="10" stroke-width="1"/>
        <circle id="타원_102" data-name="타원 102" cx="1.038" cy="1.038" r="1.038" transform="translate(85.681 85.681)" fill="none" stroke="#fff" stroke-miterlimit="10" stroke-width="1"/>
        <circle id="타원_103" data-name="타원 103" cx="0.934" cy="0.934" r="0.934" transform="translate(85.784 85.785)" fill="none" stroke="#fff" stroke-miterlimit="10" stroke-width="1"/>
        <circle id="타원_104" data-name="타원 104" cx="0.841" cy="0.841" r="0.841" transform="translate(85.878 85.878)" fill="none" stroke="#fff" stroke-miterlimit="10" stroke-width="1"/>
      </g>
    </g>
  </g>
</svg>
