<svg xmlns="http://www.w3.org/2000/svg" xmlns:xlink="http://www.w3.org/1999/xlink" width="762.551" height="688.058" viewBox="0 0 762.551 688.058">
  <defs>
    <clipPath id="clip-path">
      <path id="패스_328" data-name="패스 328" d="M414.807,419.963H141.571l-9.44-270.075H414.807Z" transform="translate(-132.131 -149.888)" fill="none"/>
    </clipPath>
  </defs>
  <g id="그룹_410" data-name="그룹 410" transform="translate(-106.787 -142.571)">
    <g id="BACKGROUND" transform="translate(128.79 142.57)">
      <g id="그룹_317" data-name="그룹 317">
        <g id="그룹_316" data-name="그룹 316">
          <path id="패스_317" data-name="패스 317" d="M760.839,828.785c58.215-48.65,95.053-120.577,95.053-200.826,0-89.4-45.722-168.476-115.782-216.545-33.594-23.047-56.379-58.166-62.488-97.56-17.645-113.779-116.321-171.988-221-171.276-121.839.83-220.533,97.164-220.325,215.005a209.461,209.461,0,0,0,2.381,31.19c6.731,44.156-9.014,88.605-41.991,119.831-50.167,47.5-81.308,113.72-81.347,186.978a254.628,254.628,0,0,0,37.373,133.2Z" transform="translate(-115.345 -142.571)" fill="#ed6e1b"/>
        </g>
      </g>
    </g>
    <g id="OBJECTS" transform="translate(106.787 144.964)">
      <g id="그룹_332" data-name="그룹 332" transform="translate(65.162 16.396)">
        <g id="그룹_321" data-name="그룹 321" transform="translate(80.357 243.432)">
          <g id="그룹_318" data-name="그룹 318">
            <path id="패스_318" data-name="패스 318" d="M183.352,668.533h-19.7L198.4,244.8h19.7Z" transform="translate(-162.972 -244.179)" fill="#fff"/>
            <path id="패스_319" data-name="패스 319" d="M184.337,669.535H163.385l.054-.674,34.8-424.3h20.952l-.054.671Zm-19.6-1.247h18.458L217.841,245.8H199.383Z" transform="translate(-163.385 -244.559)" fill="#222221"/>
          </g>
          <g id="그룹_319" data-name="그룹 319" transform="translate(132.016)">
            <path id="패스_320" data-name="패스 320" d="M298.271,668.533h19.7L234.73,244.8h-19.7Z" transform="translate(-214.27 -244.179)" fill="#fff"/>
            <path id="패스_321" data-name="패스 321" d="M319.192,669.535h-20.97l-.1-.5L214.731,244.559H235.7l.1.5Zm-19.949-1.247H317.68l-83-422.488H216.243Z" transform="translate(-214.731 -244.559)" fill="#222221"/>
          </g>
          <g id="그룹_320" data-name="그룹 320" transform="translate(76.95)">
            <path id="패스_322" data-name="패스 322" d="M254.269,668.533H234.746L193.581,244.8H213.1Z" transform="translate(-192.895 -244.179)" fill="#fff"/>
            <path id="패스_323" data-name="패스 323" d="M255.373,669.538H234.6l-.054-.563L193.314,244.559h20.772l.057.56Zm-19.643-1.247H254L212.96,245.8H194.684Z" transform="translate(-193.314 -244.559)" fill="#222221"/>
          </g>
        </g>
        <g id="그룹_325" data-name="그룹 325" transform="translate(0 0)">
          <g id="그룹_322" data-name="그룹 322" transform="translate(0 0.024)">
            <path id="패스_324" data-name="패스 324" d="M414.807,419.963H141.571l-9.44-270.075H414.807Z" transform="translate(-132.131 -149.888)" fill="#fff"/>
          </g>
          <g id="그룹_323" data-name="그룹 323" transform="translate(19.983)">
            <rect id="사각형_532" data-name="사각형 532" width="1.244" height="270.265" transform="translate(0 0.047) rotate(-2.147)" fill="#222221"/>
          </g>
          <g id="그룹_324" data-name="그룹 324" transform="translate(48.184 269.706)">
            <rect id="사각형_533" data-name="사각형 533" width="218.374" height="15.547" transform="translate(0.621 0.623)" fill="#fff"/>
            <path id="패스_325" data-name="패스 325" d="M370.49,271.572H150.872V254.778H370.49Zm-218.376-1.247H369.245v-14.3H152.114Z" transform="translate(-150.872 -254.778)" fill="#222221"/>
          </g>
        </g>
        <g id="그룹_331" data-name="그룹 331" transform="translate(0 0.024)">
          <g id="그룹_330" data-name="그룹 330" clip-path="url(#clip-path)">
            <g id="그룹_329" data-name="그룹 329" transform="translate(30.727 -104.05)">
              <g id="그룹_326" data-name="그룹 326">
                <path id="패스_326" data-name="패스 326" d="M340.609,197.572a98.5,98.5,0,1,0-94.735,108.94,33.112,33.112,0,0,1,26.791,12.11A60.93,60.93,0,0,0,376.01,303.29c10.367-25.009,8.361-51.314-14.617-69.129A53.733,53.733,0,0,1,340.609,197.572Z" transform="translate(-144.082 -109.419)" fill="#f1a400"/>
              </g>
              <g id="그룹_327" data-name="그룹 327" transform="translate(9.691 304.429)">
                <path id="패스_327" data-name="패스 327" d="M237.641,234.8a48.9,48.9,0,0,0-18.4,19.679,27.546,27.546,0,0,1-23.79,15.028,49.087,49.087,0,1,0,41.533,77.444,53.3,53.3,0,0,1,34.345-21.692A49.1,49.1,0,1,0,237.641,234.8Z" transform="translate(-147.851 -227.823)" fill="#538b20"/>
              </g>
              <g id="그룹_328" data-name="그룹 328" transform="translate(190.666 245.108)">
                <circle id="타원_56" data-name="타원 56" cx="43.873" cy="43.873" r="43.873" transform="matrix(0.232, -0.973, 0.973, 0.232, 0, 85.353)" fill="#24579f"/>
              </g>
            </g>
          </g>
        </g>
      </g>
      <g id="그룹_383" data-name="그룹 383" transform="translate(170.128 0)">
        <g id="그룹_337" data-name="그룹 337" transform="translate(307.234 115.382)">
          <g id="그룹_333" data-name="그룹 333" transform="translate(20.971)">
            <path id="패스_329" data-name="패스 329" d="M326.638,327.827,369.3,378.279l77.734-52.15c28.781-19.306,25.063-62.745-6.582-76.881l-134.9-60.871-4.944,99.514,58.57,15.545Z" transform="translate(-300.608 -188.378)" fill="#ffc1a4"/>
          </g>
          <g id="그룹_334" data-name="그룹 334" transform="translate(0 141.453)">
            <ellipse id="타원_57" data-name="타원 57" cx="44.832" cy="46.459" rx="44.832" ry="46.459" fill="#ffc1a4"/>
          </g>
          <g id="그룹_335" data-name="그룹 335" transform="translate(26.535 193.695)">
            <circle id="타원_58" data-name="타원 58" cx="24.043" cy="24.043" r="24.043" transform="translate(0 34.002) rotate(-45)" fill="#ffc1a4"/>
          </g>
          <g id="그룹_336" data-name="그룹 336" transform="translate(20.97 0)">
            <path id="패스_330" data-name="패스 330" d="M305.552,188.378l-4.944,99.513,37.309,9.9,40.351-76.605Z" transform="translate(-300.608 -188.378)" fill="#fff"/>
          </g>
        </g>
        <g id="그룹_342" data-name="그룹 342" transform="translate(181.816 326.975)">
          <g id="그룹_338" data-name="그룹 338" transform="translate(0.62 0)">
            <path id="패스_331" data-name="패스 331" d="M417.8,627.883H247.489a3.571,3.571,0,0,1-1.342-6.88L314,593.525a25.524,25.524,0,0,0,11.32-21.209V270.675H425.692l.357,348.954A8.246,8.246,0,0,1,417.8,627.883Z" transform="translate(-243.913 -270.675)" fill="#ffc1a4"/>
          </g>
          <g id="그룹_339" data-name="그룹 339" transform="translate(0.62 296.728)">
            <path id="패스_332" data-name="패스 332" d="M347.322,410.09a24.1,24.1,0,0,0-22-24.006V391A25.524,25.524,0,0,1,314,412.206l-67.856,27.477a3.571,3.571,0,0,0,1.342,6.88H417.8a8.248,8.248,0,0,0,8.246-8.253l-.026-23.261H346.811A24.257,24.257,0,0,0,347.322,410.09Z" transform="translate(-243.913 -386.084)" fill="#2456a0"/>
          </g>
          <g id="그룹_340" data-name="그룹 340" transform="translate(82.032)">
            <path id="패스_333" data-name="패스 333" d="M376.2,522.311l-.256-251.636H275.577V522.311Z" transform="translate(-275.577 -270.675)"/>
          </g>
          <g id="그룹_341" data-name="그룹 341" transform="translate(0 347.548)">
            <path id="패스_334" data-name="패스 334" d="M246.147,408.251a3.571,3.571,0,0,0,1.342,6.88H417.8a8.248,8.248,0,0,0,8.246-8.253l0-.787H251.477Z" transform="translate(-243.293 -405.471)" fill="#fff"/>
            <path id="패스_335" data-name="패스 335" d="M418.183,416.132H247.868a4.194,4.194,0,0,1-1.576-8.081l5.561-2.2H427.045l.005,1.4a8.87,8.87,0,0,1-8.868,8.878Zm-166.209-9.037-5.214,2.111a2.948,2.948,0,0,0,1.108,5.68H418.183a7.615,7.615,0,0,0,7.623-7.629v-.162Z" transform="translate(-243.672 -405.85)" fill="#222221"/>
          </g>
        </g>
        <g id="그룹_343" data-name="그룹 343" transform="translate(25.557 111.975)">
          <path id="패스_336" data-name="패스 336" d="M187.448,759.261H349.085a9.486,9.486,0,0,0,9.485-9.485V553.9l142.8-113.938a54.608,54.608,0,0,0,20.548-43.477l-4.289-166.381a44.191,44.191,0,0,0-44.177-43.053H396a22.659,22.659,0,0,0-22.659,22.654L373.3,382.749l-86.826,84.576a86.544,86.544,0,0,0-26.158,62.449l.908,173.4A21.515,21.515,0,0,1,248,724.767l-62.709,25.947A4.545,4.545,0,0,0,187.448,759.261Z" transform="translate(-182.897 -187.053)" fill="#ffc1a4"/>
        </g>
        <g id="그룹_344" data-name="그룹 344" transform="translate(25.557 623.716)">
          <path id="패스_337" data-name="패스 337" d="M282.551,415.042A24.118,24.118,0,0,0,261.2,386.089l.021,4.381A21.515,21.515,0,0,1,248,412.062L185.294,438.01a4.545,4.545,0,0,0,2.155,8.546H349.085a9.486,9.486,0,0,0,9.485-9.485V415.042Z" transform="translate(-182.897 -386.089)" fill="#24579f"/>
        </g>
        <g id="그룹_345" data-name="그룹 345" transform="translate(24.929 674.523)">
          <path id="패스_338" data-name="패스 338" d="M186.479,406.091l-1.185.494a4.545,4.545,0,0,0,2.155,8.546H349.085a9.477,9.477,0,0,0,9.462-9.04Z" transform="translate(-182.269 -405.471)" fill="#fff"/>
          <path id="패스_339" data-name="패스 339" d="M349.469,416.132H187.832a5.169,5.169,0,0,1-2.45-9.719l1.484-.563H359.581l-.031.65A10.083,10.083,0,0,1,349.469,416.132Zm-162.483-9.037-1.072.442a3.924,3.924,0,0,0,1.918,7.348H349.469a8.833,8.833,0,0,0,8.785-7.79Z" transform="translate(-182.652 -405.85)" fill="#222221"/>
        </g>
        <g id="그룹_346" data-name="그룹 346" transform="translate(102.975 249.603)">
          <path id="패스_340" data-name="패스 340" d="M325.993,298.65l-86.826,84.576a86.544,86.544,0,0,0-26.158,62.449l.651,123.914h97.6V469.8l142.8-113.938a54.608,54.608,0,0,0,20.548-43.477l-1.851-71.806H326.006Z" transform="translate(-213.008 -240.582)"/>
        </g>
        <g id="그룹_347" data-name="그룹 347" transform="translate(152.956 333.009)">
          <path id="패스_341" data-name="패스 341" d="M233.689,518.623h-1.242V413.1a64.884,64.884,0,0,1,22.6-49.247L360.66,273.022l.81.946L255.857,364.8a63.646,63.646,0,0,0-22.168,48.3Z" transform="translate(-232.447 -273.022)" fill="#fff"/>
        </g>
        <g id="그룹_350" data-name="그룹 350" transform="translate(150.904 249.603)">
          <g id="그룹_348" data-name="그룹 348">
            <path id="패스_342" data-name="패스 342" d="M296.718,240.582l-.013,58.068-65.056,63.37,61.243,53.551,51.648-57.389a90.326,90.326,0,0,0,23.191-60.431V240.582Z" transform="translate(-231.649 -240.582)" fill="#fff"/>
          </g>
          <g id="그룹_349" data-name="그룹 349" transform="translate(64.642 41.716)">
            <rect id="사각형_534" data-name="사각형 534" width="23.873" height="1.245" transform="translate(0 15.89) rotate(-41.73)" fill="#222221"/>
          </g>
        </g>
        <g id="그룹_351" data-name="그룹 351" transform="translate(215.971 111.975)">
          <path id="패스_343" data-name="패스 343" d="M256.982,218.865l-.026,114.977h146.99l-2.674-103.736A44.191,44.191,0,0,0,357.1,187.053H288.8A31.819,31.819,0,0,0,256.982,218.865Z" transform="translate(-256.956 -187.053)" fill="#fff"/>
        </g>
        <g id="그룹_352" data-name="그룹 352" transform="translate(0 75.797)">
          <path id="패스_344" data-name="패스 344" d="M316.409,192.1l-115.19,88.8-26.925,6.731a1.075,1.075,0,0,1-1.2-1.563l13.442-24.281,115.19-88.8Z" transform="translate(-172.957 -172.982)" fill="#24579f"/>
        </g>
        <g id="그룹_353" data-name="그룹 353" transform="translate(71.907 100.366)">
          <path id="패스_345" data-name="패스 345" d="M202.492,186.138a14.811,14.811,0,0,0-1.568-3.276l.53-.324a15.457,15.457,0,0,1,1.63,3.4Z" transform="translate(-200.924 -182.538)" fill="#222221"/>
        </g>
        <g id="그룹_354" data-name="그룹 354" transform="translate(92.753 116.952)">
          <path id="패스_346" data-name="패스 346" d="M209.061,189.61l-.029,0,.08-.618Z" transform="translate(-209.032 -188.989)" fill="#222221"/>
        </g>
        <g id="그룹_355" data-name="그룹 355" transform="translate(78.623 151.187)">
          <path id="패스_347" data-name="패스 347" d="M203.536,202.3" transform="translate(-203.536 -202.304)" fill="none" stroke="#222221" stroke-miterlimit="10" stroke-width="0.242"/>
        </g>
        <g id="그룹_356" data-name="그룹 356" transform="translate(24.995 93.527)">
          <path id="패스_348" data-name="패스 348" d="M284.619,246.544a10.8,10.8,0,0,1-2.81-14.532,18.68,18.68,0,0,0-11.616-28.4v0l-.028,0a18.364,18.364,0,0,0-2.489-.373l-3.42-.512a14.622,14.622,0,0,1-11.017-8.138l-2.1-4.371a15.016,15.016,0,0,0-1.6-3.345l-.008-.018h0a15.157,15.157,0,0,0-21.62-4.119,25.873,25.873,0,0,0-22.345,14.47,27.671,27.671,0,0,0-15.077,24.4,29.713,29.713,0,0,0,1.378,41.559l-.005.008,76.392,75,56.189-62.457Z" transform="translate(-182.678 -179.878)" fill="#ffc1a4"/>
        </g>
        <g id="그룹_360" data-name="그룹 360" transform="translate(32.176 95.877)">
          <g id="그룹_357" data-name="그룹 357" transform="translate(0 39.623)">
            <path id="패스_349" data-name="패스 349" d="M190.014,211.583a28.183,28.183,0,0,1-4.543-15.38h1.244a26.97,26.97,0,0,0,4.34,14.7Z" transform="translate(-185.471 -196.203)" fill="#222221"/>
          </g>
          <g id="그룹_358" data-name="그룹 358" transform="translate(12.449 14.704)">
            <path id="패스_350" data-name="패스 350" d="M194.933,213.124a26.537,26.537,0,0,1-1.926-26.613l1.116.548a25.282,25.282,0,0,0,1.836,25.361Z" transform="translate(-190.313 -186.511)" fill="#222221"/>
          </g>
          <g id="그룹_359" data-name="그룹 359" transform="translate(31.115)">
            <path id="패스_351" data-name="패스 351" d="M200.5,202.762a15.783,15.783,0,0,1,3.638-21.97l.728,1.01a14.593,14.593,0,0,0-6.05,11.806,14.443,14.443,0,0,0,1.26,5.929,14.624,14.624,0,0,0,1.435,2.5Z" transform="translate(-197.573 -180.792)" fill="#222221"/>
          </g>
        </g>
        <g id="그룹_361" data-name="그룹 361" transform="translate(102.236 111.394)">
          <path id="패스_352" data-name="패스 352" d="M381.752,252.146,297.9,342.818a40.749,40.749,0,0,1-57.585,2.252l-27.6-25.518L323.714,199.526a39.553,39.553,0,0,1,55.893-2.185h0A38.786,38.786,0,0,1,381.752,252.146Z" transform="translate(-212.72 -186.827)" fill="#ffc1a4"/>
        </g>
        <g id="그룹_362" data-name="그룹 362" transform="translate(166.001 111.394)">
          <path id="패스_353" data-name="패스 353" d="M296.358,302.352l46.429-50.206a38.786,38.786,0,0,0-2.144-54.805h0a39.553,39.553,0,0,0-55.893,2.185L237.521,250.6Z" transform="translate(-237.521 -186.827)" fill="#fff"/>
        </g>
        <g id="그룹_363" data-name="그룹 363" transform="translate(200.585 456.509)">
          <path id="패스_354" data-name="패스 354" d="M251.594,540.314a.621.621,0,0,1-.622-.622V321.678a.622.622,0,1,1,1.244,0V539.692A.621.621,0,0,1,251.594,540.314Z" transform="translate(-250.972 -321.056)" fill="#222221"/>
        </g>
        <g id="그룹_364" data-name="그룹 364" transform="translate(261.068 187.74)">
          <path id="패스_355" data-name="패스 355" d="M274.5,216.521" transform="translate(-274.496 -216.521)" fill="none" stroke="#222221" stroke-miterlimit="10" stroke-width="0.484"/>
        </g>
        <g id="그룹_365" data-name="그룹 365" transform="translate(224.838 226.918)">
          <path id="패스_356" data-name="패스 356" d="M260.4,231.759" transform="translate(-260.405 -231.759)" fill="none" stroke="#222221" stroke-miterlimit="10" stroke-width="0.484"/>
        </g>
        <g id="그룹_366" data-name="그룹 366" transform="translate(166.001 175.165)">
          <path id="패스_357" data-name="패스 357" d="M237.521,211.63" transform="translate(-237.521 -211.63)" fill="none" stroke="#222221" stroke-miterlimit="10" stroke-width="0.484"/>
        </g>
        <g id="그룹_367" data-name="그룹 367" transform="translate(269.123 121.907)">
          <path id="패스_358" data-name="패스 358" d="M277.629,190.916" transform="translate(-277.629 -190.916)" fill="none" stroke="#222221" stroke-miterlimit="10" stroke-width="0.484"/>
        </g>
        <g id="그룹_368" data-name="그룹 368" transform="translate(135.858 110.802)">
          <path id="패스_359" data-name="패스 359" d="M226.71,283.484l-.913-.843,76.914-83.175A39.915,39.915,0,0,1,330.636,186.6h32.913v1.244H330.662a38.654,38.654,0,0,0-27.038,12.467Z" transform="translate(-225.797 -186.597)" fill="#222221"/>
        </g>
        <g id="그룹_369" data-name="그룹 369" transform="translate(362.79 223.523)">
          <path id="패스_360" data-name="패스 360" d="M358.788,244.472,314.06,231.634l.341-1.2,44.728,12.838Z" transform="translate(-314.06 -230.439)" fill="#222221"/>
        </g>
        <g id="그룹_370" data-name="그룹 370" transform="translate(215.971 162.471)">
          <path id="패스_361" data-name="패스 361" d="M404.568,303.609H256.956v-1.243H403.323V206.693h1.245Z" transform="translate(-256.956 -206.693)" fill="#222221"/>
        </g>
        <g id="그룹_382" data-name="그룹 382" transform="translate(225.298)">
          <g id="그룹_373" data-name="그룹 373" transform="translate(0)">
            <g id="그룹_371" data-name="그룹 371" transform="translate(41.504 95.154)">
              <path id="패스_362" data-name="패스 362" d="M285.547,181.834l-8.821,38.739,49.11,3.778-9.246-43.841Z" transform="translate(-276.726 -180.511)" fill="#de9978"/>
            </g>
            <g id="그룹_372" data-name="그룹 372">
              <circle id="타원_59" data-name="타원 59" cx="46.216" cy="46.216" r="46.216" transform="translate(0 46.215) rotate(-30)" fill="#de9978"/>
            </g>
          </g>
          <g id="그룹_379" data-name="그룹 379" transform="translate(13.799 61.806)">
            <g id="그룹_374" data-name="그룹 374" transform="translate(11.023 6.302)">
              <path id="패스_363" data-name="패스 363" d="M273.338,173.114c.08,1.761-.548,3.219-1.4,3.258s-1.609-1.357-1.689-3.119.548-3.222,1.4-3.26S273.258,171.35,273.338,173.114Z" transform="translate(-270.238 -169.992)" fill="#222221"/>
            </g>
            <g id="그룹_375" data-name="그룹 375" transform="translate(0 15.066)">
              <path id="패스_364" data-name="패스 364" d="M275.5,174.716c.674,1.494-.884,3.651-3.479,4.821s-5.245.908-5.916-.584.884-3.651,3.479-4.821S274.829,173.222,275.5,174.716Z" transform="translate(-265.951 -173.4)" fill="#de9978"/>
            </g>
            <g id="그룹_378" data-name="그룹 378" transform="translate(8.243)">
              <g id="그룹_376" data-name="그룹 376" transform="translate(4.104 21.664)">
                <rect id="사각형_535" data-name="사각형 535" width="9.734" height="1.244" transform="translate(0 7.624) rotate(-51.557)" fill="#222221"/>
              </g>
              <g id="그룹_377" data-name="그룹 377">
                <path id="패스_365" data-name="패스 365" d="M277.708,170.882a.624.624,0,0,1-.512-.27,4.242,4.242,0,0,0-6.914-.09.622.622,0,1,1-1.005-.733,5.542,5.542,0,0,1,4.98-2.224,5.482,5.482,0,0,1,3.965,2.342.623.623,0,0,1-.514.974Z" transform="translate(-269.157 -167.54)" fill="#222221"/>
              </g>
            </g>
          </g>
          <g id="그룹_380" data-name="그룹 380" transform="translate(38.057 61.208)">
            <path id="패스_366" data-name="패스 366" d="M363.051,231.848a26.394,26.394,0,0,0-15.843-37.857,26.25,26.25,0,0,0-17.589,1.018A26.37,26.37,0,1,0,280.523,207a16.2,16.2,0,0,1-.633,17.309,26.385,26.385,0,0,0,21.733,41.127,17.12,17.12,0,0,1,15.589,9.582,26.37,26.37,0,1,0,46.465-24.8A18.511,18.511,0,0,1,363.051,231.848Z" transform="translate(-275.386 -167.308)" fill="#24579f"/>
          </g>
          <g id="그룹_381" data-name="그룹 381" transform="translate(26.867 16.913)">
            <path id="패스_367" data-name="패스 367" d="M311.913,150.314a46.178,46.178,0,0,0-40.549,16.918c-.015.157-.036.311-.051.465A54.925,54.925,0,0,0,343.3,225.282a46.219,46.219,0,0,0-31.385-74.968Z" transform="translate(-271.034 -150.08)" fill="#f1a400"/>
          </g>
        </g>
      </g>
      <g id="그룹_386" data-name="그룹 386" transform="translate(17.205 397.028)">
        <g id="그룹_384" data-name="그룹 384" transform="translate(48.607)">
          <path id="패스_368" data-name="패스 368" d="M301.328,586.557H141.46l-.291-.6a88.038,88.038,0,0,1-7.045-21.142c-8.063-40.945,12.449-81.676,49.887-99.051a19.926,19.926,0,0,0,11.11-22.693,75.44,75.44,0,0,1-2.173-18.011c0-36.093,26.266-67.093,62.452-73.708A23.248,23.248,0,0,0,273.99,333.1c5.106-26.292,31.115-36.312,47.935-35.083,24.67,1.849,43.912,21.155,44.76,44.912a46.744,46.744,0,0,1-18.527,38.939,20.681,20.681,0,0,0-7.69,22.315,75.243,75.243,0,0,1-24.179,78.7,32.857,32.857,0,0,0-10.058,35.826,89.411,89.411,0,0,1-4.613,67.252ZM142.8,584.431H300a87.275,87.275,0,0,0,4.211-65.054,34.971,34.971,0,0,1,10.719-38.124,73.137,73.137,0,0,0,23.5-76.48,22.778,22.778,0,0,1,8.449-24.593,44.62,44.62,0,0,0,17.684-37.173c-.807-22.672-19.206-41.1-42.8-42.868-16.057-1.237-40.834,8.356-45.691,33.373a25.4,25.4,0,0,1-20.291,19.926c-35.178,6.43-60.711,36.548-60.711,71.618a73.469,73.469,0,0,0,2.108,17.5,22.045,22.045,0,0,1-12.274,25.122c-36.548,16.967-56.572,56.736-48.7,96.714A85.721,85.721,0,0,0,142.8,584.431Z" transform="translate(-132.384 -297.921)" fill="#fff"/>
        </g>
        <g id="그룹_385" data-name="그룹 385" transform="translate(0 122.912)">
          <path id="패스_369" data-name="패스 369" d="M212.477,511.45h-71.4l-.316-.35a48.476,48.476,0,0,1-10.135-48.02A21.489,21.489,0,0,0,127,443.049a37.2,37.2,0,0,1-5.188-36.587,17.857,17.857,0,0,0-2.551-17.748,26.194,26.194,0,0,1-5.777-16.509,26.566,26.566,0,0,1,8.408-19.353,26.476,26.476,0,0,1,44.519,18.083q.05,1.034.018,2.044A16.816,16.816,0,0,0,174.913,388a37.31,37.31,0,0,1,18.633,32.229c0,.381-.005.764-.018,1.139a17.418,17.418,0,0,0,8.3,15.483A48.594,48.594,0,0,1,212.793,511.1Zm-70.456-2.126h69.51a46.471,46.471,0,0,0-10.8-70.651,19.544,19.544,0,0,1-9.32-17.365c.01-.357.015-.715.015-1.075a35.181,35.181,0,0,0-17.568-30.39A18.929,18.929,0,0,1,164.3,372.92c.015-.622.01-1.252-.018-1.885a24.355,24.355,0,1,0-43.367,16.355,19.981,19.981,0,0,1,2.862,19.859,35.1,35.1,0,0,0,4.89,34.494,23.616,23.616,0,0,1,3.972,22.011,46.328,46.328,0,0,0,9.379,45.57Z" transform="translate(-113.479 -345.726)" fill="#fff"/>
        </g>
      </g>
      <g id="그룹_405" data-name="그룹 405" transform="translate(492.549 357.336)">
        <g id="그룹_387" data-name="그룹 387" transform="translate(1.31 183.674)">
          <path id="패스_370" data-name="패스 370" d="M331.91,497.094h68.051L433,353.922H298.868Z" transform="translate(-298.868 -353.922)" fill="#f1a400"/>
        </g>
        <g id="그룹_388" data-name="그룹 388" transform="translate(86.763 131.255)">
          <rect id="사각형_536" data-name="사각형 536" width="54.156" height="1.244" transform="translate(0 52.258) rotate(-74.785)" fill="#222221"/>
        </g>
        <g id="그룹_389" data-name="그룹 389" transform="translate(44.812 82.314)">
          <rect id="사각형_537" data-name="사각형 537" width="1.241" height="103.383" transform="translate(0 0.252) rotate(-11.702)" fill="#222221"/>
        </g>
        <g id="그룹_390" data-name="그룹 390" transform="translate(53.429 142.404)">
          <path id="패스_371" data-name="패스 371" d="M326.368,379.193l-7.229-41.218.613-.105,7.229,41.218Z" transform="translate(-319.14 -337.87)" fill="#222221"/>
        </g>
        <g id="그룹_391" data-name="그룹 391" transform="translate(80.064 7.848)">
          <rect id="사각형_538" data-name="사각형 538" width="177.533" height="1.243" transform="translate(0 175.748) rotate(-81.87)" fill="#222221"/>
        </g>
        <g id="그룹_392" data-name="그룹 392" transform="translate(75.334 21.633)">
          <rect id="사각형_539" data-name="사각형 539" width="1.245" height="162.042" fill="#222221"/>
        </g>
        <g id="그룹_393" data-name="그룹 393" transform="translate(81.82 107.66)">
          <path id="패스_372" data-name="패스 372" d="M331.833,340.146c2.106-2.964,5.965-4.335,10.739-4.224.293-4.767,1.982-8.5,5.114-10.346,7.541-4.453,20.584,3.679,29.133,18.162,6.489,10.989,8.523,22.477,5.831,29.323a8.4,8.4,0,0,1-2.461,3.787,8.446,8.446,0,0,1-1.545,1.17,8.553,8.553,0,0,1-2.435.964c-7.05,2.106-18.327-.887-28.732-8.276C333.766,360.969,326.762,347.286,331.833,340.146Z" transform="translate(-330.182 -324.357)" fill="#538b20"/>
        </g>
        <g id="그룹_394" data-name="그룹 394" transform="translate(27.59 127.867)">
          <path id="패스_373" data-name="패스 373" d="M344.667,333.869c2.468,1.928,3.494,5.307,3.211,9.413,4.093.44,7.238,2.041,8.706,4.811,3.535,6.669-3.98,17.576-16.787,24.361-9.716,5.153-19.687,6.448-25.474,3.862a7.423,7.423,0,0,1-1.975-1.1,7.339,7.339,0,0,1-1.188-1.175,7.248,7.248,0,0,1-1.679-3.51c-1.535-6.153,1.489-15.74,8.261-24.4C326.666,334.712,338.72,329.221,344.667,333.869Z" transform="translate(-309.09 -332.216)" fill="#538b20"/>
        </g>
        <g id="그룹_395" data-name="그룹 395" transform="translate(81.575 46.712)">
          <path id="패스_374" data-name="패스 374" d="M330.4,336.4c1.211-5.386,5.813-9.565,12.56-12.208-2.383-6.844-2.206-13.056,1.1-17.481,7.95-10.647,30.971-6.909,51.422,8.356,15.519,11.583,25.1,26.469,25.341,37.63a13,13,0,0,1-.255,3.967,15.625,15.625,0,0,1-2.448,5.32,13.008,13.008,0,0,1-2.846,2.774c-8.631,7.076-26.169,9.495-45.064,5.248C345.306,364.413,327.486,349.367,330.4,336.4Z" transform="translate(-330.087 -300.652)" fill="#538b20"/>
        </g>
        <g id="그룹_396" data-name="그룹 396" transform="translate(91.33 2.013)">
          <path id="패스_375" data-name="패스 375" d="M333.886,307.8c-.123-3.134,1.792-6.1,5.109-8.533-2.306-3.409-3.116-6.844-1.949-9.755,2.805-7,15.987-8.312,29.439-2.923,10.21,4.093,17.64,10.865,19.4,16.954a7.507,7.507,0,0,1,.44,2.214,7.37,7.37,0,0,1-.128,1.666,7.2,7.2,0,0,1-.44,1.612,7.31,7.31,0,0,1-1.157,1.939c-3.7,5.145-12.976,9.032-23.965,9.459C346.158,320.993,334.18,315.34,333.886,307.8Z" transform="translate(-333.881 -283.267)" fill="#538b20"/>
        </g>
        <g id="그룹_397" data-name="그룹 397" transform="translate(0 60.26)">
          <path id="패스_376" data-name="패스 376" d="M354.656,309.687c2.859,3.2,3.425,7.994,2.049,13.455,5.4,1.584,9.253,4.5,10.559,8.588,3.147,9.834-9.613,22.705-28.5,28.75-14.334,4.584-28.076,3.918-35.245-.967a9.958,9.958,0,0,1-2.394-1.951,12.122,12.122,0,0,1-2.26-3.949,10.141,10.141,0,0,1-.47-3.052c-.578-8.657,5.813-20.839,17.031-30.874C330.207,306.468,347.77,301.99,354.656,309.687Z" transform="translate(-298.359 -305.921)" fill="#538b20"/>
        </g>
        <g id="그룹_398" data-name="그룹 398" transform="translate(12.74)">
          <path id="패스_377" data-name="패스 377" d="M367.859,289.149c2.034,3.777,1.46,8.572-1.154,13.56,4.883,2.805,7.942,6.543,8.256,10.822.759,10.3-14.66,19.826-34.437,21.281-15.01,1.1-28.213-2.759-34.041-9.187a10.114,10.114,0,0,1-1.869-2.458,9.936,9.936,0,0,1-.843-2.124,9.9,9.9,0,0,1-.172-5.322c1.463-8.552,10.529-18.9,23.783-26.03C344.845,280.3,362.969,280.055,367.859,289.149Z" transform="translate(-303.314 -282.484)" fill="#538b20"/>
        </g>
        <g id="그룹_399" data-name="그룹 399" transform="translate(94.205 69.683)">
          <path id="패스_378" data-name="패스 378" d="M412.6,343.2,335,310.731l.482-1.145,77.6,32.473Z" transform="translate(-334.999 -309.586)" fill="#fff"/>
        </g>
        <g id="그룹_400" data-name="그룹 400" transform="translate(96.36 17.397)">
          <path id="패스_379" data-name="패스 379" d="M383.169,296.971l-47.332-6.491.171-1.23,47.332,6.491Z" transform="translate(-335.837 -289.25)" fill="#fff"/>
        </g>
        <g id="그룹_401" data-name="그룹 401" transform="translate(13.035 21.033)">
          <line id="선_21" data-name="선 21" x1="62.762" y2="16.927" transform="translate(0.16 0.599)" fill="#d4dafd"/>
          <path id="패스_380" data-name="패스 380" d="M303.75,308.79l-.321-1.2,62.761-16.926.321,1.2Z" transform="translate(-303.429 -290.664)" fill="#fff"/>
        </g>
        <g id="그룹_402" data-name="그룹 402" transform="translate(1.14 76.943)">
          <rect id="사각형_540" data-name="사각형 540" width="65.55" height="1.244" transform="matrix(0.868, -0.497, 0.497, 0.868, 0, 32.55)" fill="#fff"/>
        </g>
        <g id="그룹_403" data-name="그룹 403" transform="translate(93.753 118.802)">
          <path id="패스_381" data-name="패스 381" d="M372.441,370.461l-37.617-40.927.914-.844,37.617,40.927Z" transform="translate(-334.823 -328.69)" fill="#fff"/>
        </g>
        <g id="그룹_404" data-name="그룹 404" transform="translate(29.253 138.465)">
          <rect id="사각형_541" data-name="사각형 541" width="47.904" height="1.244" transform="matrix(0.767, -0.642, 0.642, 0.767, 0, 30.743)" fill="#fff"/>
        </g>
      </g>
      <g id="그룹_408" data-name="그룹 408" transform="translate(525.34 520.289)">
        <g id="그룹_406" data-name="그룹 406" transform="translate(96.475 70.263)">
          <path id="패스_382" data-name="패스 382" d="M397.018,467.751l-.918-.833a26.482,26.482,0,0,0,5.538-26.238,13.505,13.505,0,0,1,2.273-12.6,20.048,20.048,0,0,0,2.792-19.7,11.447,11.447,0,0,1,1.638-11.369,13.743,13.743,0,0,0,3.034-8.67,13.906,13.906,0,0,0-27.8-.669c-.015.36-.018.72-.008,1.075a10.842,10.842,0,0,1-5.469,9.688,20.089,20.089,0,0,0-10.038,17.36c0,.206,0,.409.008.612a11.187,11.187,0,0,1-5.335,9.94,26.557,26.557,0,0,0-5.993,40.569l-.923.833a27.8,27.8,0,0,1,6.273-42.467,9.945,9.945,0,0,0,4.739-8.834c-.01-.213-.013-.432-.013-.653a21.336,21.336,0,0,1,10.66-18.435,9.606,9.606,0,0,0,4.847-8.577c-.013-.388-.01-.776.01-1.17a15.15,15.15,0,1,1,26.976,10.174,10.2,10.2,0,0,0-1.455,10.13,21.265,21.265,0,0,1-2.967,20.929,12.267,12.267,0,0,0-2.072,11.436,27.728,27.728,0,0,1-5.8,27.467Z" transform="translate(-348.635 -373.19)" fill="#fff"/>
        </g>
        <g id="그룹_407" data-name="그룹 407" transform="translate(0)">
          <path id="패스_383" data-name="패스 383" d="M348.323,510.542a51.119,51.119,0,0,1-2.635-38.458,18.77,18.77,0,0,0-5.746-20.463,43.028,43.028,0,0,1-13.827-45,11.8,11.8,0,0,0-4.389-12.737,26.732,26.732,0,0,1-10.6-22.276c.483-13.586,11.488-24.629,25.6-25.685,9.657-.725,24.5,5.027,27.418,20.068a13.284,13.284,0,0,0,10.616,10.415c20.695,3.782,35.715,21.507,35.715,42.15a42.975,42.975,0,0,1-1.247,10.3,11.373,11.373,0,0,0,6.343,12.953A51.256,51.256,0,0,1,444.1,498.445a50.464,50.464,0,0,1-4.029,12.092L438.949,510a49.138,49.138,0,0,0,3.929-11.8,50.011,50.011,0,0,0-27.83-55.268,12.613,12.613,0,0,1-7.024-14.38,41.9,41.9,0,0,0,1.2-10c0-20.039-14.588-37.253-34.694-40.924a14.535,14.535,0,0,1-11.608-11.405c-2.774-14.285-16.933-19.756-26.1-19.065-13.478,1.01-23.988,11.537-24.449,24.492a25.484,25.484,0,0,0,10.1,21.235,13.046,13.046,0,0,1,4.836,14.079,41.787,41.787,0,0,0,13.426,43.7,20.011,20.011,0,0,1,6.132,21.808,49.892,49.892,0,0,0,2.571,37.52Z" transform="translate(-311.112 -345.863)" fill="#fff"/>
        </g>
      </g>
      <g id="그룹_409" data-name="그룹 409" transform="translate(0 683.561)">
        <rect id="사각형_542" data-name="사각형 542" width="719.237" height="1.245" fill="#222221"/>
      </g>
    </g>
  </g>
</svg>
