<svg xmlns="http://www.w3.org/2000/svg" width="122.443" height="665.359" viewBox="0 0 122.443 665.359">
  <g id="그룹_273" data-name="그룹 273" transform="translate(409.275 -105.122) rotate(90)">
    <path id="패스_197" data-name="패스 197" d="M182.658,352.3q0,14.975-5.8,21.531t-16.23,6.559q-10.432,0-16.317-6.559T138.424,352.3V287.886h-33.3v65.425q0,26.071,14.549,40.366t40.618,14.3q25.9,0,40.616-14.3t14.719-40.366V287.886H182.658Z" transform="translate(0 1.301)" fill="#ed6e1b"/>
    <path id="패스_198" data-name="패스 198" d="M270.861,287.886l-28.043,46.822-27.8-46.822H179.7l45.076,75.077v42.656h33.3V363.688l45.076-75.8Z" transform="translate(92.094 1.301)" fill="#ed6e1b"/>
    <path id="패스_199" data-name="패스 199" d="M271.35,358.19h52.307V333.466H271.35V313.787h59.371v-25.9H238.553V405.619h94.355v-25.9H271.35Z" transform="translate(164.768 1.301)" fill="#ed6e1b"/>
    <path id="패스_200" data-name="패스 200" d="M398.525,304.157a61.876,61.876,0,0,0-20.688-12.783,77.1,77.1,0,0,0-52.139,0A60.618,60.618,0,0,0,291.3,323.665a58.683,58.683,0,0,0-4.961,24.221,59.666,59.666,0,0,0,4.961,24.472,60.2,60.2,0,0,0,34.479,32.376,76.855,76.855,0,0,0,52.054,0,62.784,62.784,0,0,0,20.771-12.781,58.012,58.012,0,0,0,13.711-19.428,61,61,0,0,0,4.876-24.639,59.1,59.1,0,0,0-4.964-24.389A59.917,59.917,0,0,0,398.525,304.157ZM381.118,361.93a32.274,32.274,0,0,1-6.727,10.6,28.948,28.948,0,0,1-10.09,6.812,34.508,34.508,0,0,1-25.062,0,29.775,29.775,0,0,1-10.177-6.812,30.493,30.493,0,0,1-6.727-10.6,42.087,42.087,0,0,1,0-27.752,30.555,30.555,0,0,1,6.727-10.6,29.839,29.839,0,0,1,10.177-6.812,34.508,34.508,0,0,1,25.062,0,29.009,29.009,0,0,1,10.09,6.812,32.343,32.343,0,0,1,6.727,10.6,40.669,40.669,0,0,1,0,27.752Z" transform="translate(223.78 0)" fill="#ed6e1b"/>
    <path id="패스_201" data-name="패스 201" d="M432.012,287.886v62.7l-51.8-62.7H352.795V405.619h32.46V342.877l51.971,62.742h27.416V287.886Z" transform="translate(305.839 1.301)" fill="#ed6e1b"/>
  </g>
</svg>
