<svg xmlns="http://www.w3.org/2000/svg" xmlns:xlink="http://www.w3.org/1999/xlink" width="252.433" height="241.816" viewBox="0 0 252.433 241.816">
  <defs>
    <clipPath id="clip-path">
      <rect id="사각형_367" data-name="사각형 367" width="252.433" height="241.816" transform="translate(0 0)" fill="none"/>
    </clipPath>
  </defs>
  <g id="그룹_352" data-name="그룹 352" transform="translate(0 -0.001)">
    <g id="그룹_351" data-name="그룹 351" transform="translate(0 0.001)" clip-path="url(#clip-path)">
      <path id="패스_73" data-name="패스 73" d="M1269.329,783.379c.035.106.071.213.1.32a19.014,19.014,0,0,1-12.474,23.821l-.189.056q-8.726,15.589-18.74,30.461a19.029,19.029,0,1,1-4.9,7.118q-4.812,6.847-9.874,13.489l-13.047,17.111a19.016,19.016,0,0,1-22.566,29.595l-13.392,17.564a166.843,166.843,0,0,0,26.036-5.9c64.3-20.1,104.933-73.161,90.755-118.509a63.924,63.924,0,0,0-16.432-26.559l-.937,2.079q-2.109,4.68-4.35,9.35" transform="translate(-1064.471 -699.778)" fill="#fff"/>
      <path id="패스_74" data-name="패스 74" d="M159.577,522.773a17.706,17.706,0,0,1,1-7.044A20.687,20.687,0,0,1,165.2,508.5a38.075,38.075,0,0,1,7.237-5.751,79.492,79.492,0,0,1,7.231-4.015q1.355-1.506,2.716-2.993l1.519-1.657c-27.087-11.668-63.147-13.243-99.425-1.9-24.177,7.559-45.007,19.776-60.836,34.491-16.466,15.308-6.991,42.882,15.409,44.812h0A18.959,18.959,0,0,1,35.8,609.266l-21.211-1.827a13.384,13.384,0,0,0-12.1,21.041c14.726,20.749,41.777,32.585,72.375,35.01l49.673-88.032a434.1,434.1,0,0,1,35.045-52.685M71.7,635.457a13.949,13.949,0,1,1,9.151-17.476A13.949,13.949,0,0,1,71.7,635.457m-2.184-85.046A19.014,19.014,0,1,1,81.99,526.59a19.014,19.014,0,0,1-12.474,23.821m37.478-31.638a19.014,19.014,0,1,1,23.821,12.474,19.014,19.014,0,0,1-23.821-12.474" transform="translate(0.001 -439.163)" fill="#fff"/>
      <path id="패스_75" data-name="패스 75" d="M922.276,869.972a43.075,43.075,0,0,1-10.9-10.274,427.863,427.863,0,0,0-39.547,58.285l-50.976,90.341a8.591,8.591,0,0,0,14.314,9.431l62.9-82.487a427.858,427.858,0,0,0,37.951-59.337,43.074,43.074,0,0,1-13.74-5.959" transform="translate(-743.106 -779.322)" fill="#fff"/>
      <path id="패스_76" data-name="패스 76" d="M1855.543,574.888l-5.576,6.084q-4.606,5.026-9.047,10.193-.888,1.033-1.769,2.072-1.763,2.077-3.5,4.177a38.3,38.3,0,0,0,23.738,15.64q4.976-9.694,9.459-19.641l3.133-6.955a30.349,30.349,0,0,1-7.5-3.444,35.354,35.354,0,0,1-8.943-8.127" transform="translate(-1664.032 -521.14)" fill="#fff"/>
      <path id="패스_77" data-name="패스 77" d="M2067.685,60.436a20.96,20.96,0,0,0,14.569-17.884c.343-4.019-2.121-25.483,16.564-42.552a118.221,118.221,0,0,0-23.927,4.748h0a83.991,83.991,0,0,0-10.9,4.21c-17.824,8.457-28.924,17.259-26.958,31.029,1.369,9.588,12.365,21.343,24.805,21.343a19.508,19.508,0,0,0,5.842-.894" transform="translate(-1846.385 -0.001)" fill="#fff"/>
    </g>
  </g>
</svg>
