<svg xmlns="http://www.w3.org/2000/svg" width="155.882" height="66.737" viewBox="0 0 155.882 66.737">
  <g id="그룹_23" data-name="그룹 23" transform="translate(-343.818 -465.064)">
    <g id="그룹_14" data-name="그룹 14">
      <path id="패스_16" data-name="패스 16" d="M385.911,509.21a.48.48,0,0,1,.1-.328.441.441,0,0,1,.341-.11h8.6a.441.441,0,0,1,.341.11.48.48,0,0,1,.1.328v2.836a.48.48,0,0,1-.1.328.441.441,0,0,1-.341.109H393.76a.44.44,0,0,1-.341-.109.48.48,0,0,1-.1-.328v-1.862h-6.973a.441.441,0,0,1-.341-.11.48.48,0,0,1-.1-.328Zm.438,5.2a.483.483,0,0,1-.328-.1.439.439,0,0,1-.11-.341v-.536a.438.438,0,0,1,.11-.341.478.478,0,0,1,.328-.1h2.665V511.7a.478.478,0,0,1,.1-.328.441.441,0,0,1,.341-.11h1.18a.441.441,0,0,1,.341.11.478.478,0,0,1,.1.328v1.29h3.882a.482.482,0,0,1,.329.1.441.441,0,0,1,.109.341v.536a.443.443,0,0,1-.109.341.488.488,0,0,1-.329.1Zm9.041,2.75a2.146,2.146,0,0,1-.17.925,1.3,1.3,0,0,1-.481.548,1.99,1.99,0,0,1-.73.267,5.341,5.341,0,0,1-.919.074H388.2a5.23,5.23,0,0,1-.913-.074,1.987,1.987,0,0,1-.724-.267,1.3,1.3,0,0,1-.481-.548,2.583,2.583,0,0,1,0-1.843,1.284,1.284,0,0,1,.481-.553,1.987,1.987,0,0,1,.724-.268,5.241,5.241,0,0,1,.913-.073h4.891a5.341,5.341,0,0,1,.919.073,1.992,1.992,0,0,1,.73.268,1.284,1.284,0,0,1,.481.553,2.156,2.156,0,0,1,.169.914Zm-7.411,0a.368.368,0,0,0,.116.323.616.616,0,0,0,.347.08h4.4a.642.642,0,0,0,.359-.08.506.506,0,0,0,0-.645.643.643,0,0,0-.359-.079h-4.4a.616.616,0,0,0-.347.079.369.369,0,0,0-.116.318Z" fill="#fff"/>
      <path id="패스_17" data-name="패스 17" d="M406.561,512.995a.286.286,0,0,1,.255-.329,6.159,6.159,0,0,0,1.236-.285,4.079,4.079,0,0,0,1.016-.512,2.469,2.469,0,0,0,.693-.729,1.8,1.8,0,0,0,.256-.956H407a.489.489,0,0,1-.329-.1.447.447,0,0,1-.109-.341v-.536a.442.442,0,0,1,.109-.34.484.484,0,0,1,.329-.1h4.648a.44.44,0,0,1,.341.11.48.48,0,0,1,.1.328v.487a3.928,3.928,0,0,1-.438,1.917,3.982,3.982,0,0,1-1.168,1.326,5.607,5.607,0,0,1-1.661.816,9.821,9.821,0,0,1-1.916.383.455.455,0,0,1-.262-.019c-.053-.028-.079-.1-.079-.213Zm9.175,5.536a.481.481,0,0,1-.1.329.437.437,0,0,1-.341.11H407a.437.437,0,0,1-.341-.11.481.481,0,0,1-.1-.329v-2.884a.483.483,0,0,1,.1-.328.441.441,0,0,1,.341-.109h1.193a.439.439,0,0,1,.34.109.483.483,0,0,1,.1.328v1.912H415.3a.441.441,0,0,1,.341.109.481.481,0,0,1,.1.328Zm-1.995-3.151a.44.44,0,0,1-.341-.109.484.484,0,0,1-.1-.329V509.21a.48.48,0,0,1,.1-.328.44.44,0,0,1,.341-.11h1.192a.441.441,0,0,1,.341.11.48.48,0,0,1,.1.328v2.045h.572a.473.473,0,0,1,.328.1.431.431,0,0,1,.11.339v.537a.435.435,0,0,1-.11.34.478.478,0,0,1-.328.1h-.572v2.276a.484.484,0,0,1-.1.329.441.441,0,0,1-.341.109Z" fill="#fff"/>
      <path id="패스_18" data-name="패스 18" d="M435.34,516.1v2.433a.476.476,0,0,1-.1.329.434.434,0,0,1-.34.11h-1.18a.436.436,0,0,1-.341-.11.476.476,0,0,1-.1-.329V516.1h-2.324v2.433a.481.481,0,0,1-.1.329.436.436,0,0,1-.341.11h-1.18a.436.436,0,0,1-.341-.11.481.481,0,0,1-.1-.329V516.1h-.961a.489.489,0,0,1-.329-.1.445.445,0,0,1-.109-.341v-.536a.443.443,0,0,1,.109-.34.483.483,0,0,1,.329-.1H436.3a.48.48,0,0,1,.328.1.439.439,0,0,1,.109.34v.536a.441.441,0,0,1-.109.341.486.486,0,0,1-.328.1Zm-5.61-2.385a2.275,2.275,0,0,1-.967-.189,1.865,1.865,0,0,1-.676-.517,2.169,2.169,0,0,1-.4-.778,3.612,3.612,0,0,1-.127-.987,3.547,3.547,0,0,1,.127-.972,2.222,2.222,0,0,1,.4-.786,1.835,1.835,0,0,1,.682-.523,2.323,2.323,0,0,1,.973-.189H434.5a2.327,2.327,0,0,1,.974.189,1.832,1.832,0,0,1,.681.523,2.189,2.189,0,0,1,.4.786,3.549,3.549,0,0,1,.128.972,3.614,3.614,0,0,1-.128.987,2.137,2.137,0,0,1-.4.778,1.848,1.848,0,0,1-.676.517,2.275,2.275,0,0,1-.966.189Zm4-1.411a.936.936,0,0,0,.725-.286,1.106,1.106,0,0,0,.262-.774,1.06,1.06,0,0,0-.275-.784.961.961,0,0,0-.712-.274h-3.224a.961.961,0,0,0-.712.274,1.06,1.06,0,0,0-.274.784,1.1,1.1,0,0,0,.262.774.933.933,0,0,0,.724.286Z" fill="#fff"/>
      <path id="패스_19" data-name="패스 19" d="M453.678,512.106a1.834,1.834,0,0,1-.231.95,1.884,1.884,0,0,1-.627.638,2.772,2.772,0,0,1-.919.36,5.615,5.615,0,0,1-2.2,0,2.78,2.78,0,0,1-.919-.36,1.958,1.958,0,0,1-.633-.638,1.8,1.8,0,0,1-.237-.95v-1.277a1.794,1.794,0,0,1,.237-.949,1.952,1.952,0,0,1,.633-.639,2.757,2.757,0,0,1,.919-.359,5.566,5.566,0,0,1,2.2,0,2.749,2.749,0,0,1,.919.359,1.878,1.878,0,0,1,.627.639,1.83,1.83,0,0,1,.231.949Zm3.894,6.425a.486.486,0,0,1-.1.329.437.437,0,0,1-.341.11H448.47a.437.437,0,0,1-.341-.11.481.481,0,0,1-.1-.329v-2.884a.483.483,0,0,1,.1-.328.441.441,0,0,1,.341-.109h1.192a.441.441,0,0,1,.341.109.483.483,0,0,1,.1.328v1.912h7.033a.441.441,0,0,1,.341.109.486.486,0,0,1,.1.328Zm-5.9-7.605a.714.714,0,0,0-.243-.6,1.16,1.16,0,0,0-1.266,0,.714.714,0,0,0-.243.6v1.083a.713.713,0,0,0,.243.6,1.155,1.155,0,0,0,1.266,0,.713.713,0,0,0,.243-.6Zm4.028,4.454a.441.441,0,0,1-.341-.109.484.484,0,0,1-.1-.329v-1.668h-.718a.483.483,0,0,1-.328-.1.443.443,0,0,1-.11-.341V512.3a.438.438,0,0,1,.11-.341.478.478,0,0,1,.328-.1h.718v-.779h-.718a.478.478,0,0,1-.328-.1.44.44,0,0,1-.11-.341V510.1a.437.437,0,0,1,.11-.34.473.473,0,0,1,.328-.1h.718V509.2a.48.48,0,0,1,.1-.328.441.441,0,0,1,.341-.11h1.193a.439.439,0,0,1,.34.11.48.48,0,0,1,.1.328v5.732a.484.484,0,0,1-.1.329.439.439,0,0,1-.34.109Z" fill="#fff"/>
    </g>
    <g id="그룹_15" data-name="그룹 15">
      <path id="패스_20" data-name="패스 20" d="M385.711,527.148c-.232-.091-.458-.19-.679-.294a2.8,2.8,0,0,1-.591-.376,1.735,1.735,0,0,1-.416-.523,1.557,1.557,0,0,1-.158-.731,1.5,1.5,0,0,1,.137-.62,1.643,1.643,0,0,1,.409-.545,2.019,2.019,0,0,1,.68-.389,2.825,2.825,0,0,1,.95-.146,3.26,3.26,0,0,1,.91.118,2.071,2.071,0,0,1,.7.343,1.486,1.486,0,0,1,.441.551,1.67,1.67,0,0,1,.141.735.376.376,0,0,1-.068.219.279.279,0,0,1-.223.073h-.76c-.2,0-.3-.1-.291-.292a.84.84,0,0,0-.191-.565.782.782,0,0,0-.643-.243,1,1,0,0,0-.663.2.676.676,0,0,0-.235.546.757.757,0,0,0,.138.457,1.429,1.429,0,0,0,.34.332,2.332,2.332,0,0,0,.441.242c.158.068.3.128.432.183q.437.193.773.38a2.724,2.724,0,0,1,.558.4,1.535,1.535,0,0,1,.34.478,1.468,1.468,0,0,1,.117.6,1.638,1.638,0,0,1-.591,1.282,2.042,2.042,0,0,1-.687.373,2.943,2.943,0,0,1-.914.132,3.582,3.582,0,0,1-1.06-.137,1.991,1.991,0,0,1-.72-.384,1.449,1.449,0,0,1-.412-.586,2.041,2.041,0,0,1-.13-.736.322.322,0,0,1,.065-.219.289.289,0,0,1,.226-.072h.785a.267.267,0,0,1,.219.072.433.433,0,0,1,.072.219.765.765,0,0,0,.065.258.707.707,0,0,0,.174.239.881.881,0,0,0,.3.177,1.242,1.242,0,0,0,.441.07.816.816,0,0,0,.344-.07.739.739,0,0,0,.4-.428.818.818,0,0,0,.053-.287.7.7,0,0,0-.089-.36.853.853,0,0,0-.251-.262,2.024,2.024,0,0,0-.384-.208Z" fill="#fff"/>
      <path id="패스_21" data-name="패스 21" d="M391.374,525.11a.319.319,0,0,1,.064-.218.292.292,0,0,1,.227-.073h.7a.291.291,0,0,1,.226.073.319.319,0,0,1,.065.218v.161a1.546,1.546,0,0,1,.614-.375,2.309,2.309,0,0,1,.769-.133,2.4,2.4,0,0,1,.712.1,1.343,1.343,0,0,1,.554.332,1.579,1.579,0,0,1,.36.594,2.657,2.657,0,0,1,.129.882v1.488a2.639,2.639,0,0,1-.129.886,1.581,1.581,0,0,1-.36.591,1.343,1.343,0,0,1-.554.332,2.4,2.4,0,0,1-.712.1,3.052,3.052,0,0,1-.772-.089,1.357,1.357,0,0,1-.6-.331v1.861a.321.321,0,0,1-.065.218.3.3,0,0,1-.227.073h-.711a.3.3,0,0,1-.227-.073.321.321,0,0,1-.064-.218Zm1.294,3.041a.86.86,0,0,0,.247.68,1.125,1.125,0,0,0,1.334,0,.86.86,0,0,0,.247-.68v-1.633a.86.86,0,0,0-.247-.68,1.129,1.129,0,0,0-1.334,0,.86.86,0,0,0-.247.68Z" fill="#fff"/>
      <path id="패스_22" data-name="패스 22" d="M398.719,528.531a1.509,1.509,0,0,1,.384-1.083,1.789,1.789,0,0,1,1.055-.51l1.456-.218v-.32a.91.91,0,0,0-.165-.55.622.622,0,0,0-.538-.226,1.173,1.173,0,0,0-.449.093.628.628,0,0,0-.344.336c-.043.086-.081.154-.113.206a.254.254,0,0,1-.211.085h-.63a.34.34,0,0,1-.239-.073.219.219,0,0,1-.045-.218,1.246,1.246,0,0,1,.243-.555,1.679,1.679,0,0,1,.457-.4,2.084,2.084,0,0,1,.607-.247,3.008,3.008,0,0,1,.708-.08,2.746,2.746,0,0,1,.914.136,1.6,1.6,0,0,1,.618.385,1.5,1.5,0,0,1,.352.6,2.516,2.516,0,0,1,.114.78V529.7a.322.322,0,0,1-.065.219.29.29,0,0,1-.226.072h-.688a.292.292,0,0,1-.227-.072.322.322,0,0,1-.064-.219v-.04a1.845,1.845,0,0,1-.627.3,2.988,2.988,0,0,1-.821.11,1.617,1.617,0,0,1-.611-.11,1.237,1.237,0,0,1-.457-.311,1.394,1.394,0,0,1-.287-.486,1.823,1.823,0,0,1-.1-.627Zm1.892.5a1.291,1.291,0,0,0,.514-.109,2.112,2.112,0,0,0,.489-.3v-1.052l-.906.13a.841.841,0,0,0-.347.108.8.8,0,0,0-.223.2.683.683,0,0,0-.117.243,1.06,1.06,0,0,0-.032.251.491.491,0,0,0,.161.376.659.659,0,0,0,.461.15Z" fill="#fff"/>
      <path id="패스_23" data-name="패스 23" d="M410.124,528.232a.334.334,0,0,1,.238.074.227.227,0,0,1,.053.217,2.043,2.043,0,0,1-.207.616,1.5,1.5,0,0,1-.416.489,1.936,1.936,0,0,1-.655.319,3.79,3.79,0,0,1-1.95-.028,1.843,1.843,0,0,1-.7-.393,1.483,1.483,0,0,1-.388-.582,2.022,2.022,0,0,1-.122-.712v-1.641a2.2,2.2,0,0,1,.113-.712,1.432,1.432,0,0,1,.377-.583,1.812,1.812,0,0,1,.683-.393,3.294,3.294,0,0,1,1.027-.14,3.33,3.33,0,0,1,.943.117,1.861,1.861,0,0,1,.647.323,1.392,1.392,0,0,1,.388.489,2,2,0,0,1,.174.607c.021.194-.076.292-.291.292h-.68a.253.253,0,0,1-.214-.073.53.53,0,0,1-.077-.219.765.765,0,0,0-.279-.529,1.041,1.041,0,0,0-.6-.15.918.918,0,0,0-.683.234.83.83,0,0,0-.231.607V528.2a.8.8,0,0,0,.251.607.992.992,0,0,0,.7.234,1.224,1.224,0,0,0,.582-.129.642.642,0,0,0,.324-.389.993.993,0,0,1,.081-.217c.027-.049.094-.074.2-.074Z" fill="#fff"/>
      <path id="패스_24" data-name="패스 24" d="M413.311,526.582a1.935,1.935,0,0,1,.157-.812,1.513,1.513,0,0,1,.449-.571,1.906,1.906,0,0,1,.7-.332,3.663,3.663,0,0,1,.906-.1,2.256,2.256,0,0,1,1.67.521,2.023,2.023,0,0,1,.506,1.468v.712a.289.289,0,0,1-.073.226.319.319,0,0,1-.218.065h-2.8v.445a.792.792,0,0,0,.251.607.991.991,0,0,0,.7.234,1.721,1.721,0,0,0,.558-.08.528.528,0,0,0,.323-.275c.038-.092.069-.164.093-.215s.091-.076.2-.076h.7a.373.373,0,0,1,.247.072.218.218,0,0,1,.052.226,1.44,1.44,0,0,1-.2.514,1.492,1.492,0,0,1-.425.437,2.192,2.192,0,0,1-.659.3,3.238,3.238,0,0,1-.9.114,3.307,3.307,0,0,1-1.035-.142,1.856,1.856,0,0,1-.7-.393,1.505,1.505,0,0,1-.388-.582,2.046,2.046,0,0,1-.121-.712Zm3.114-.057a.877.877,0,0,0-.243-.7.96.96,0,0,0-.655-.21.975.975,0,0,0-.671.222.761.761,0,0,0-.251.6v.519h1.82Z" fill="#fff"/>
      <path id="패스_25" data-name="패스 25" d="M427.742,530.068a2.824,2.824,0,0,1-1.837-.505,1.823,1.823,0,0,1-.606-1.484v-2.564a1.824,1.824,0,0,1,.606-1.485,3.585,3.585,0,0,1,3.673,0,1.824,1.824,0,0,1,.607,1.485v2.564a1.785,1.785,0,0,1-.635,1.484,2.844,2.844,0,0,1-1.808.505Zm0-1.1a1.12,1.12,0,0,0,.809-.259.99.99,0,0,0,.266-.744v-2.5a1.04,1.04,0,0,0-.246-.744,1.458,1.458,0,0,0-1.659,0,1.04,1.04,0,0,0-.246.744v2.5a.978.978,0,0,0,.274.744,1.128,1.128,0,0,0,.8.26Z" fill="#fff"/>
      <path id="패스_26" data-name="패스 26" d="M433.355,525.919a.318.318,0,0,1-.217-.065.289.289,0,0,1-.074-.226v-.357a.292.292,0,0,1,.074-.226.318.318,0,0,1,.217-.065h.325v-.638a1.2,1.2,0,0,1,.117-.563.95.95,0,0,1,.315-.355,1.261,1.261,0,0,1,.453-.187,2.581,2.581,0,0,1,.522-.052h.275a2.142,2.142,0,0,1,.226.021.579.579,0,0,1,.267.081.253.253,0,0,1,.073.21v.268a.424.424,0,0,1-.044.221c-.03.046-.1.064-.2.053-.06-.005-.121-.008-.183-.008h-.231q-.363,0-.363.34v.606h.728a.319.319,0,0,1,.218.065.292.292,0,0,1,.073.226v.357a.289.289,0,0,1-.073.226.319.319,0,0,1-.218.065h-.728V529.7a.317.317,0,0,1-.065.219.29.29,0,0,1-.227.072h-.646a.29.29,0,0,1-.227-.072.322.322,0,0,1-.064-.219v-3.777Z" fill="#fff"/>
      <path id="패스_27" data-name="패스 27" d="M446.815,528.467H444.81l-.38,1.238a.509.509,0,0,1-.114.21.32.32,0,0,1-.235.072h-.792c-.222,0-.3-.093-.235-.282l1.869-5.744a.5.5,0,0,1,.117-.21.332.332,0,0,1,.231-.064h1.083a.334.334,0,0,1,.231.064.5.5,0,0,1,.117.21l1.869,5.744c.065.189-.013.282-.235.282h-.792a.32.32,0,0,1-.235-.072.509.509,0,0,1-.114-.21Zm-1.674-1.1h1.335l-.664-2.168Z" fill="#fff"/>
      <path id="패스_28" data-name="패스 28" d="M452.752,529.7a.322.322,0,0,1-.065.219.288.288,0,0,1-.226.072h-.712a.293.293,0,0,1-.227-.072.322.322,0,0,1-.064-.219v-4.59a.319.319,0,0,1,.064-.218.293.293,0,0,1,.227-.073h.712a.288.288,0,0,1,.226.073.319.319,0,0,1,.065.218v.129a1.481,1.481,0,0,1,1.125-.461,1.012,1.012,0,0,1,.153.013c.06.008.111.018.154.028.113.033.178.07.194.113a.525.525,0,0,1,.009.218l-.041.3a.479.479,0,0,1-.081.218c-.037.049-.1.057-.2.024a1.077,1.077,0,0,0-.4-.056,1.139,1.139,0,0,0-.65.21.733.733,0,0,0-.264.632Z" fill="#fff"/>
      <path id="패스_29" data-name="패스 29" d="M458.8,526.057v2.653q0,.34.363.34h.23q.092,0,.183-.009c.1-.011.168.007.2.053a.42.42,0,0,1,.044.222v.429a.25.25,0,0,1-.072.21.564.564,0,0,1-.268.081,2.154,2.154,0,0,1-.225.021h-.276a2.571,2.571,0,0,1-.521-.053,1.254,1.254,0,0,1-.453-.186.964.964,0,0,1-.316-.356,1.2,1.2,0,0,1-.117-.562v-2.847h-.324a.319.319,0,0,1-.218-.065.292.292,0,0,1-.073-.226v-.357a.292.292,0,0,1,.073-.226.319.319,0,0,1,.218-.065h.324v-1.569a.324.324,0,0,1,.065-.219.293.293,0,0,1,.226-.072h.647a.293.293,0,0,1,.226.072.319.319,0,0,1,.066.219v1.569h.727a.322.322,0,0,1,.219.065.292.292,0,0,1,.072.226v.357a.292.292,0,0,1-.072.226.322.322,0,0,1-.219.065Z" fill="#fff"/>
    </g>
    <g id="그룹_22" data-name="그룹 22">
      <g id="그룹_16" data-name="그룹 16">
        <path id="패스_30" data-name="패스 30" d="M358.766,482.856a8.873,8.873,0,1,1-8.873,8.873,8.873,8.873,0,0,1,8.873-8.873" fill="#fff"/>
      </g>
      <g id="그룹_17" data-name="그룹 17">
        <path id="패스_31" data-name="패스 31" d="M441.792,500.648a17.792,17.792,0,1,1,17.794-17.793,17.792,17.792,0,0,1-17.794,17.793Zm0-28.19a10.4,10.4,0,1,0,10.4,10.4,10.4,10.4,0,0,0-10.4-10.4Z" fill="#ed6e1b"/>
      </g>
      <g id="그룹_18" data-name="그룹 18">
        <path id="패스_32" data-name="패스 32" d="M481.909,500.648A17.792,17.792,0,1,1,499.7,482.856a17.792,17.792,0,0,1-17.791,17.792Zm0-28.19a10.4,10.4,0,1,0,10.4,10.4A10.4,10.4,0,0,0,481.909,472.458Z" fill="#ed6e1b"/>
      </g>
      <g id="그룹_19" data-name="그룹 19">
        <path id="패스_33" data-name="패스 33" d="M411.22,465.064H386.065a2.156,2.156,0,0,0-2.156,2.156v3.833a2.156,2.156,0,0,0,2.156,2.156h23a2.156,2.156,0,0,1,2.156,2.156v4.383a2.155,2.155,0,0,0,2.156,2.155h3.86a2.156,2.156,0,0,0,2.156-2.155V467.22a2.156,2.156,0,0,0-2.156-2.156Z" fill="#fff"/>
      </g>
      <g id="그룹_20" data-name="그룹 20">
        <path id="패스_34" data-name="패스 34" d="M371.129,465.064H345.974a2.156,2.156,0,0,0-2.156,2.156v3.833a2.156,2.156,0,0,0,2.156,2.156h23a2.155,2.155,0,0,1,2.155,2.156v4.383a2.156,2.156,0,0,0,2.156,2.155h3.86a2.155,2.155,0,0,0,2.156-2.155V467.22a2.156,2.156,0,0,0-2.156-2.156Z" fill="#fff"/>
      </g>
      <g id="그룹_21" data-name="그룹 21">
        <path id="패스_35" data-name="패스 35" d="M392.08,500.6h25.156a2.157,2.157,0,0,0,2.156-2.156v-3.833a2.156,2.156,0,0,0-2.156-2.156h-23a2.156,2.156,0,0,1-2.156-2.156v-4.383a2.156,2.156,0,0,0-2.156-2.156h-3.859a2.156,2.156,0,0,0-2.156,2.156v12.528a2.156,2.156,0,0,0,2.156,2.156Z" fill="#fff"/>
      </g>
    </g>
  </g>
</svg>
