<svg xmlns="http://www.w3.org/2000/svg" xmlns:xlink="http://www.w3.org/1999/xlink" width="197.903" height="308" viewBox="0 0 197.903 308">
  <defs>
    <clipPath id="clip-path">
      <rect id="사각형_377" data-name="사각형 377" width="197.903" height="308" fill="none"/>
    </clipPath>
  </defs>
  <g id="그룹_352" data-name="그룹 352" transform="translate(0 0)">
    <g id="그룹_351" data-name="그룹 351" transform="translate(0 0)" clip-path="url(#clip-path)">
      <path id="패스_73" data-name="패스 73" d="M185.7,8.585H156.578a45.581,45.581,0,0,1,4.472,9.52h11.961a4.717,4.717,0,0,1,4.712,4.636V258.623a4.821,4.821,0,0,1-4.712,4.756h-148a4.818,4.818,0,0,1-4.709-4.756V22.741A4.713,4.713,0,0,1,25.007,18.1H36.968a40.094,40.094,0,0,1,4.472-9.52H12.322A12.435,12.435,0,0,0,0,21.03V273.019a12.33,12.33,0,0,0,12.322,12.325H185.7a12.3,12.3,0,0,0,12.2-12.325V21.03A12.412,12.412,0,0,0,185.7,8.585" transform="translate(0 22.655)" fill="#fff"/>
      <path id="패스_74" data-name="패스 74" d="M130.995,51.008c0-12.813-10.269-28.919-22.958-28.919H86.05V15.255a15.164,15.164,0,1,0-30.327,0v6.834H33.615c-12.565,0-22.958,16.106-22.958,28.919Zm-65.243-36a5.075,5.075,0,1,1,10.149,0v7.2a5.075,5.075,0,1,1-10.149,0Z" transform="translate(28.124 0)" fill="#fff"/>
      <rect id="사각형_367" data-name="사각형 367" width="88.198" height="4.516" transform="translate(72.248 205.253)" fill="#fff"/>
      <rect id="사각형_368" data-name="사각형 368" width="88.198" height="4.516" transform="translate(72.248 176.211)" fill="#fff"/>
      <rect id="사각형_369" data-name="사각형 369" width="88.198" height="4.516" transform="translate(72.248 216.844)" fill="#fff"/>
      <rect id="사각형_370" data-name="사각형 370" width="88.198" height="4.516" transform="translate(72.248 164.617)" fill="#fff"/>
      <rect id="사각형_371" data-name="사각형 371" width="88.198" height="4.516" transform="translate(72.248 245.886)" fill="#fff"/>
      <rect id="사각형_372" data-name="사각형 372" width="88.198" height="4.392" transform="translate(72.248 257.604)" fill="#fff"/>
      <path id="패스_75" data-name="패스 75" d="M38.69,30.884,33.374,37.6H9.695v25.87H35.426V42.11l6.648-8.417c-1.088-.855-2.176-1.83-3.384-2.809M30.958,58.951H14.164V41.99H29.749L23.589,49.8c-1.572-1.83-3.02-3.661-4.472-5.368-1.088.852-2.3,1.83-3.381,2.806,2.052,2.442,4.108,5,6.161,7.442a25.058,25.058,0,0,0,1.692,2.074,26.326,26.326,0,0,1,1.692-2.074L30.958,47.6Z" transform="translate(25.585 81.502)" fill="#fff"/>
      <path id="패스_76" data-name="패스 76" d="M38.69,53.251l-5.317,6.59H9.695v25.87H35.426V64.357l6.648-8.3c-1.088-.979-2.176-1.834-3.384-2.809M30.958,81.319H14.164V64.357H29.749l-6.161,7.689c-1.572-1.71-3.02-3.541-4.472-5.371-1.088.975-2.3,1.954-3.381,2.929,2.052,2.442,4.108,4.88,6.161,7.442a25.057,25.057,0,0,0,1.692,2.074,14.169,14.169,0,0,1,1.692-2.074l5.677-7.2Z" transform="translate(25.585 140.528)" fill="#fff"/>
      <path id="패스_77" data-name="패스 77" d="M33.134,71.008H9.695v25.87H35.426V75.644l6.648-8.417L38.69,64.418l-5.317,6.59ZM30.958,92.485H14.164V75.524H29.87l-6.281,7.809-4.472-5.371-3.381,2.809L21.9,88.213l1.692,2.074,1.692-2.074,5.677-7.078Z" transform="translate(25.585 169.998)" fill="#fff"/>
      <path id="패스_78" data-name="패스 78" d="M38.69,42.085l-5.317,6.59H9.695v25.87H35.426V53.191l6.648-8.3a38.129,38.129,0,0,0-3.384-2.806M30.958,70.153H14.164V53.067H29.749l-6.161,7.809c-1.572-1.83-3.02-3.537-4.472-5.368-1.088.975-2.3,1.83-3.381,2.806,2.052,2.562,4.108,5,6.161,7.445a26.922,26.922,0,0,0,1.692,2.194,26.923,26.923,0,0,1,1.692-2.194l5.677-7.078Z" transform="translate(25.585 111.061)" fill="#fff"/>
      <path id="패스_79" data-name="패스 79" d="M38.69,19.718l-5.317,6.714H9.695V52.3H35.426V30.824l6.648-8.3ZM30.958,47.785H14.164V30.824H29.749L23.589,38.51l-4.472-5.368-3.381,2.806L21.9,43.513l1.692,2.074,1.692-2.074,5.677-7.2Z" transform="translate(25.585 52.035)" fill="#fff"/>
      <rect id="사각형_373" data-name="사각형 373" width="88.198" height="4.516" transform="translate(72.248 135.574)" fill="#fff"/>
      <rect id="사각형_374" data-name="사각형 374" width="88.198" height="4.516" transform="translate(72.248 83.344)" fill="#fff"/>
      <rect id="사각형_375" data-name="사각형 375" width="88.198" height="4.516" transform="translate(72.248 123.98)" fill="#fff"/>
      <rect id="사각형_376" data-name="사각형 376" width="88.198" height="4.516" transform="translate(72.248 94.938)" fill="#fff"/>
    </g>
  </g>
</svg>
