<svg id="그룹_352" data-name="그룹 352" xmlns="http://www.w3.org/2000/svg" xmlns:xlink="http://www.w3.org/1999/xlink" width="313" height="175.772" viewBox="0 0 313 175.772">
  <defs>
    <clipPath id="clip-path">
      <rect id="사각형_367" data-name="사각형 367" width="313" height="175.772" fill="none"/>
    </clipPath>
  </defs>
  <g id="그룹_351" data-name="그룹 351" clip-path="url(#clip-path)">
    <path id="패스_73" data-name="패스 73" d="M487.256,484.831v4.3H368.939v-4.3c0-1.832.083-3.648.246-5.438a59.08,59.08,0,0,1,58.161-53.714c.249-.007.5-.007.751-.007s.531,0,.8.007a58.956,58.956,0,0,1,38.579,15q1.261,1.122,2.455,2.318a58.9,58.9,0,0,1,17.082,36.392q.245,2.686.246,5.438" transform="translate(-271.598 -313.362)" fill="#fff"/>
    <path id="패스_74" data-name="패스 74" d="M743.617,423.683v4.3H700.284a64.8,64.8,0,0,0-5.169-16.132A66.383,66.383,0,0,0,677,388.829a64.848,64.848,0,0,0-25.928-12.782,42.455,42.455,0,0,0,12.82-7.842,58.969,58.969,0,0,1,20.57-3.677,59.728,59.728,0,0,1,7.568.479h0a59.088,59.088,0,0,1,51.588,58.676" transform="translate(-479.289 -268.35)" fill="#fff"/>
    <path id="패스_75" data-name="패스 75" d="M928.084,362.53v4.3H884.748a65.683,65.683,0,0,0-49.216-51.943,42.426,42.426,0,0,0,12.823-7.842,59.175,59.175,0,0,1,79.729,55.482" transform="translate(-615.084 -223.329)" fill="#fff"/>
    <path id="패스_76" data-name="패스 76" d="M732.821,97.089A35.974,35.974,0,0,1,686.4,131.48a42.318,42.318,0,0,0-18.463-55.709,35.94,35.94,0,0,1,64.885,21.318" transform="translate(-491.707 -45.012)" fill="#fff"/>
    <path id="패스_77" data-name="패스 77" d="M917.3,35.942a35.965,35.965,0,0,1-46.422,34.391,42.32,42.32,0,0,0-18.46-55.709A35.944,35.944,0,0,1,917.3,35.942" transform="translate(-627.518)" fill="#fff"/>
    <path id="패스_78" data-name="패스 78" d="M92.584,314.9a65.748,65.748,0,0,0-49.238,51.93H0v-4.3a59.192,59.192,0,0,1,79.729-55.482A42.431,42.431,0,0,0,92.584,314.9" transform="translate(0 -223.329)" fill="#fff"/>
    <path id="패스_79" data-name="패스 79" d="M130.262,52.076a42.052,42.052,0,0,0,4.143,18.255,35.947,35.947,0,1,1,18.46-55.709,42.387,42.387,0,0,0-22.6,37.454" transform="translate(-64.77 0.001)" fill="#fff"/>
    <path id="패스_80" data-name="패스 80" d="M528.809,158.243a35.932,35.932,0,0,1-60.706,26.05,36.109,36.109,0,0,1-4.178-4.732,35.862,35.862,0,0,1-7-21.318,35.943,35.943,0,1,1,71.886,0" transform="translate(-336.368 -90.033)" fill="#fff"/>
    <path id="패스_81" data-name="패스 81" d="M277.041,376.061a65.636,65.636,0,0,0-49.229,51.927H184.463v-4.3a59.089,59.089,0,0,1,51.591-58.676h0a59.546,59.546,0,0,1,28.131,3.194,42.405,42.405,0,0,0,12.852,7.859" transform="translate(-135.794 -268.351)" fill="#fff"/>
    <path id="패스_82" data-name="패스 82" d="M314.735,113.221a42.058,42.058,0,0,0,4.143,18.259,35.948,35.948,0,1,1,18.467-55.709,42.373,42.373,0,0,0-22.61,37.45" transform="translate(-200.574 -45.012)" fill="#fff"/>
  </g>
</svg>
