<svg xmlns="http://www.w3.org/2000/svg" width="618.49" height="63" viewBox="0 0 618.49 63">
  <g id="can_only_be" transform="translate(-0.006)">
    <path id="패스_927" data-name="패스 927" d="M69.73,207.626a37.281,37.281,0,0,1-13.246-2.309A32.1,32.1,0,0,1,45.916,198.9a29.512,29.512,0,0,1-6.989-10,33.489,33.489,0,0,1,0-25.345,29.8,29.8,0,0,1,6.989-10,32.1,32.1,0,0,1,10.568-6.477,39.764,39.764,0,0,1,28.182.591,28.406,28.406,0,0,1,11.047,8.448l-10.906,9.856a21.386,21.386,0,0,0-6.51-5.266,16.919,16.919,0,0,0-7.778-1.83,19.232,19.232,0,0,0-6.848,1.211,14.909,14.909,0,0,0-5.326,3.52,16.585,16.585,0,0,0-3.466,5.632,20.853,20.853,0,0,0,0,14.081,16.585,16.585,0,0,0,3.466,5.491,14.909,14.909,0,0,0,5.326,3.52,18.612,18.612,0,0,0,6.848,1.211,16.919,16.919,0,0,0,7.778-1.831,20.909,20.909,0,0,0,6.51-5.351L95.8,196.08a28.462,28.462,0,0,1-11.047,8.448A36.462,36.462,0,0,1,69.73,207.626Z" transform="translate(-36.43 -144.629)" fill="#ed6e1b"/>
    <path id="패스_928" data-name="패스 928" d="M57.25,205.733,83.995,145.16H100.9l26.857,60.573H109.894L88.955,153.552H95.69L74.751,205.733Zm14.626-11.856,4.4-12.56H105.92l4.4,12.56Z" transform="translate(1.413 -143.948)" fill="#ed6e1b"/>
    <path id="패스_929" data-name="패스 929" d="M84,205.733V145.16H98.091l33.339,40.326h-6.736V145.16H141.6v60.573H127.513L93.976,165.407h6.651v40.326Z" transform="translate(49.942 -143.948)" fill="#ed6e1b"/>
    <path id="패스_930" data-name="패스 930" d="M150.218,207.728a37.761,37.761,0,0,1-13.386-2.337,31.792,31.792,0,0,1-10.681-6.618,30.551,30.551,0,0,1-9.61-22.642,30.339,30.339,0,0,1,2.536-12.447A31.273,31.273,0,0,1,136.8,147.068a39.651,39.651,0,0,1,26.829,0,32.159,32.159,0,0,1,10.568,6.59,30.319,30.319,0,0,1,9.61,22.529,30.959,30.959,0,0,1-2.536,12.673,29.175,29.175,0,0,1-7.046,10,32.3,32.3,0,0,1-10.681,6.59,37.7,37.7,0,0,1-13.33,2.281Zm0-14.081a16.638,16.638,0,0,0,6.425-1.211,14.711,14.711,0,0,0,5.214-3.52,16.642,16.642,0,0,0,3.466-5.435,21.163,21.163,0,0,0,0-14.278,16.641,16.641,0,0,0-3.466-5.435,14.712,14.712,0,0,0-5.214-3.52,17.739,17.739,0,0,0-12.879,0,15.078,15.078,0,0,0-5.242,3.52,15.768,15.768,0,0,0-3.466,5.435,21.641,21.641,0,0,0,0,14.278,15.768,15.768,0,0,0,3.466,5.435,15.078,15.078,0,0,0,5.242,3.52,16.921,16.921,0,0,0,6.454,1.1Z" transform="translate(109.028 -144.73)" fill="#ed6e1b"/>
    <path id="패스_931" data-name="패스 931" d="M143.66,205.733V145.16h14.091l33.311,40.326h-6.651V145.16H201.32v60.573H187.229l-33.424-40.326h6.679v40.326Z" transform="translate(158.28 -143.948)" fill="#ed6e1b"/>
    <path id="패스_932" data-name="패스 932" d="M168.42,205.733V145.16h17.135v46.972h28.83v13.6Z" transform="translate(203.249 -143.948)" fill="#ed6e1b"/>
    <path id="패스_933" data-name="패스 933" d="M205.374,205.733V180.107l4,10.307-27.2-45.254h18.177l19.474,32.807H209.46l19.727-32.807h16.627L218.9,190.414l3.72-10.307v25.626Z" transform="translate(228.226 -143.948)" fill="#ed6e1b"/>
    <path id="패스_934" data-name="패스 934" d="M215.23,205.733V145.16h30.831c8.032,0,14.091,1.493,17.924,4.421a13.683,13.683,0,0,1,5.89,11.433,14.241,14.241,0,0,1-2.424,8.195,16.145,16.145,0,0,1-6.933,5.632,26.113,26.113,0,0,1-10.568,2l1.635-4.168a29.441,29.441,0,0,1,11.273,1.943,16.26,16.26,0,0,1,7.44,5.632,15,15,0,0,1,2.649,8.927,14.077,14.077,0,0,1-6.369,12.194c-4.227,2.816-10.456,4.421-18.656,4.421Zm16.909-12.391h14.373a12.408,12.408,0,0,0,6.764-1.492,5.883,5.883,0,0,0,0-9.265,12.154,12.154,0,0,0-6.764-1.521H230.927V169.209h12.992a11.562,11.562,0,0,0,6.482-1.464,4.843,4.843,0,0,0,2.17-4.309,4.955,4.955,0,0,0-2.17-4.478,12.1,12.1,0,0,0-6.482-1.408h-11.78Z" transform="translate(288.2 -143.948)" fill="#ed6e1b"/>
    <path id="패스_935" data-name="패스 935" d="M255.7,192.413h31.7v13.32H238.82V145.16h47.458v13.32H255.7Zm-1.212-23.8h28.182v12.7H254.489Z" transform="translate(331.091 -143.948)" fill="#ed6e1b"/>
  </g>
</svg>
