<svg xmlns="http://www.w3.org/2000/svg" width="318.564" height="64.001" viewBox="0 0 318.564 64.001">
  <g id="click1" transform="translate(0.593 0.454)">
    <path id="패스_962" data-name="패스 962" d="M153.435,283.612a14.622,14.622,0,0,1,5.243-3.442,18.3,18.3,0,0,1,6.741-1.221,16.64,16.64,0,0,1,7.657,1.8,21.477,21.477,0,0,1,6.408,5.19l10.736-9.715a27.744,27.744,0,0,0-10.875-8.327,36.215,36.215,0,0,0-14.786-2.776,36.769,36.769,0,0,0-13.039,2.248,31.208,31.208,0,0,0-10.4,6.412,28.978,28.978,0,0,0-6.88,9.826,33.046,33.046,0,0,0,0,24.981,28.812,28.812,0,0,0,6.88,9.853,31.65,31.65,0,0,0,10.4,6.412,36.766,36.766,0,0,0,13.039,2.248,36.215,36.215,0,0,0,14.786-2.776,28.1,28.1,0,0,0,10.875-8.466l-10.736-9.715a20.7,20.7,0,0,1-6.408,5.3,16.638,16.638,0,0,1-7.657,1.776,18.3,18.3,0,0,1-6.741-1.194,14.62,14.62,0,0,1-5.243-3.442,16.349,16.349,0,0,1-3.412-5.551,20.661,20.661,0,0,1,0-13.878,16.349,16.349,0,0,1,3.412-5.551Z" transform="translate(-131.28 -264.57)" fill="none" stroke="#ed6e1c" stroke-width="2"/>
    <path id="패스_963" data-name="패스 963" d="M41.177.93H24.31V60.607H69.557V47.228H41.177Z" transform="translate(42.272 0.681)" fill="none" stroke="#ed6e1c" stroke-width="2"/>
    <rect id="사각형_1057" data-name="사각형 1057" width="16.867" height="59.677" transform="translate(118.678 1.611)" fill="none" stroke="#ed6e1c" stroke-width="2"/>
    <path id="패스_964" data-name="패스 964" d="M205.313,283.612a14.258,14.258,0,0,1,5.215-3.442,18.3,18.3,0,0,1,6.741-1.221,16.64,16.64,0,0,1,7.685,1.8,21.394,21.394,0,0,1,6.381,5.19l10.736-9.715A27.437,27.437,0,0,0,231.2,267.9a36.215,36.215,0,0,0-14.786-2.776,36.769,36.769,0,0,0-13.039,2.248A30.793,30.793,0,0,0,193,273.786a28.672,28.672,0,0,0-6.908,9.826,33.046,33.046,0,0,0,0,24.981A28.506,28.506,0,0,0,193,318.446a31.233,31.233,0,0,0,10.375,6.412,36.772,36.772,0,0,0,13.039,2.248,36.218,36.218,0,0,0,14.786-2.776,27.911,27.911,0,0,0,10.875-8.466l-10.736-9.715a20.59,20.59,0,0,1-6.381,5.3,16.639,16.639,0,0,1-7.684,1.777,18.3,18.3,0,0,1-6.741-1.194,14.259,14.259,0,0,1-5.215-3.442,15.517,15.517,0,0,1-3.412-5.551,20.216,20.216,0,0,1,0-13.878A15.517,15.517,0,0,1,205.313,283.612Z" transform="translate(-39.197 -264.57)" fill="none" stroke="#ed6e1c" stroke-width="2"/>
    <path id="패스_965" data-name="패스 965" d="M134.363.93h-18.5L92.777,25.717V.93H76.16V60.607H92.777V45.674l6.27-6.717,17.061,21.65h19.614L110.116,27.382Z" transform="translate(134.387 0.681)" fill="none" stroke="#ed6e1c" stroke-width="2"/>
    <path id="패스_966" data-name="패스 966" d="M239.245,280.9a9.988,9.988,0,0,0-6.991,2.5,8.323,8.323,0,0,0-2.774,6.27,8.489,8.489,0,0,0,2.774,6.3,9.627,9.627,0,0,0,6.991,2.774,9.4,9.4,0,0,0,6.935-2.774,8.5,8.5,0,0,0,0-12.567A9.765,9.765,0,0,0,239.245,280.9Z" transform="translate(42.21 -236.558)" fill="none" stroke="#ed6e1c" stroke-width="2"/>
    <path id="패스_967" data-name="패스 967" d="M101.486,38.853h12.872L117.6.93H98.24Z" transform="translate(173.562 0.681)" fill="none" stroke="#ed6e1c" stroke-width="2"/>
    <path id="패스_968" data-name="패스 968" d="M123.638,38.853,126.856.93H107.52l3.246,37.923Z" transform="translate(190.026 0.681)" fill="none" stroke="#ed6e1c" stroke-width="2"/>
    <path id="패스_969" data-name="패스 969" d="M248.546,280.9a9.9,9.9,0,0,0-6.991,2.5,8.156,8.156,0,0,0-2.774,6.27,8.323,8.323,0,0,0,2.774,6.3,9.543,9.543,0,0,0,6.991,2.774,9.4,9.4,0,0,0,6.936-2.774,8.5,8.5,0,0,0,0-12.567A9.766,9.766,0,0,0,248.546,280.9Z" transform="translate(58.71 -236.558)" fill="none" stroke="#ed6e1c" stroke-width="2"/>
  </g>
</svg>
