<svg xmlns="http://www.w3.org/2000/svg" width="317.703" height="63.001" viewBox="0 0 317.703 63.001">
  <g id="click2" transform="translate(0.093 -0.046)">
    <path id="패스_970" data-name="패스 970" d="M153.456,283.612a14.638,14.638,0,0,1,5.248-3.442,18.338,18.338,0,0,1,6.748-1.221,16.669,16.669,0,0,1,7.664,1.8,21.493,21.493,0,0,1,6.415,5.19l10.747-9.715a27.768,27.768,0,0,0-10.885-8.327,36.281,36.281,0,0,0-14.8-2.776,36.837,36.837,0,0,0-13.051,2.248,31.244,31.244,0,0,0-10.413,6.412,28.978,28.978,0,0,0-6.887,9.826,33.016,33.016,0,0,0,0,24.981,28.812,28.812,0,0,0,6.887,9.853,31.687,31.687,0,0,0,10.413,6.412,36.836,36.836,0,0,0,13.051,2.248,36.28,36.28,0,0,0,14.8-2.776,28.128,28.128,0,0,0,10.885-8.466l-10.747-9.715a20.714,20.714,0,0,1-6.415,5.3,16.667,16.667,0,0,1-7.664,1.776,18.335,18.335,0,0,1-6.748-1.193,14.635,14.635,0,0,1-5.248-3.442,16.347,16.347,0,0,1-3.416-5.551,20.642,20.642,0,0,1,0-13.878,16.347,16.347,0,0,1,3.415-5.551Z" transform="translate(-131.28 -264.57)" fill="#ed6e1c" stroke="#ed6e1c" stroke-width="1"/>
    <path id="패스_971" data-name="패스 971" d="M41.194.93H24.31V60.6H69.6V47.227H41.194Z" transform="translate(42.297 0.682)" fill="#ed6e1c" stroke="#ed6e1c" stroke-width="1"/>
    <rect id="사각형_1058" data-name="사각형 1058" width="16.883" height="59.675" transform="translate(118.729 1.612)" fill="#ed6e1c" stroke="#ed6e1c" stroke-width="1"/>
    <path id="패스_972" data-name="패스 972" d="M205.334,283.612a14.272,14.272,0,0,1,5.221-3.442,18.339,18.339,0,0,1,6.748-1.221,16.669,16.669,0,0,1,7.692,1.8,21.41,21.41,0,0,1,6.387,5.19l10.747-9.715a27.462,27.462,0,0,0-10.885-8.327,36.281,36.281,0,0,0-14.8-2.776,36.836,36.836,0,0,0-13.051,2.248A30.827,30.827,0,0,0,193,273.786a28.672,28.672,0,0,0-6.915,9.826,33.016,33.016,0,0,0,0,24.981A28.506,28.506,0,0,0,193,318.446a31.269,31.269,0,0,0,10.386,6.412,36.839,36.839,0,0,0,13.051,2.248,36.282,36.282,0,0,0,14.8-2.776,27.933,27.933,0,0,0,10.885-8.466l-10.747-9.715a20.6,20.6,0,0,1-6.387,5.3,16.667,16.667,0,0,1-7.692,1.777,18.333,18.333,0,0,1-6.748-1.193,14.274,14.274,0,0,1-5.221-3.442,15.516,15.516,0,0,1-3.416-5.551,20.2,20.2,0,0,1,0-13.878A15.514,15.514,0,0,1,205.334,283.612Z" transform="translate(-39.148 -264.57)" fill="#ed6e1c" stroke="#ed6e1c" stroke-width="1"/>
    <path id="패스_973" data-name="패스 973" d="M134.419.93H115.9l-23.1,24.786V.93H76.16V60.6H92.794V45.672l6.276-6.717L116.147,60.6H135.78L110.149,27.381Z" transform="translate(134.428 0.682)" fill="#ed6e1c" stroke="#ed6e1c" stroke-width="1"/>
    <path id="패스_974" data-name="패스 974" d="M239.255,280.9a10,10,0,0,0-7,2.5,8.331,8.331,0,0,0-2.777,6.276,8.5,8.5,0,0,0,2.777,6.3,9.636,9.636,0,0,0,7,2.777,9.414,9.414,0,0,0,6.942-2.777,8.511,8.511,0,0,0,0-12.579A9.775,9.775,0,0,0,239.255,280.9Z" transform="translate(42.311 -236.576)" fill="#ed6e1c" stroke="#ed6e1c" stroke-width="1"/>
    <path id="패스_975" data-name="패스 975" d="M101.489,38.89h12.885L117.623.93H98.24Z" transform="translate(173.662 0.682)" fill="#ed6e1c" stroke="#ed6e1c" stroke-width="1"/>
    <path id="패스_976" data-name="패스 976" d="M123.654,38.89,126.875.93H107.52l3.249,37.96Z" transform="translate(190.152 0.682)" fill="#ed6e1c" stroke="#ed6e1c" stroke-width="1"/>
    <path id="패스_977" data-name="패스 977" d="M248.555,280.9a9.914,9.914,0,0,0-7,2.5,8.164,8.164,0,0,0-2.777,6.276,8.331,8.331,0,0,0,2.777,6.3,9.552,9.552,0,0,0,7,2.777,9.414,9.414,0,0,0,6.942-2.777,8.511,8.511,0,0,0,0-12.579A9.775,9.775,0,0,0,248.555,280.9Z" transform="translate(58.835 -236.576)" fill="#ed6e1c" stroke="#ed6e1c" stroke-width="1"/>
  </g>
</svg>
