<svg xmlns="http://www.w3.org/2000/svg" width="269.728" height="63" viewBox="0 0 269.728 63">
  <g id="items" transform="translate(-0.04 0.006)">
    <path id="패스_922" data-name="패스 922" d="M112,182.4V121.83h16.7V182.4Z" transform="translate(-111.96 -120.623)" fill="#ed6e1b"/>
    <path id="패스_923" data-name="패스 923" d="M138.689,182.4V135.409H120.32V121.83h53.6v13.579H155.61V182.4Z" transform="translate(-97.125 -120.623)" fill="#ed6e1b"/>
    <path id="패스_924" data-name="패스 924" d="M158.551,169.076h31.282V182.4H141.88V121.83h46.84v13.326H158.551Zm-1.2-23.778h27.831V158H157.354Z" transform="translate(-58.681 -120.623)" fill="#ed6e1b"/>
    <path id="패스_925" data-name="패스 925" d="M162.52,182.4V121.83h13.916l24.714,41.189H193.8l24.185-41.189H231.9V182.4H216.345l-.195-36.625h2.783L200.9,176.4h-7.542l-18.369-30.6h3.228V182.43Z" transform="translate(-21.877 -120.623)" fill="#ed6e1b"/>
    <path id="패스_926" data-name="패스 926" d="M215.624,184.376a53.7,53.7,0,0,1-14.222-1.859,37.361,37.361,0,0,1-11.132-4.7l5.566-12.728a38.2,38.2,0,0,0,9.268,4.28,34.2,34.2,0,0,0,10.492,1.69,21.659,21.659,0,0,0,5.566-.591,6.272,6.272,0,0,0,3.061-1.746,3.856,3.856,0,0,0,1-2.675,3.582,3.582,0,0,0-1.892-3.154,18.882,18.882,0,0,0-4.9-2c-2.032-.535-4.23-1.07-6.6-1.549A61.456,61.456,0,0,1,204.6,157.4a27.691,27.691,0,0,1-6.652-3.21,15.077,15.077,0,0,1-4.843-5.181,16.007,16.007,0,0,1-1.837-8.054,17.35,17.35,0,0,1,2.922-9.771,20.276,20.276,0,0,1,8.795-7.1,35.807,35.807,0,0,1,14.695-2.675,50.114,50.114,0,0,1,11.606,1.352,33.17,33.17,0,0,1,10.047,4.027L234.188,139.4a37.141,37.141,0,0,0-8.349-3.548,30.691,30.691,0,0,0-8.127-1.126,16.269,16.269,0,0,0-5.566.788,6.725,6.725,0,0,0-3.089,1.971,4.141,4.141,0,0,0-.946,2.619A3.668,3.668,0,0,0,210,143.347a17,17,0,0,0,4.87,1.887c2,.507,4.2,1.014,6.624,1.521a74.3,74.3,0,0,1,7.236,1.943,29.29,29.29,0,0,1,6.624,3.126,14.492,14.492,0,0,1,6.791,13.01,17.492,17.492,0,0,1-2.95,9.743,20.415,20.415,0,0,1-8.85,7.124,35.586,35.586,0,0,1-14.723,2.675Z" transform="translate(27.604 -121.4)" fill="#ed6e1b"/>
  </g>
</svg>
