<svg xmlns="http://www.w3.org/2000/svg" width="328.839" height="63" viewBox="0 0 328.839 63">
  <g id="see_it" transform="translate(0 0.074)">
    <path id="패스_956" data-name="패스 956" d="M220.9,264.986a55.144,55.144,0,0,1-14.4-1.853,37.831,37.831,0,0,1-11.08-4.689l5.624-12.691a40.7,40.7,0,0,0,9.393,4.268,34.78,34.78,0,0,0,10.574,1.685,20.813,20.813,0,0,0,5.624-.618,6.358,6.358,0,0,0,3.122-1.713,3.955,3.955,0,0,0,.984-2.808,3.509,3.509,0,0,0-1.884-3.145,19.48,19.48,0,0,0-4.978-1.994c-2.053-.533-4.275-1.067-6.665-1.544a68.449,68.449,0,0,1-7.284-1.937,28.76,28.76,0,0,1-6.749-3.2,15.593,15.593,0,0,1-4.865-5.166,15.788,15.788,0,0,1-1.856-8.03,17.052,17.052,0,0,1,2.812-9.743,20.215,20.215,0,0,1,9.027-6.991,36.242,36.242,0,0,1,14.876-2.808,52.582,52.582,0,0,1,11.688,1.317,35.014,35.014,0,0,1,10.163,4.018l-5.174,12.607a35.859,35.859,0,0,0-8.437-3.538,31.711,31.711,0,0,0-8.212-1.123,17.627,17.627,0,0,0-5.624.758,6.976,6.976,0,0,0-3.122,1.994,4.236,4.236,0,0,0-.928,2.583,3.593,3.593,0,0,0,1.884,3.229,16.885,16.885,0,0,0,4.921,1.909l6.693,1.516a68.512,68.512,0,0,1,7.312,1.938,29.688,29.688,0,0,1,6.693,3.089,15.455,15.455,0,0,1,4.978,5.11,14.976,14.976,0,0,1,1.884,7.89,16.829,16.829,0,0,1-2.981,9.687,20.326,20.326,0,0,1-8.943,7.132A36.608,36.608,0,0,1,220.9,264.986Z" transform="translate(-195.42 -202.07)" fill="#ed6e1b"/>
    <path id="패스_957" data-name="패스 957" d="M233.675,249.584h31.609v13.28H216.83V202.5h47.329v13.28H233.675Zm-1.209-23.725h28.122V238.55H232.466Z" transform="translate(-156.73 -201.157)" fill="#ed6e1b"/>
    <path id="패스_958" data-name="패스 958" d="M254.315,249.584h31.609v13.28H237.47V202.5H284.8v13.28H254.315Zm-1.209-23.725h28.122V238.55H253.021Z" transform="translate(-119.432 -201.157)" fill="#ed6e1b"/>
    <path id="패스_959" data-name="패스 959" d="M267.05,262.864V202.5h17.1v60.364Z" transform="translate(-65.942 -201.157)" fill="#ed6e1b"/>
    <path id="패스_960" data-name="패스 960" d="M293.96,262.864V216.033H275.4V202.5h54.162v13.533h-18.5v46.832Z" transform="translate(-50.898 -201.157)" fill="#ed6e1b"/>
    <path id="패스_961" data-name="패스 961" d="M314.266,241.766a13.011,13.011,0,0,1,.9-5,17.009,17.009,0,0,1,2.306-3.931,23.34,23.34,0,0,1,2.981-3.229l2.981-2.808a15.475,15.475,0,0,0,2.278-2.808,5.61,5.61,0,0,0,.9-2.976A4.687,4.687,0,0,0,324.5,217a9.178,9.178,0,0,0-5.484-1.516,12.219,12.219,0,0,0-6.271,1.629,12.843,12.843,0,0,0-4.528,4.492l-12.88-6.823a25.63,25.63,0,0,1,9.758-9.266,32.776,32.776,0,0,1,16-3.482,34.27,34.27,0,0,1,11.727,1.853,18.026,18.026,0,0,1,8.043,5.616,13.547,13.547,0,0,1,2.812,8.873,15.562,15.562,0,0,1-.984,5.868,14.232,14.232,0,0,1-2.812,4.408c-1.125,1.263-2.278,2.415-3.4,3.482s-2.306,2.078-3.431,3.061a14.581,14.581,0,0,0-2.672,3.033,6.339,6.339,0,0,0-.984,3.538Zm7.677,22.771a9.541,9.541,0,0,1-7.031-2.808,8.6,8.6,0,0,1,0-12.719,9.908,9.908,0,0,1,7.03-2.527,10.106,10.106,0,0,1,7.143,2.527,8.418,8.418,0,0,1,2.812,6.346,8.642,8.642,0,0,1-2.812,6.374,9.711,9.711,0,0,1-7.143,2.808Z" transform="translate(-14.856 -202.042)" fill="#ed6e1b"/>
  </g>
</svg>
