<svg xmlns="http://www.w3.org/2000/svg" width="353.725" height="64.001" viewBox="0 0 353.725 64.001">
  <g id="seen_in" transform="translate(0.608 0.534)">
    <path id="패스_936" data-name="패스 936" d="M182.99,253.049a29.424,29.424,0,0,0-6.8-3.039c-2.456-.774-4.941-1.409-7.425-1.934s-4.741-.995-6.8-1.464a18.24,18.24,0,0,1-5-1.879,3.547,3.547,0,0,1-1.913-3.178,3.955,3.955,0,0,1,.943-2.542,7.113,7.113,0,0,1,3.17-1.962,18.348,18.348,0,0,1,5.712-.774,34.493,34.493,0,0,1,8.339,1.105,39.619,39.619,0,0,1,8.567,3.482l5.255-12.379a35.415,35.415,0,0,0-10.31-3.951,53.405,53.405,0,0,0-11.88-1.326,37.572,37.572,0,0,0-15.079,2.763,20.347,20.347,0,0,0-9.053,6.963,16.4,16.4,0,0,0-2.856,9.588,15.038,15.038,0,0,0,1.885,7.875,15.356,15.356,0,0,0,4.941,5.112,28.462,28.462,0,0,0,6.883,3.067,64.921,64.921,0,0,0,7.4,1.907c2.427.5,4.684.995,6.768,1.547a19.776,19.776,0,0,1,5.055,1.934,3.468,3.468,0,0,1,1.913,3.095,3.9,3.9,0,0,1-1,2.763,6.75,6.75,0,0,1-3.17,1.685,22.992,22.992,0,0,1-5.712.608,36.352,36.352,0,0,1-10.738-1.658,41.973,41.973,0,0,1-9.538-4.2l-5.712,12.462a38.316,38.316,0,0,0,11.252,4.642,57.687,57.687,0,0,0,14.622,1.824,37.807,37.807,0,0,0,15.164-2.763,20.291,20.291,0,0,0,9.081-6.991,16.364,16.364,0,0,0,3.027-9.561,14.5,14.5,0,0,0-1.913-7.764,15.357,15.357,0,0,0-5.083-5.057Z" transform="translate(-136.17 -222.73)" fill="none" stroke="#ed6e1c" stroke-miterlimit="10" stroke-width="2"/>
    <path id="패스_937" data-name="패스 937" d="M39.146,36.357H66.42V23.886H39.146V13.981H70.1V.93H22.04V60.251H71.246V47.2h-32.1Z" transform="translate(37.369 0.861)" fill="none" stroke="#ed6e1c" stroke-miterlimit="10" stroke-width="2"/>
    <path id="패스_938" data-name="패스 938" d="M59.786,36.357H87.06V23.886H59.786V13.981H90.744V.93H42.68V60.251H91.886V47.2h-32.1Z" transform="translate(73.461 0.861)" fill="none" stroke="#ed6e1c" stroke-miterlimit="10" stroke-width="2"/>
    <path id="패스_939" data-name="패스 939" d="M104.644,32.522,77.628.93H63.32V60.251H80.255V28.632l27.1,31.62h14.308V.93H104.644Z" transform="translate(109.351 0.861)" fill="none" stroke="#ed6e1c" stroke-miterlimit="10" stroke-width="2"/>
    <rect id="사각형_1056" data-name="사각형 1056" width="17.363" height="59.321" transform="translate(266.453 1.791)" fill="none" stroke="#ed6e1c" stroke-miterlimit="10" stroke-width="2"/>
    <path id="패스_940" data-name="패스 940" d="M148.754.93V32.522L121.738.93H107.43V60.251h16.935V28.632l27.1,31.62h14.308V.93Z" transform="translate(186.342 0.861)" fill="none" stroke="#ed6e1c" stroke-miterlimit="10" stroke-width="2"/>
  </g>
</svg>
