<svg xmlns="http://www.w3.org/2000/svg" width="501.685" height="65.008" viewBox="0 0 501.685 65.008">
  <g id="sensuous" transform="translate(0.6 0.536)">
    <path id="패스_914" data-name="패스 914" d="M220.431,261.873a29.333,29.333,0,0,0-6.686-3.105,73.547,73.547,0,0,0-7.3-1.927c-2.47-.535-4.7-1.017-6.713-1.526a16.919,16.919,0,0,1-4.914-1.9,3.532,3.532,0,0,1-1.906-3.212,4.035,4.035,0,0,1,.94-2.677,6.716,6.716,0,0,1,3.115-1.981,17.449,17.449,0,0,1,5.692-.776,31.9,31.9,0,0,1,8.216,1.124,37.2,37.2,0,0,1,8.565,3.534l5.182-12.582a34.483,34.483,0,0,0-10.15-4.015,51.993,51.993,0,0,0-11.707-1.339,36.667,36.667,0,0,0-14.875,2.677,20.556,20.556,0,0,0-8.914,7.067,17.176,17.176,0,0,0-2.927,9.744,15.7,15.7,0,0,0,1.853,8.031,15.385,15.385,0,0,0,4.887,5.193,28.391,28.391,0,0,0,6.739,3.186,65.6,65.6,0,0,0,7.3,1.927c2.39.482,4.618,1.017,6.659,1.553a18.558,18.558,0,0,1,4.967,1.981,3.559,3.559,0,0,1,1.906,3.159,3.8,3.8,0,0,1-.993,2.677,6.4,6.4,0,0,1-3.115,1.74,21.976,21.976,0,0,1-5.746.589,35.6,35.6,0,0,1-10.579-1.66,39.393,39.393,0,0,1-9.4-4.283L175,287.76a37.143,37.143,0,0,0,11.116,4.711,55.072,55.072,0,0,0,14.392,1.847,36.455,36.455,0,0,0,14.956-2.677,20.476,20.476,0,0,0,8.941-7.094,17.123,17.123,0,0,0,2.98-9.717,15.061,15.061,0,0,0-1.906-7.87,15.282,15.282,0,0,0-5.048-5.086Z" transform="translate(-174.34 -231.01)" fill="none" stroke="#ed6e1c" stroke-miterlimit="10" stroke-width="2"/>
    <path id="패스_915" data-name="패스 915" d="M39.905,36.977H66.783V24.317H39.905V14.226H70.435V.95H23.07V61.281H71.562V48H39.905Z" transform="translate(37.762 0.819)" fill="none" stroke="#ed6e1c" stroke-miterlimit="10" stroke-width="2"/>
    <path id="패스_916" data-name="패스 916" d="M85.406,33.069,58.8.95H44.7V61.281H61.374V29.135L88.091,61.281h14.1V.95H85.406Z" transform="translate(73.807 0.819)" fill="none" stroke="#ed6e1c" stroke-miterlimit="10" stroke-width="2"/>
    <path id="패스_917" data-name="패스 917" d="M288.976,261.873a29.331,29.331,0,0,0-6.686-3.105,73.557,73.557,0,0,0-7.3-1.927c-2.47-.535-4.7-1.017-6.713-1.526a16.92,16.92,0,0,1-4.914-1.9,3.532,3.532,0,0,1-1.906-3.212,4.035,4.035,0,0,1,.94-2.677,6.715,6.715,0,0,1,3.115-1.981,17.5,17.5,0,0,1,5.719-.776,31.88,31.88,0,0,1,8.055,1.124,37.2,37.2,0,0,1,8.565,3.534l5.182-12.582a34.484,34.484,0,0,0-10.15-4.015,51.994,51.994,0,0,0-11.707-1.339,36.668,36.668,0,0,0-14.875,2.677,20.557,20.557,0,0,0-8.914,7.067,17.176,17.176,0,0,0-2.927,9.744,15.7,15.7,0,0,0,1.853,8.031A15.383,15.383,0,0,0,251.2,264.2a28.391,28.391,0,0,0,6.74,3.186,65.614,65.614,0,0,0,7.3,1.927c2.39.482,4.618,1.017,6.659,1.553a18.557,18.557,0,0,1,4.967,1.981,3.559,3.559,0,0,1,1.906,3.159,3.794,3.794,0,0,1-.994,2.677,6.4,6.4,0,0,1-3.115,1.74,21.976,21.976,0,0,1-5.746.589,35.6,35.6,0,0,1-10.579-1.66,39.4,39.4,0,0,1-9.4-4.283l-5.612,12.662a37.142,37.142,0,0,0,11.116,4.711,55.065,55.065,0,0,0,14.392,1.847,36.454,36.454,0,0,0,14.956-2.677,20.477,20.477,0,0,0,8.941-7.094,17.122,17.122,0,0,0,2.98-9.717,15.06,15.06,0,0,0-1.906-7.87,15.277,15.277,0,0,0-4.833-5.059Z" transform="translate(-59.818 -231.01)" fill="none" stroke="#ed6e1c" stroke-miterlimit="10" stroke-width="2"/>
    <path id="패스_918" data-name="패스 918" d="M305.476,264.9a16.532,16.532,0,0,1-2.98,11.055,12.137,12.137,0,0,1-16.728,0,16.371,16.371,0,0,1-3.034-11.055V232h-17.1v33.54c0,8.887,2.47,15.793,7.464,20.665s11.949,7.334,20.89,7.334a28.677,28.677,0,0,0,20.863-7.334c5.048-4.872,7.572-11.778,7.572-20.665V232H305.476Z" transform="translate(-22.45 -230.124)" fill="none" stroke="#ed6e1c" stroke-miterlimit="10" stroke-width="2"/>
    <path id="패스_919" data-name="패스 919" d="M347.613,240.4a31.725,31.725,0,0,0-10.606-6.559,39.717,39.717,0,0,0-26.851,0,31.376,31.376,0,0,0-17.695,16.543,31.767,31.767,0,0,0,0,24.949,30.7,30.7,0,0,0,7.062,10.012,31.35,31.35,0,0,0,10.74,6.585,39.637,39.637,0,0,0,26.851,0,32.077,32.077,0,0,0,10.74-6.559,29.446,29.446,0,0,0,7.035-9.931,30.893,30.893,0,0,0,2.524-12.635A30.019,30.019,0,0,0,347.8,240.4Zm-8.941,29.607a16.912,16.912,0,0,1-3.437,5.354,14.959,14.959,0,0,1-5.209,3.48,17.772,17.772,0,0,1-12.861,0,15.306,15.306,0,0,1-5.236-3.48,15.71,15.71,0,0,1-3.464-5.354,21.515,21.515,0,0,1,0-14.214,15.521,15.521,0,0,1,8.7-8.941,17.772,17.772,0,0,1,12.862,0,15.04,15.04,0,0,1,5.209,3.507,16.621,16.621,0,0,1,3.437,5.354,20.634,20.634,0,0,1,0,14.215Z" transform="translate(18.214 -230.955)" fill="none" stroke="#ed6e1c" stroke-miterlimit="10" stroke-width="2"/>
    <path id="패스_920" data-name="패스 920" d="M358.006,264.9a16.531,16.531,0,0,1-2.98,11.055,12.137,12.137,0,0,1-16.728,0,16.372,16.372,0,0,1-3.034-11.055V232h-17.1v33.54c0,8.887,2.47,15.793,7.465,20.665s11.949,7.334,20.863,7.334a28.7,28.7,0,0,0,20.89-7.334c5.048-4.872,7.572-11.778,7.572-20.665V232H358.006Z" transform="translate(65.383 -230.124)" fill="none" stroke="#ed6e1c" stroke-miterlimit="10" stroke-width="2"/>
    <path id="패스_921" data-name="패스 921" d="M392.529,266.959a15.282,15.282,0,0,0-4.967-5.086,29.331,29.331,0,0,0-6.686-3.105,71.672,71.672,0,0,0-7.3-1.927c-2.443-.536-4.7-1.017-6.713-1.526a16.919,16.919,0,0,1-4.914-1.9,3.532,3.532,0,0,1-1.906-3.212,4.169,4.169,0,0,1,.94-2.677,6.715,6.715,0,0,1,3.115-1.981,17.636,17.636,0,0,1,5.719-.776,32.314,32.314,0,0,1,8.216,1.124,37.032,37.032,0,0,1,8.539,3.533l5.182-12.582a34.483,34.483,0,0,0-10.15-4.015,51.992,51.992,0,0,0-11.707-1.338,36.669,36.669,0,0,0-14.875,2.677,20.316,20.316,0,0,0-8.888,7.067,17.2,17.2,0,0,0-2.954,9.744,14.71,14.71,0,0,0,6.74,13.2,28.39,28.39,0,0,0,6.74,3.186,67.316,67.316,0,0,0,7.3,1.927c2.39.482,4.618,1.017,6.659,1.553a18.554,18.554,0,0,1,4.967,1.981,3.505,3.505,0,0,1,1.906,3.159,3.794,3.794,0,0,1-.993,2.677,6.4,6.4,0,0,1-3.115,1.74,21.836,21.836,0,0,1-5.746.589,35.594,35.594,0,0,1-10.579-1.66,39.393,39.393,0,0,1-9.4-4.283l-5.612,12.662a37.142,37.142,0,0,0,11.116,4.711,55.231,55.231,0,0,0,14.392,1.847,36.455,36.455,0,0,0,14.956-2.677,20.477,20.477,0,0,0,8.941-7.094,17.122,17.122,0,0,0,2.98-9.717,14.794,14.794,0,0,0-1.907-7.817Z" transform="translate(105.639 -231.01)" fill="none" stroke="#ed6e1c" stroke-miterlimit="10" stroke-width="2"/>
  </g>
</svg>
