<svg xmlns="http://www.w3.org/2000/svg" width="678.433" height="65.03" viewBox="0 0 678.433 65.03">
  <g id="space_u_yeon" transform="translate(0.706 0.507)">
    <path id="패스_941" data-name="패스 941" d="M222.451,313.215a29.718,29.718,0,0,0-6.7-3.1,68.576,68.576,0,0,0-7.324-1.943l-6.7-1.521a16.511,16.511,0,0,1-4.929-1.915,3.6,3.6,0,0,1-1.915-3.238,4.279,4.279,0,0,1,.958-2.591,6.987,6.987,0,0,1,3.127-2,17.638,17.638,0,0,1,5.634-.76,31.363,31.363,0,0,1,8.2,1.126,34.959,34.959,0,0,1,8.45,3.548l5.211-12.643a35.358,35.358,0,0,0-10.169-4.027,52.637,52.637,0,0,0-11.718-1.324,36.263,36.263,0,0,0-14.9,2.675,20.083,20.083,0,0,0-8.9,7.1,17.145,17.145,0,0,0-2.958,9.771,15.567,15.567,0,0,0,1.887,8.053,15.067,15.067,0,0,0,4.873,5.181,28.794,28.794,0,0,0,6.76,3.21c2.479.788,4.9,1.436,7.3,1.943s4.62,1.014,6.676,1.549a19.241,19.241,0,0,1,4.958,2,3.548,3.548,0,0,1,1.915,3.154,3.97,3.97,0,0,1-.986,2.675,6.366,6.366,0,0,1-3.127,1.718,20.828,20.828,0,0,1-5.634.619,35,35,0,0,1-10.619-1.689,40.514,40.514,0,0,1-9.38-4.28l-5.634,12.728a38.058,38.058,0,0,0,11.267,4.7,55.169,55.169,0,0,0,14.422,1.858,36.628,36.628,0,0,0,14.957-2.675,20.673,20.673,0,0,0,8.957-7.152,16.89,16.89,0,0,0,2.986-9.715,15.033,15.033,0,0,0-1.916-7.912,15.687,15.687,0,0,0-5.014-5.125Z" transform="translate(-176.23 -282.32)" fill="none" stroke="#ed6e1c" stroke-width="2"/>
    <path id="패스_942" data-name="패스 942" d="M249.536,293.726a20.5,20.5,0,0,0-9.324-7.744,34.968,34.968,0,0,0-14.366-2.675H198.27v60.54H215.4V328.023h10.45a34.519,34.519,0,0,0,14.366-2.816,21.124,21.124,0,0,0,9.324-7.687,23.617,23.617,0,0,0,0-23.878ZM232.86,312.142a12.144,12.144,0,0,1-8.028,2.309H215.4V296.542h9.436a11.834,11.834,0,0,1,8.028,2.365,8.164,8.164,0,0,1,2.676,6.448A8.052,8.052,0,0,1,232.86,312Z" transform="translate(-137.205 -281.443)" fill="none" stroke="#ed6e1c" stroke-width="2"/>
    <path id="패스_943" data-name="패스 943" d="M243.642,283.25,216.91,343.79H234.4l4.76-11.854h25.6l4.76,11.854h17.83l-26.844-60.54Zm.535,36.155,7.774-19.373,7.774,19.373Z" transform="translate(-103.383 -281.526)" fill="none" stroke="#ed6e1c" stroke-width="2"/>
    <path id="패스_944" data-name="패스 944" d="M264.142,301.668a14.365,14.365,0,0,1,5.324-3.492,18.511,18.511,0,0,1,6.845-1.239,16.906,16.906,0,0,1,7.774,1.83,21.377,21.377,0,0,1,6.479,5.266l10.9-9.855a27.971,27.971,0,0,0-11.014-8.448,39.956,39.956,0,0,0-28.168-.619,31.409,31.409,0,0,0-10.563,6.5,29.875,29.875,0,0,0-7.014,9.968,33.5,33.5,0,0,0,0,25.343,29.708,29.708,0,0,0,7.014,10,31.86,31.86,0,0,0,10.563,6.5,39.758,39.758,0,0,0,28.168-.648,28.449,28.449,0,0,0,11.014-8.588l-10.9-9.855a20.591,20.591,0,0,1-6.479,5.378,16.906,16.906,0,0,1-7.774,1.8,18.514,18.514,0,0,1-6.845-1.211,14.367,14.367,0,0,1-5.324-3.492,16.586,16.586,0,0,1-3.465-5.632,20.943,20.943,0,0,1,0-14.079,16.585,16.585,0,0,1,3.465-5.435Z" transform="translate(-57.433 -282.261)" fill="none" stroke="#ed6e1c" stroke-width="2"/>
    <path id="패스_945" data-name="패스 945" d="M106.643,37.085h26.9V24.357h-26.9V14.249h30.534V.93H89.77V61.47H138.3V48.151H106.643Z" transform="translate(161.984 0.794)" fill="none" stroke="#ed6e1c" stroke-width="2"/>
    <path id="패스_946" data-name="패스 946" d="M335.286,316.336A16.58,16.58,0,0,1,332.3,327.4a12.087,12.087,0,0,1-16.76,0,16.412,16.412,0,0,1-3.014-11.066V283.25H295.4V316.9q0,13.4,7.465,20.753a33.388,33.388,0,0,0,41.8,0q7.577-7.349,7.577-20.752V283.25h-16.9Z" transform="translate(39.136 -281.526)" fill="none" stroke="#ed6e1c" stroke-width="2"/>
    <path id="패스_947" data-name="패스 947" d="M196.51.93,182.06,25.005,167.778.93H149.61l23.182,38.6V61.47h17.126V39.929L213.1.93Z" transform="translate(270.635 0.794)" fill="none" stroke="#ed6e1c" stroke-width="2"/>
    <path id="패스_948" data-name="패스 948" d="M190.5,37.085h26.9V24.357H190.5V14.249h30.534V.93H173.63V61.47h48.534V48.151H190.5Z" transform="translate(314.254 0.794)" fill="none" stroke="#ed6e1c" stroke-width="2"/>
    <path id="패스_949" data-name="패스 949" d="M427.077,291.738a31.522,31.522,0,0,0-10.647-6.561,39.617,39.617,0,0,0-26.816,0,31.149,31.149,0,0,0-17.69,16.585,31.353,31.353,0,0,0,7.042,35,31.467,31.467,0,0,0,10.7,6.617,39.448,39.448,0,0,0,26.76,0,32.34,32.34,0,0,0,10.7-6.561,30.1,30.1,0,0,0,7.042-10,30.963,30.963,0,0,0,2.507-12.671,30.068,30.068,0,0,0-9.605-22.527Zm-8.957,29.707a16.25,16.25,0,0,1-3.436,5.463,14.9,14.9,0,0,1-5.211,3.492,17.78,17.78,0,0,1-12.9,0,15.462,15.462,0,0,1-8.676-8.954,19.481,19.481,0,0,1-1.211-7.124,19.7,19.7,0,0,1,1.211-7.152,15.518,15.518,0,0,1,8.676-8.926,17.414,17.414,0,0,1,12.9,0,14.9,14.9,0,0,1,5.211,3.492,16.388,16.388,0,0,1,3.436,5.434,19.144,19.144,0,0,1,1.268,7.152,18.887,18.887,0,0,1-1.268,7.068Z" transform="translate(173.398 -282.272)" fill="none" stroke="#ed6e1c" stroke-width="2"/>
    <path id="패스_950" data-name="패스 950" d="M261.019.93V33.171L234.372.93H220.26V61.47h16.7V29.2L263.7,61.47h14.112V.93Z" transform="translate(398.919 0.794)" fill="none" stroke="#ed6e1c" stroke-width="2"/>
  </g>
</svg>
