<svg xmlns="http://www.w3.org/2000/svg" width="297.898" height="63" viewBox="0 0 297.898 63">
  <g id="store" transform="translate(-0.02 0.104)">
    <path id="패스_951" data-name="패스 951" d="M226.308,264.961a54.744,54.744,0,0,1-14.336-1.851,37.293,37.293,0,0,1-11.032-4.683l5.6-12.675a40.235,40.235,0,0,0,9.324,4.262A34.727,34.727,0,0,0,226.42,251.7a20.661,20.661,0,0,0,5.6-.617,6.325,6.325,0,0,0,3.108-1.711,3.958,3.958,0,0,0,.98-2.8,3.534,3.534,0,0,0-1.9-3.141,19.109,19.109,0,0,0-4.928-1.991c-2.044-.533-4.256-1.066-6.636-1.542a67.977,67.977,0,0,1-7.252-1.935,28.6,28.6,0,0,1-6.72-3.2,15.274,15.274,0,0,1-4.844-5.16,15.526,15.526,0,0,1-1.876-8.02,17.1,17.1,0,0,1,2.94-9.731,19.97,19.97,0,0,1,8.848-7.067,35.988,35.988,0,0,1,14.812-2.8,52.2,52.2,0,0,1,11.637,1.316A35.113,35.113,0,0,1,250.3,207.3l-5.18,12.591a34.719,34.719,0,0,0-8.4-3.533,31.118,31.118,0,0,0-8.148-1.122,17.5,17.5,0,0,0-5.6.757,6.944,6.944,0,0,0-3.108,1.991,4.266,4.266,0,0,0-.952,2.58,3.59,3.59,0,0,0,1.9,3.225,16.393,16.393,0,0,0,4.9,1.907l6.664,1.514a68.057,68.057,0,0,1,7.28,1.935,29.524,29.524,0,0,1,6.664,3.085,15.609,15.609,0,0,1,4.928,5.1,14.994,14.994,0,0,1,1.9,7.88,16.844,16.844,0,0,1-2.968,9.675,20.557,20.557,0,0,1-8.9,7.123,36.351,36.351,0,0,1-14.98,2.945Z" transform="translate(-200.92 -202.07)" fill="#ed6e1b"/>
    <path id="패스_952" data-name="패스 952" d="M238.368,262.8V216.018H220V202.5h53.928v13.518h-18.4V262.8Z" transform="translate(-166.512 -201.109)" fill="#ed6e1b"/>
    <path id="패스_953" data-name="패스 953" d="M273.512,264.775a37.555,37.555,0,0,1-13.3-2.328A30.82,30.82,0,0,1,242.6,245.874a30.3,30.3,0,0,1-2.548-12.535,29.961,29.961,0,0,1,2.548-12.423,30.987,30.987,0,0,1,7-9.927,30.6,30.6,0,0,1,10.584-6.59,39.312,39.312,0,0,1,26.656,0,31.6,31.6,0,0,1,10.584,6.534,30.566,30.566,0,0,1,7,9.9,30.186,30.186,0,0,1,2.548,12.507,31.42,31.42,0,0,1-2.492,12.619,30.061,30.061,0,0,1-7.028,9.955,31.747,31.747,0,0,1-10.612,6.534,37.274,37.274,0,0,1-13.328,2.327Zm0-14.022a16.777,16.777,0,0,0,6.412-1.206,14.7,14.7,0,0,0,5.152-3.477,16.828,16.828,0,0,0,3.444-5.44,18.841,18.841,0,0,0,1.26-7.095,19.093,19.093,0,0,0-1.26-7.123A16.827,16.827,0,0,0,285.076,221a14.7,14.7,0,0,0-5.152-3.477,17.28,17.28,0,0,0-12.824,0A15.173,15.173,0,0,0,261.892,221a15.959,15.959,0,0,0-3.444,5.412,20.3,20.3,0,0,0-1.2,7.123,20.052,20.052,0,0,0,1.2,7.095,15.821,15.821,0,0,0,3.444,5.44,15.176,15.176,0,0,0,5.208,3.477,16.777,16.777,0,0,0,6.412,1.094Z" transform="translate(-130.308 -201.884)" fill="#ed6e1b"/>
    <path id="패스_954" data-name="패스 954" d="M267.2,262.8v-60.3h27.44a34.7,34.7,0,0,1,14.28,2.664,20.168,20.168,0,0,1,9.24,7.712,21.479,21.479,0,0,1,3.248,11.835,21.171,21.171,0,0,1-3.248,11.891,20.194,20.194,0,0,1-9.24,7.544,35.677,35.677,0,0,1-14.28,2.636H276.58l7.672-7.236V262.8Zm17.052-21.286-7.672-7.909H293.6a11.915,11.915,0,0,0,8.008-2.328,9.265,9.265,0,0,0,0-12.985,11.775,11.775,0,0,0-8.008-2.356H276.58l7.672-7.853Zm20.1,21.286L289.4,240.845h18.144L322.64,262.8Z" transform="translate(-81.304 -201.117)" fill="#ed6e1b"/>
    <path id="패스_955" data-name="패스 955" d="M306.712,249.531h31.472V262.8H289.94V202.5h47.124v13.265H306.712Zm-1.2-23.7h28v12.676h-28Z" transform="translate(-40.265 -201.109)" fill="#ed6e1b"/>
  </g>
</svg>
