<svg xmlns="http://www.w3.org/2000/svg" width="297.946" height="97.736" viewBox="0 0 297.946 97.736">
  <g id="그룹_743" data-name="그룹 743" transform="translate(-139.36 -231.251)">
    <path id="패스_1021" data-name="패스 1021" d="M183.156,232.251l-42.261,95.736h27.627l7.52-18.737h40.489l7.517,18.737h28.174l-42.4-95.736ZM184,289.419l12.283-30.611,12.286,30.611Z" transform="translate(0 0)" fill="none" stroke="#ed6e1b" stroke-width="2"/>
    <path id="패스_1022" data-name="패스 1022" d="M259.524,286.409q5.127-7.8,5.127-18.873a34.1,34.1,0,0,0-5.127-18.806,32.609,32.609,0,0,0-14.7-12.239q-9.576-4.239-22.705-4.241H178.489v95.736h27.079v-25.44h14.647l17.357,25.44h28.994l-20.689-30.149A32.326,32.326,0,0,0,259.524,286.409Zm-26.329-29.061a12.929,12.929,0,0,1,4.241,10.188q0,6.7-4.241,10.394t-12.717,3.693h-14.91V253.586h14.91Q228.957,253.586,233.195,257.349Z" transform="translate(81.389 0)" fill="none" stroke="#ed6e1b" stroke-width="2"/>
    <path id="패스_1023" data-name="패스 1023" d="M207.14,232.251v21.473h29.4v74.263h27.08V253.724h29.268V232.251Z" transform="translate(143.416 0)" fill="none" stroke="#ed6e1b" stroke-width="2"/>
  </g>
</svg>
