<svg xmlns="http://www.w3.org/2000/svg" width="802.462" height="97.235" viewBox="0 0 802.462 97.235">
  <g id="그룹_744" data-name="그룹 744" transform="translate(-162.068 -287.146)">
    <path id="패스_1024" data-name="패스 1024" d="M188.578,343.432h40.683V324.2H188.578V308.9h46.178V288.751H163.068v91.572h73.389V360.177H188.578Z" transform="translate(0 1.227)" fill="none" stroke="#ed6e1b" stroke-width="2"/>
    <path id="패스_1025" data-name="패스 1025" d="M283.535,288.751H255.672l-18.086,26.494L219.3,288.751H190.132l31.947,45.1-33.385,46.477h29.565l18.688-28.33,18.987,28.33H285.76L251.78,332.97Z" transform="translate(51.95 1.227)" fill="none" stroke="#ed6e1b" stroke-width="2"/>
    <path id="패스_1026" data-name="패스 1026" d="M283.88,323.157H248.69V288.751h-25.9v91.572h25.9V344.611H283.88v35.712h25.9V288.751h-25.9Z" transform="translate(121.069 1.227)" fill="none" stroke="#ed6e1b" stroke-width="2"/>
    <rect id="사각형_1062" data-name="사각형 1062" width="25.902" height="91.572" transform="translate(449.295 289.977)" fill="none" stroke="#ed6e1b" stroke-width="2"/>
    <path id="패스_1027" data-name="패스 1027" d="M344.019,333.164c-.521-.212-1.087-.366-1.626-.554a23.441,23.441,0,0,0,8.755-7.493,21.487,21.487,0,0,0,3.66-12.427q0-10.594-8.891-17.268t-27.082-6.672H272.267v91.572h49.187q18.572,0,28.19-6.672a21.233,21.233,0,0,0,9.618-18.445,22.7,22.7,0,0,0-3.99-13.474A24.822,24.822,0,0,0,344.019,333.164Zm-28.453-25.7q6.539,0,9.811,2.158t3.272,6.736a7.408,7.408,0,0,1-3.272,6.542q-3.269,2.225-9.811,2.222H297.775V307.459Zm14.128,51.866q-3.4,2.293-10.2,2.292H297.775V343.042h21.718q6.8,0,10.2,2.286a8.9,8.9,0,0,1,0,14Z" transform="translate(221.376 1.227)" fill="none" stroke="#ed6e1b" stroke-width="2"/>
    <rect id="사각형_1063" data-name="사각형 1063" width="25.9" height="91.572" transform="translate(594.109 289.977)" fill="none" stroke="#ed6e1b" stroke-width="2"/>
    <path id="패스_1028" data-name="패스 1028" d="M317.207,309.29h28.126v71.033h25.9V309.29h28V288.751H317.207Z" transform="translate(312.481 1.227)" fill="none" stroke="#ed6e1b" stroke-width="2"/>
    <rect id="사각형_1064" data-name="사각형 1064" width="25.9" height="91.572" transform="translate(721.523 289.977)" fill="none" stroke="#ed6e1b" stroke-width="2"/>
    <path id="패스_1029" data-name="패스 1029" d="M447.847,301.62a48.113,48.113,0,0,0-16.09-9.942,59.955,59.955,0,0,0-40.553,0A47.135,47.135,0,0,0,364.452,316.8a45.619,45.619,0,0,0-3.86,18.839,46.409,46.409,0,0,0,3.86,19.032,46.829,46.829,0,0,0,26.819,25.181,59.763,59.763,0,0,0,40.487,0,48.739,48.739,0,0,0,16.156-9.941A45.12,45.12,0,0,0,458.576,354.8a47.444,47.444,0,0,0,3.793-19.163,46.019,46.019,0,0,0-3.86-18.972A46.594,46.594,0,0,0,447.847,301.62Zm-13.541,44.934a25.042,25.042,0,0,1-5.231,8.243,22.485,22.485,0,0,1-7.85,5.3,26.84,26.84,0,0,1-19.489,0,23.117,23.117,0,0,1-7.916-5.3,23.7,23.7,0,0,1-5.231-8.243,32.655,32.655,0,0,1,0-21.581,23.76,23.76,0,0,1,5.231-8.243,23.2,23.2,0,0,1,7.916-5.3,26.84,26.84,0,0,1,19.489,0,22.569,22.569,0,0,1,7.85,5.3,25.1,25.1,0,0,1,5.231,8.243,31.623,31.623,0,0,1,0,21.581Z" transform="translate(400.434 0)" fill="none" stroke="#ed6e1b" stroke-width="2"/>
    <path id="패스_1030" data-name="패스 1030" d="M460.362,288.751v48.767L420.07,288.751H398.749v91.572H424v-48.8l40.422,48.8h21.324V288.751Z" transform="translate(477.789 1.227)" fill="none" stroke="#ed6e1b" stroke-width="2"/>
  </g>
</svg>
