<svg xmlns="http://www.w3.org/2000/svg" width="620.261" height="97.235" viewBox="0 0 620.261 97.235">
  <g id="그룹_745" data-name="그룹 745" transform="translate(-135.568 -482.146)">
    <path id="패스_1031" data-name="패스 1031" d="M162.471,483.751h-25.9v91.575h69.467V554.788H162.471Z" transform="translate(0 1.227)" fill="none" stroke="#ed6e1b" stroke-width="2"/>
    <path id="패스_1032" data-name="패스 1032" d="M188.482,538.436h40.685V519.2H188.482V503.9h46.179V483.751h-71.69v91.575h73.392V555.181H188.482Z" transform="translate(53.529 1.227)" fill="none" stroke="#ed6e1b" stroke-width="2"/>
    <path id="패스_1033" data-name="패스 1033" d="M223.7,511.73a22.157,22.157,0,0,1,8.047-5.3,28.3,28.3,0,0,1,10.332-1.832,25.424,25.424,0,0,1,11.776,2.749,32.174,32.174,0,0,1,9.812,7.977l16.484-14.91a42.6,42.6,0,0,0-16.681-12.888,60.276,60.276,0,0,0-42.713-.917,48.1,48.1,0,0,0-15.96,9.812,44.712,44.712,0,0,0-10.6,15.11,50.646,50.646,0,0,0,0,38.463,44.657,44.657,0,0,0,10.6,15.11,48.054,48.054,0,0,0,15.96,9.812,56.1,56.1,0,0,0,20.014,3.463,55.362,55.362,0,0,0,22.7-4.444,43.159,43.159,0,0,0,16.681-12.954l-16.484-14.91a31.417,31.417,0,0,1-9.812,8.107,25.424,25.424,0,0,1-11.776,2.752A28.294,28.294,0,0,1,231.75,555.1a22.117,22.117,0,0,1-8.047-5.3,24.928,24.928,0,0,1-5.231-8.307,31.262,31.262,0,0,1,0-21.455A24.991,24.991,0,0,1,223.7,511.73Z" transform="translate(109.161 0)" fill="none" stroke="#ed6e1b" stroke-width="2"/>
    <path id="패스_1034" data-name="패스 1034" d="M220.746,504.289h28.126v71.037h25.9V504.289h28V483.751H220.746Z" transform="translate(170.661 1.227)" fill="none" stroke="#ed6e1b" stroke-width="2"/>
    <path id="패스_1035" data-name="패스 1035" d="M310.658,533.857q0,11.643-4.514,16.744t-12.627,5.1q-8.11,0-12.688-5.1t-4.58-16.744V483.751h-25.9v50.89q0,20.276,11.316,31.4t31.594,11.117q20.149,0,31.594-11.117t11.447-31.4v-50.89H310.658Z" transform="translate(230.674 1.227)" fill="none" stroke="#ed6e1b" stroke-width="2"/>
    <path id="패스_1036" data-name="패스 1036" d="M362.087,535.555q4.9-7.452,4.9-18.052a32.615,32.615,0,0,0-4.9-17.989,31.158,31.158,0,0,0-14.068-11.707q-9.15-4.055-21.715-4.057H284.571v91.575h25.9V551h14.011l16.605,24.331H368.82l-19.79-28.839A30.913,30.913,0,0,0,362.087,535.555Zm-25.185-27.8a12.367,12.367,0,0,1,4.051,9.745q0,6.412-4.051,9.945t-12.167,3.53H310.473v-26.82h14.262Q332.841,504.159,336.9,507.758Z" transform="translate(300.059 1.227)" fill="none" stroke="#ed6e1b" stroke-width="2"/>
    <path id="패스_1037" data-name="패스 1037" d="M342.057,555.181V538.436h40.686V519.2H342.057V503.9h46.182V483.751h-71.69v91.575h73.39V555.181Z" transform="translate(364.89 1.227)" fill="none" stroke="#ed6e1b" stroke-width="2"/>
  </g>
</svg>
