<svg xmlns="http://www.w3.org/2000/svg" width="1081" height="97.737" viewBox="0 0 1081 97.737">
  <g id="그룹_742" data-name="그룹 742" transform="translate(-29.898 -358.751)">
    <path id="패스_1010" data-name="패스 1010" d="M94.678,364.434q-9.207-4.076-21.829-4.078H30.9V452.41H56.936V428.348H72.849q12.626,0,21.829-4.145a32.059,32.059,0,0,0,14.139-11.7q4.93-7.559,4.93-18.214a32.8,32.8,0,0,0-4.93-18.083A31.364,31.364,0,0,0,94.678,364.434ZM83.5,404.215Q79.424,407.7,71.272,407.7H56.936V380.873H71.272q8.148,0,12.228,3.615a12.441,12.441,0,0,1,4.078,9.8Q87.578,400.73,83.5,404.215Z" transform="translate(0 1.236)" fill="none" stroke="#ed6e1b" stroke-width="2"/>
    <path id="패스_1011" data-name="패스 1011" d="M87.958,415.326h40.9V396h-40.9V380.608h46.421V360.356H62.314v92.054H136.09V432.159H87.958Z" transform="translate(64.19 1.237)" fill="none" stroke="#ed6e1b" stroke-width="2"/>
    <path id="패스_1012" data-name="패스 1012" d="M169.272,412.435q4.93-7.5,4.93-18.15a32.8,32.8,0,0,0-4.93-18.083,31.372,31.372,0,0,0-14.136-11.768q-9.212-4.076-21.832-4.078H91.353V452.41h26.038V427.952h14.081l16.692,24.458h27.879l-19.894-28.99A31.1,31.1,0,0,0,169.272,412.435Zm-25.317-27.946a12.441,12.441,0,0,1,4.078,9.8q0,6.445-4.078,10t-12.228,3.551H117.391v-26.96h14.337Q139.876,380.873,143.955,384.489Z" transform="translate(123.523 1.236)" fill="none" stroke="#ed6e1b" stroke-width="2"/>
    <path id="패스_1013" data-name="패스 1013" d="M123.33,452.411h26.038V420.849h40.5V400.73h-40.5V380.608H195.4V360.356H123.33Z" transform="translate(188.859 1.237)" fill="none" stroke="#ed6e1b" stroke-width="2"/>
    <path id="패스_1014" data-name="패스 1014" d="M236.886,373.3a48.353,48.353,0,0,0-16.175-10,60.271,60.271,0,0,0-40.767,0,47.383,47.383,0,0,0-26.893,25.25,45.879,45.879,0,0,0-3.88,18.938,46.633,46.633,0,0,0,3.88,19.133,47.068,47.068,0,0,0,26.96,25.317,60.128,60.128,0,0,0,40.7,0,49.16,49.16,0,0,0,16.242-9.994,45.389,45.389,0,0,0,10.718-15.189,47.709,47.709,0,0,0,3.813-19.267,46.189,46.189,0,0,0-3.88-19.069A46.8,46.8,0,0,0,236.886,373.3Zm-13.609,45.17a25.244,25.244,0,0,1-5.262,8.287,22.678,22.678,0,0,1-7.888,5.326,26.991,26.991,0,0,1-19.6,0,23.359,23.359,0,0,1-7.958-5.326,23.883,23.883,0,0,1-5.259-8.287,32.884,32.884,0,0,1,0-21.7,23.911,23.911,0,0,1,5.259-8.287,23.4,23.4,0,0,1,7.958-5.326,26.991,26.991,0,0,1,19.6,0,22.718,22.718,0,0,1,7.888,5.326,25.275,25.275,0,0,1,5.262,8.287,31.845,31.845,0,0,1,0,21.7Z" transform="translate(241.658 0)" fill="none" stroke="#ed6e1b" stroke-width="2"/>
    <path id="패스_1015" data-name="패스 1015" d="M265.247,412.435q4.93-7.5,4.93-18.15a32.8,32.8,0,0,0-4.93-18.083,31.348,31.348,0,0,0-14.139-11.768q-9.2-4.076-21.832-4.078H187.328V452.41h26.038V427.952h14.081l16.692,24.458h27.879l-19.9-28.99A31.087,31.087,0,0,0,265.247,412.435ZM239.93,384.489a12.439,12.439,0,0,1,4.075,9.8q0,6.445-4.075,10T227.7,407.833H213.366v-26.96H227.7Q235.852,380.873,239.93,384.489Z" transform="translate(319.621 1.236)" fill="none" stroke="#ed6e1b" stroke-width="2"/>
    <path id="패스_1016" data-name="패스 1016" d="M304.651,360.356l-31.621,53.185-32.293-53.185H219.3v92.054h23.933V404.934l23.54,38.4H278.35l23.7-39.766.23,48.839h23.936l-.131-92.054Z" transform="translate(384.956 1.237)" fill="none" stroke="#ed6e1b" stroke-width="2"/>
    <path id="패스_1017" data-name="패스 1017" d="M297.536,360.356,256.9,452.41h26.564l7.231-18.013h38.929l7.231,18.013h27.091l-40.767-92.054Zm.809,54.97,11.814-29.434,11.811,29.434Z" transform="translate(461.771 1.236)" fill="none" stroke="#ed6e1b" stroke-width="2"/>
    <path id="패스_1018" data-name="패스 1018" d="M356.431,409.38l-40.5-49.023H294.494v92.054h25.38V403.353l40.635,49.058h21.436V360.356H356.431Z" transform="translate(538.584 1.237)" fill="none" stroke="#ed6e1b" stroke-width="2"/>
    <path id="패스_1019" data-name="패스 1019" d="M361.194,388.485a22.313,22.313,0,0,1,8.086-5.326,28.513,28.513,0,0,1,10.39-1.841,25.6,25.6,0,0,1,11.838,2.763,32.423,32.423,0,0,1,9.86,8.022l16.57-14.991a42.826,42.826,0,0,0-16.768-12.955,60.593,60.593,0,0,0-42.937-.922,48.349,48.349,0,0,0-16.041,9.866,44.8,44.8,0,0,0-10.651,15.189,50.866,50.866,0,0,0,0,38.661,44.775,44.775,0,0,0,10.651,15.189A48.244,48.244,0,0,0,358.233,452a56.429,56.429,0,0,0,20.122,3.484,55.648,55.648,0,0,0,22.815-4.471A43.349,43.349,0,0,0,417.938,438l-16.57-14.991a31.66,31.66,0,0,1-9.86,8.153,25.6,25.6,0,0,1-11.838,2.763,28.45,28.45,0,0,1-10.39-1.841,22.276,22.276,0,0,1-8.086-5.326,25.065,25.065,0,0,1-5.262-8.354,31.419,31.419,0,0,1,0-21.564A25.066,25.066,0,0,1,361.194,388.485Z" transform="translate(606.482 0)" fill="none" stroke="#ed6e1b" stroke-width="2"/>
    <path id="패스_1020" data-name="패스 1020" d="M386.856,432.159V415.326h40.9V396h-40.9V380.608H433.28V360.356H361.215v92.054h73.774V432.159Z" transform="translate(674.909 1.237)" fill="none" stroke="#ed6e1b" stroke-width="2"/>
  </g>
</svg>
