<svg xmlns="http://www.w3.org/2000/svg" width="112.984" height="127.976" viewBox="0 0 112.984 127.976">
  <g id="그룹_12" data-name="그룹 12" transform="translate(-207.558 -63)">
    <path id="패스_32" data-name="패스 32" d="M269.556,133.421l-8.336,7.042-8.595-7.042H235.788L215.633,159.8h91.694l-20.154-26.383Z" transform="translate(2.831 29.672)" fill="#fff"/>
    <path id="패스_33" data-name="패스 33" d="M312.688,98.72h6.354v76.024H209.058V98.72h7.785" transform="translate(0 14.732)" fill="none" stroke="#1d1d1b" stroke-linejoin="round" stroke-width="3"/>
    <path id="패스_34" data-name="패스 34" d="M218.526,124.549V64.5h82.9v59.265" transform="translate(4.076)" fill="none" stroke="#1d1d1b" stroke-linejoin="round" stroke-width="3"/>
    <rect id="사각형_1062" data-name="사각형 1062" width="12.559" height="12.559" transform="translate(234.478 104.328)" fill="none" stroke="#1d1d1b" stroke-linejoin="round" stroke-width="3"/>
    <line id="선_14" data-name="선 14" x2="36.304" transform="translate(256.849 90.395)" fill="none" stroke="#1d1d1b" stroke-linejoin="round" stroke-width="3"/>
    <line id="선_15" data-name="선 15" x2="36.304" transform="translate(256.849 104.328)" fill="none" stroke="#1d1d1b" stroke-linejoin="round" stroke-width="3"/>
    <line id="선_16" data-name="선 16" x2="36.304" transform="translate(256.849 116.887)" fill="none" stroke="#1d1d1b" stroke-linejoin="round" stroke-width="3"/>
    <path id="패스_35" data-name="패스 35" d="M225.73,77.3l6.986,7.335,11.265-11.358" transform="translate(7.178 3.777)" fill="none" stroke="#1d1d1b" stroke-linejoin="round" stroke-width="3"/>
    <path id="패스_36" data-name="패스 36" d="M253.327,125.292h17.617L299.983,163.3" transform="translate(19.059 26.172)" fill="none" stroke="#1d1d1b" stroke-linejoin="round" stroke-width="3"/>
    <path id="패스_37" data-name="패스 37" d="M256.079,125.292H238.461L209.423,163.3" transform="translate(0.157 26.172)" fill="none" stroke="#1d1d1b" stroke-linejoin="round" stroke-width="3"/>
    <path id="패스_38" data-name="패스 38" d="M222.6,98.72H209.058l54.992,45.054L317.388,98.72H305.5" transform="translate(0 14.732)" fill="none" stroke="#1d1d1b" stroke-linejoin="round" stroke-width="3"/>
  </g>
</svg>
