<svg xmlns="http://www.w3.org/2000/svg" width="117.811" height="138.656" viewBox="0 0 117.811 138.656">
  <g id="그룹_11" data-name="그룹 11" transform="translate(-626.709 -4613.861)">
    <g id="그룹_9" data-name="그룹 9" transform="translate(683.211 4669.467)">
      <g id="그룹_8" data-name="그룹 8" transform="translate(9.935 11.69)">
        <path id="패스_25" data-name="패스 25" d="M85.715,426.32h0a5.179,5.179,0,0,1-3.663-1.518L71.184,413.934a5.181,5.181,0,0,1,0-7.327h0a5.181,5.181,0,0,1,7.327,0l7.2,7.206L101.533,398a5.18,5.18,0,0,1,7.326,0h0a5.18,5.18,0,0,1,0,7.326L89.377,424.8A5.176,5.176,0,0,1,85.715,426.32Z" transform="translate(-69.666 -396.478)" fill="none" stroke="#1d1d1b" stroke-linejoin="round" stroke-width="3"/>
      </g>
      <path id="패스_26" data-name="패스 26" d="M106.19,394.988a26.076,26.076,0,0,0-2.32-3.294v0c-.032-.038-.066-.074-.1-.111q-.378-.453-.776-.888c-.1-.113-.21-.22-.315-.331-.2-.214-.407-.426-.617-.633-.124-.124-.253-.242-.38-.362-.2-.187-.4-.373-.6-.555-.137-.123-.277-.242-.417-.362q-.3-.258-.613-.508-.217-.174-.438-.344c-.212-.163-.426-.321-.643-.477-.148-.107-.3-.214-.447-.317-.227-.157-.459-.308-.691-.458-.146-.093-.29-.189-.437-.28-.262-.161-.528-.314-.8-.466-.124-.07-.245-.144-.37-.213-.4-.216-.8-.424-1.2-.619l-.072-.033q-.574-.275-1.166-.522c-.139-.058-.281-.111-.422-.167-.281-.112-.563-.223-.848-.325-.169-.061-.339-.115-.509-.173-.264-.088-.528-.175-.8-.255-.18-.054-.362-.1-.545-.155q-.394-.109-.794-.207c-.187-.045-.375-.088-.563-.129-.269-.059-.539-.113-.811-.164-.188-.034-.375-.069-.565-.1-.281-.046-.566-.085-.851-.122-.182-.024-.362-.049-.546-.069-.314-.034-.631-.059-.947-.081-.156-.011-.312-.028-.469-.036-.475-.025-.953-.041-1.435-.041s-.96.016-1.435.041c-.157.008-.312.025-.469.036-.317.022-.633.047-.947.081-.182.02-.363.045-.546.069-.285.038-.569.076-.851.122-.19.031-.377.066-.565.1-.272.051-.542.1-.811.164q-.282.061-.563.129-.4.1-.793.207c-.183.05-.365.1-.546.155-.267.08-.531.167-.8.255-.17.057-.341.112-.51.173-.285.1-.565.213-.845.324-.142.056-.285.109-.425.168q-.587.247-1.16.519l-.077.035c-.407.2-.807.4-1.2.619-.126.069-.248.143-.373.214-.266.151-.532.3-.792.465-.148.091-.292.186-.438.281-.232.149-.464.3-.69.456-.151.1-.3.212-.449.319q-.324.233-.641.475-.222.171-.44.346c-.207.166-.41.335-.611.507-.141.119-.281.239-.418.362-.2.181-.4.366-.6.554-.128.12-.257.241-.382.364-.209.205-.411.417-.613.63-.106.111-.214.221-.318.334q-.4.434-.775.888c-.032.038-.066.074-.1.112l0,0a26.085,26.085,0,0,0-5.26,10.527l-.014.028c-.026.111-.045.226-.07.337q-.1.432-.181.869-.053.276-.1.555-.074.442-.132.888c-.024.181-.049.362-.069.544-.036.324-.063.65-.087.978-.011.157-.027.313-.036.472-.027.485-.043.974-.043,1.466a26.169,26.169,0,0,0,52.338,0c0-.492-.016-.981-.043-1.466-.008-.159-.025-.315-.036-.472-.024-.327-.051-.654-.087-.978-.02-.182-.045-.363-.069-.544q-.059-.447-.132-.888-.047-.279-.1-.555c-.055-.291-.116-.581-.181-.869-.025-.111-.044-.226-.07-.337l-.014-.028a26.329,26.329,0,0,0-.963-3.128" transform="translate(-57.522 -382.188)" fill="none" stroke="#1d1d1b" stroke-linejoin="round" stroke-width="3"/>
      <path id="패스_27" data-name="패스 27" d="M105.152,406.8a20.37,20.37,0,1,1-20.171-17.521,20.325,20.325,0,0,1,15.7,7.4" transform="translate(-58.812 -383.478)" fill="none" stroke="#1d1d1b" stroke-linejoin="round" stroke-width="3"/>
      <path id="패스_28" data-name="패스 28" d="M123.132,471.494l-8.77-15.669-6,3.332-3.369-6.02,11.738,20.975a4.924,4.924,0,0,0,6.7,1.891c-.063.035-.128.063-.192.095A4.915,4.915,0,0,0,123.132,471.494Z" transform="translate(-66.158 -395.096)" fill="#fff"/>
      <line id="선_6" data-name="선 6" x2="4.185" y2="7.477" transform="translate(38.945 48.16)" fill="none" stroke="#1d1d1b" stroke-linejoin="round" stroke-width="3"/>
      <path id="패스_29" data-name="패스 29" d="M123.432,474.933h0a4.924,4.924,0,0,1-6.7-1.891l-11.738-20.975,8.591-4.809,11.739,20.974A4.924,4.924,0,0,1,123.432,474.933Z" transform="translate(-66.158 -394.026)" fill="none" stroke="#1d1d1b" stroke-linejoin="round" stroke-width="3"/>
      <line id="선_7" data-name="선 7" y1="4.809" x2="8.592" transform="translate(42.133 59.127)" fill="none" stroke="#1d1d1b" stroke-linejoin="round" stroke-width="3"/>
    </g>
    <g id="그룹_10" data-name="그룹 10" transform="translate(628.209 4615.361)">
      <rect id="사각형_1060" data-name="사각형 1060" width="13.399" height="13.399" transform="translate(12.67 46.482)" fill="none" stroke="#1d1d1b" stroke-linejoin="round" stroke-width="3"/>
      <line id="선_8" data-name="선 8" x2="38.732" transform="translate(36.537 15.867)" fill="none" stroke="#1d1d1b" stroke-linejoin="round" stroke-width="3"/>
      <line id="선_9" data-name="선 9" x2="38.732" transform="translate(36.537 29.266)" fill="none" stroke="#1d1d1b" stroke-linejoin="round" stroke-width="3"/>
      <line id="선_10" data-name="선 10" x2="38.732" transform="translate(36.537 46.482)" fill="none" stroke="#1d1d1b" stroke-linejoin="round" stroke-width="3"/>
      <line id="선_11" data-name="선 11" x2="20.046" transform="translate(36.537 59.881)" fill="none" stroke="#1d1d1b" stroke-linejoin="round" stroke-width="3"/>
      <rect id="사각형_1061" data-name="사각형 1061" width="13.399" height="13.399" transform="translate(12.67 77.097)" fill="none" stroke="#1d1d1b" stroke-linejoin="round" stroke-width="3"/>
      <line id="선_12" data-name="선 12" x2="14.556" transform="translate(36.537 77.097)" fill="none" stroke="#1d1d1b" stroke-linejoin="round" stroke-width="3"/>
      <line id="선_13" data-name="선 13" x2="14.556" transform="translate(36.537 90.496)" fill="none" stroke="#1d1d1b" stroke-linejoin="round" stroke-width="3"/>
      <path id="패스_30" data-name="패스 30" d="M215.049,402.187l7.453,7.825L234.52,397.9" transform="translate(-204.054 -382.866)" fill="none" stroke="#1d1d1b" stroke-linejoin="round" stroke-width="3"/>
      <path id="패스_31" data-name="패스 31" d="M274.511,492.1H206.155V385.737h88.439v54.049" transform="translate(-206.155 -385.737)" fill="none" stroke="#1d1d1b" stroke-linejoin="round" stroke-width="3"/>
    </g>
  </g>
</svg>
